# MagicaVoxel @ ephtracy

# material
mtllib BrokenSword_001.mtl
usemtl palette

# normals
vn -1 0 0
vn 1 0 0
vn 0 0 1
vn 0 0 -1
vn 0 -1 0
vn 0 1 0

# texcoords
vt 0.970703 0.5
vt 0.982422 0.5
vt 0.986328 0.5

# verts
v -2.5 0 1
v -2.5 0 -1
v -2.5 1 1
v -2.5 1 -1
v -2.5 11 2
v -2.5 11 -2
v -2.5 12 2
v -2.5 12 -2
v -1.5 0 2
v -1.5 0 1
v -1.5 0 -1
v -1.5 0 -2
v -1.5 1 2
v -1.5 1 1
v -1.5 1 -1
v -1.5 1 -2
v -1.5 3 -0
v -1.5 3 -1
v -1.5 4 -0
v -1.5 4 -1
v -1.5 6 1
v -1.5 6 -0
v -1.5 7 1
v -1.5 7 -0
v -1.5 8 -0
v -1.5 8 -1
v -1.5 9 1
v -1.5 9 -0
v -1.5 9 -1
v -1.5 10 1
v -1.5 10 -0
v -1.5 11 1
v -1.5 11 -1
v -1.5 12 1
v -1.5 12 -0
v -1.5 21 1
v -1.5 21 -0
v -0.5 12 -0
v -0.5 12 -1
v -0.5 19 -0
v -0.5 19 -1
v 0.5 19 -0
v 0.5 19 -1
v 0.5 20 1
v 0.5 20 -0
v 0.5 23 -0
v 0.5 23 -1
v 0.5 24 1
v 0.5 24 -0
v -0.5 20 1
v -0.5 20 -0
v -0.5 21 1
v -0.5 21 -0
v 1.5 0 2
v 1.5 0 1
v 1.5 0 -1
v 1.5 0 -2
v 1.5 1 2
v 1.5 1 1
v 1.5 1 -1
v 1.5 1 -2
v 1.5 2 1
v 1.5 2 -1
v 1.5 3 1
v 1.5 3 -1
v 1.5 7 1
v 1.5 7 -1
v 1.5 8 1
v 1.5 8 -1
v 1.5 10 1
v 1.5 10 -0
v 1.5 11 1
v 1.5 11 -0
v 1.5 11 -1
v 1.5 12 1
v 1.5 12 -1
v 1.5 23 -0
v 1.5 23 -1
v 1.5 24 1
v 1.5 24 -0
v 2.5 0 1
v 2.5 0 -1
v 2.5 1 1
v 2.5 1 -1
v 2.5 11 2
v 2.5 11 -2
v 2.5 12 2
v 2.5 12 -2
v -2.5 11 2
v -2.5 12 2
v -1.5 0 2
v -1.5 1 2
v 1.5 0 2
v 1.5 1 2
v 2.5 11 2
v 2.5 12 2
v -2.5 0 1
v -2.5 1 1
v -1.5 0 1
v -1.5 1 1
v -1.5 6 1
v -1.5 7 1
v -1.5 9 1
v -1.5 10 1
v -1.5 11 1
v -1.5 12 1
v -1.5 21 1
v -0.5 9 1
v -0.5 10 1
v -0.5 11 1
v -0.5 20 1
v -0.5 21 1
v 0.5 2 1
v 0.5 3 1
v 0.5 6 1
v 0.5 7 1
v 0.5 8 1
v 0.5 20 1
v 0.5 24 1
v 1.5 0 1
v 1.5 1 1
v 1.5 2 1
v 1.5 3 1
v 1.5 7 1
v 1.5 8 1
v 1.5 10 1
v 1.5 11 1
v 1.5 12 1
v 1.5 24 1
v 2.5 0 1
v 2.5 1 1
v -1.5 12 -0
v -1.5 21 -0
v -0.5 12 -0
v -0.5 19 -0
v -0.5 20 -0
v -0.5 21 -0
v 0.5 19 -0
v 0.5 20 -0
v 0.5 23 -0
v 0.5 24 -0
v 1.5 23 -0
v 1.5 24 -0
v -2.5 0 -1
v -2.5 1 -1
v -1.5 0 -1
v -1.5 1 -1
v -1.5 3 -1
v -1.5 4 -1
v -1.5 8 -1
v -1.5 9 -1
v -1.5 11 -1
v -0.5 12 -1
v -0.5 19 -1
v 0.5 2 -1
v 0.5 3 -1
v 0.5 4 -1
v 0.5 7 -1
v 0.5 8 -1
v 0.5 9 -1
v 0.5 19 -1
v 0.5 23 -1
v 1.5 0 -1
v 1.5 1 -1
v 1.5 2 -1
v 1.5 3 -1
v 1.5 7 -1
v 1.5 8 -1
v 1.5 11 -1
v 1.5 12 -1
v 1.5 23 -1
v 2.5 0 -1
v 2.5 1 -1
v -2.5 11 -2
v -2.5 12 -2
v -1.5 0 -2
v -1.5 1 -2
v 1.5 0 -2
v 1.5 1 -2
v 2.5 11 -2
v 2.5 12 -2
v -1.5 0 2
v 1.5 0 2
v -2.5 0 1
v -1.5 0 1
v 1.5 0 1
v 2.5 0 1
v -2.5 0 -1
v -1.5 0 -1
v 1.5 0 -1
v 2.5 0 -1
v -1.5 0 -2
v 1.5 0 -2
v -2.5 11 2
v 2.5 11 2
v -1.5 11 1
v -0.5 11 1
v 1.5 11 1
v 1.5 11 -0
v -1.5 11 -1
v 1.5 11 -1
v -2.5 11 -2
v 2.5 11 -2
v -1.5 1 2
v 1.5 1 2
v -2.5 1 1
v -1.5 1 1
v 1.5 1 1
v 2.5 1 1
v -2.5 1 -1
v -1.5 1 -1
v 1.5 1 -1
v 2.5 1 -1
v -1.5 1 -2
v 1.5 1 -2
v -2.5 12 2
v 2.5 12 2
v -1.5 12 1
v 1.5 12 1
v -1.5 12 -0
v -0.5 12 -0
v -0.5 12 -1
v 1.5 12 -1
v -2.5 12 -2
v 2.5 12 -2
v -0.5 19 -0
v 0.5 19 -0
v -0.5 19 -1
v 0.5 19 -1
v -0.5 20 1
v 0.5 20 1
v -0.5 20 -0
v 0.5 20 -0
v -1.5 21 1
v -0.5 21 1
v -1.5 21 -0
v -0.5 21 -0
v 0.5 23 -0
v 1.5 23 -0
v 0.5 23 -1
v 1.5 23 -1
v 0.5 24 1
v 1.5 24 1
v 0.5 24 -0
v 1.5 24 -0

# faces
f 3/2/1 2/2/1 1/2/1
f 4/2/1 2/2/1 3/2/1
f 7/2/1 6/2/1 5/2/1
f 8/2/1 6/2/1 7/2/1
f 13/2/1 10/2/1 9/2/1
f 14/2/1 10/2/1 13/2/1
f 15/2/1 12/2/1 11/2/1
f 16/2/1 12/2/1 15/2/1
f 17/2/1 15/2/1 14/2/1
f 18/2/1 15/2/1 17/2/1
f 19/2/1 17/2/1 14/2/1
f 19/3/1 18/3/1 17/3/1
f 20/3/1 18/3/1 19/3/1
f 21/2/1 19/2/1 14/2/1
f 21/2/1 20/2/1 19/2/1
f 22/2/1 20/2/1 21/2/1
f 23/3/1 22/3/1 21/3/1
f 24/2/1 20/2/1 22/2/1
f 24/3/1 22/3/1 23/3/1
f 25/2/1 24/2/1 23/2/1
f 25/2/1 20/2/1 24/2/1
f 26/2/1 20/2/1 25/2/1
f 27/2/1 25/2/1 23/2/1
f 28/3/1 26/3/1 25/3/1
f 28/2/1 25/2/1 27/2/1
f 29/3/1 26/3/1 28/3/1
f 30/3/1 28/3/1 27/3/1
f 31/2/1 29/2/1 28/2/1
f 31/3/1 28/3/1 30/3/1
f 32/2/1 31/2/1 30/2/1
f 33/2/1 29/2/1 31/2/1
f 33/2/1 31/2/1 32/2/1
f 36/1/1 35/1/1 34/1/1
f 37/1/1 35/1/1 36/1/1
f 40/1/1 39/1/1 38/1/1
f 41/1/1 39/1/1 40/1/1
f 45/1/1 43/1/1 42/1/1
f 46/1/1 43/1/1 45/1/1
f 46/1/1 45/1/1 44/1/1
f 47/1/1 43/1/1 46/1/1
f 48/1/1 46/1/1 44/1/1
f 49/1/1 46/1/1 48/1/1
f 50/1/2 51/1/2 52/1/2
f 52/1/2 51/1/2 53/1/2
f 54/2/2 55/2/2 58/2/2
f 58/2/2 55/2/2 59/2/2
f 56/2/2 57/2/2 60/2/2
f 60/2/2 57/2/2 61/2/2
f 59/2/2 60/2/2 62/2/2
f 62/2/2 60/2/2 63/2/2
f 62/3/2 63/3/2 64/3/2
f 64/3/2 63/3/2 65/3/2
f 64/2/2 65/2/2 66/2/2
f 66/2/2 65/2/2 67/2/2
f 66/3/2 67/3/2 68/3/2
f 68/3/2 67/3/2 69/3/2
f 68/2/2 69/2/2 70/2/2
f 70/2/2 69/2/2 71/2/2
f 70/3/2 71/3/2 72/3/2
f 71/2/2 69/2/2 73/2/2
f 72/3/2 71/3/2 73/3/2
f 73/2/2 69/2/2 74/2/2
f 75/1/2 76/1/2 77/1/2
f 77/1/2 76/1/2 78/1/2
f 75/1/2 77/1/2 79/1/2
f 79/1/2 77/1/2 80/1/2
f 81/2/2 82/2/2 83/2/2
f 83/2/2 82/2/2 84/2/2
f 85/2/2 86/2/2 87/2/2
f 87/2/2 86/2/2 88/2/2
f 93/2/3 92/2/3 91/2/3
f 94/2/3 92/2/3 93/2/3
f 95/2/3 90/2/3 89/2/3
f 96/2/3 90/2/3 95/2/3
f 99/2/3 98/2/3 97/2/3
f 100/2/3 98/2/3 99/2/3
f 108/2/3 103/2/3 102/2/3
f 108/3/3 104/3/3 103/3/3
f 109/2/3 105/2/3 104/2/3
f 109/3/3 104/3/3 108/3/3
f 110/2/3 105/2/3 109/2/3
f 111/1/3 107/1/3 106/1/3
f 112/1/3 107/1/3 111/1/3
f 113/2/3 101/2/3 100/2/3
f 114/2/3 101/2/3 113/2/3
f 115/3/3 102/3/3 101/3/3
f 115/2/3 101/2/3 114/2/3
f 116/2/3 108/2/3 102/2/3
f 116/3/3 102/3/3 115/3/3
f 116/2/3 109/2/3 108/2/3
f 117/2/3 109/2/3 116/2/3
f 118/1/3 111/1/3 106/1/3
f 121/2/3 113/2/3 100/2/3
f 122/3/3 114/3/3 113/3/3
f 122/2/3 113/2/3 121/2/3
f 123/2/3 115/2/3 114/2/3
f 123/3/3 114/3/3 122/3/3
f 123/2/3 116/2/3 115/2/3
f 124/3/3 117/3/3 116/3/3
f 124/2/3 116/2/3 123/2/3
f 125/2/3 109/2/3 117/2/3
f 125/3/3 117/3/3 124/3/3
f 126/3/3 110/3/3 109/3/3
f 126/2/3 109/2/3 125/2/3
f 127/3/3 110/3/3 126/3/3
f 128/1/3 118/1/3 106/1/3
f 128/1/3 119/1/3 118/1/3
f 129/1/3 119/1/3 128/1/3
f 130/2/3 121/2/3 120/2/3
f 131/2/3 121/2/3 130/2/3
f 132/1/4 133/1/4 134/1/4
f 134/1/4 133/1/4 135/1/4
f 135/1/4 133/1/4 136/1/4
f 136/1/4 133/1/4 137/1/4
f 135/1/4 136/1/4 138/1/4
f 138/1/4 136/1/4 139/1/4
f 140/1/4 141/1/4 142/1/4
f 142/1/4 141/1/4 143/1/4
f 144/2/4 145/2/4 146/2/4
f 146/2/4 145/2/4 147/2/4
f 147/2/4 148/2/4 155/2/4
f 148/3/4 149/3/4 156/3/4
f 155/2/4 148/2/4 156/2/4
f 149/2/4 150/2/4 157/2/4
f 156/3/4 149/3/4 157/3/4
f 157/2/4 150/2/4 158/2/4
f 150/3/4 151/3/4 159/3/4
f 158/2/4 150/2/4 159/2/4
f 151/2/4 152/2/4 160/2/4
f 159/3/4 151/3/4 160/3/4
f 153/1/4 154/1/4 161/1/4
f 147/2/4 155/2/4 164/2/4
f 155/3/4 156/3/4 165/3/4
f 164/2/4 155/2/4 165/2/4
f 157/2/4 158/2/4 166/2/4
f 165/3/4 156/3/4 166/3/4
f 156/2/4 157/2/4 166/2/4
f 158/3/4 159/3/4 167/3/4
f 166/2/4 158/2/4 167/2/4
f 159/2/4 160/2/4 168/2/4
f 167/3/4 159/3/4 168/3/4
f 160/2/4 152/2/4 169/2/4
f 168/2/4 160/2/4 169/2/4
f 161/1/4 162/1/4 170/1/4
f 153/1/4 161/1/4 170/1/4
f 170/1/4 162/1/4 171/1/4
f 163/2/4 164/2/4 172/2/4
f 172/2/4 164/2/4 173/2/4
f 176/2/4 177/2/4 178/2/4
f 178/2/4 177/2/4 179/2/4
f 174/2/4 175/2/4 180/2/4
f 180/2/4 175/2/4 181/2/4
f 185/2/5 183/2/5 182/2/5
f 186/2/5 183/2/5 185/2/5
f 188/2/5 185/2/5 184/2/5
f 188/2/5 187/2/5 186/2/5
f 188/2/5 186/2/5 185/2/5
f 189/2/5 187/2/5 188/2/5
f 190/2/5 187/2/5 189/2/5
f 191/2/5 187/2/5 190/2/5
f 192/2/5 190/2/5 189/2/5
f 193/2/5 190/2/5 192/2/5
f 196/2/5 195/2/5 194/2/5
f 197/2/5 195/2/5 196/2/5
f 198/2/5 195/2/5 197/2/5
f 199/2/5 195/2/5 198/2/5
f 200/2/5 196/2/5 194/2/5
f 201/2/5 195/2/5 199/2/5
f 202/2/5 200/2/5 194/2/5
f 202/2/5 201/2/5 200/2/5
f 203/2/5 195/2/5 201/2/5
f 203/2/5 201/2/5 202/2/5
f 204/2/6 205/2/6 207/2/6
f 207/2/6 205/2/6 208/2/6
f 206/2/6 207/2/6 210/2/6
f 210/2/6 207/2/6 211/2/6
f 208/2/6 209/2/6 212/2/6
f 212/2/6 209/2/6 213/2/6
f 211/2/6 212/2/6 214/2/6
f 214/2/6 212/2/6 215/2/6
f 216/2/6 217/2/6 218/2/6
f 218/2/6 217/2/6 219/2/6
f 216/2/6 218/2/6 220/2/6
f 220/2/6 221/2/6 222/2/6
f 219/2/6 217/2/6 223/2/6
f 220/2/6 222/2/6 224/2/6
f 222/2/6 223/2/6 224/2/6
f 216/2/6 220/2/6 224/2/6
f 223/2/6 217/2/6 225/2/6
f 224/2/6 223/2/6 225/2/6
f 226/1/6 227/1/6 228/1/6
f 228/1/6 227/1/6 229/1/6
f 230/1/6 231/1/6 232/1/6
f 232/1/6 231/1/6 233/1/6
f 234/1/6 235/1/6 236/1/6
f 236/1/6 235/1/6 237/1/6
f 238/1/6 239/1/6 240/1/6
f 240/1/6 239/1/6 241/1/6
f 242/1/6 243/1/6 244/1/6
f 244/1/6 243/1/6 245/1/6
