# 3ds Max Wavefront OBJ Exporter v0.97b - (c)2007 guruware
# File Created: 21.11.2016 23:16:16

mtllib Dynamite.mtl

#
# object default
#

v  -5.5000 1.0000 0.5000
v  -5.5000 0.0000 -9.5000
v  -5.5000 0.0000 1.5000
v  -5.5000 1.0000 -0.5000
v  -5.5000 1.0000 -7.5000
v  -5.5000 1.0000 -8.5000
v  -5.5000 2.0000 -1.5000
v  -5.5000 2.0000 -6.5000
v  -5.5000 6.0000 -1.5000
v  -5.5000 6.0000 -2.5000
v  -5.5000 6.0000 -5.5000
v  -5.5000 6.0000 -6.5000
v  -5.5000 7.0000 -0.5000
v  -5.5000 7.0000 -1.5000
v  -5.5000 7.0000 -6.5000
v  -5.5000 7.0000 -7.5000
v  -5.5000 9.0000 -0.5000
v  -5.5000 9.0000 -1.5000
v  -5.5000 9.0000 -6.5000
v  -5.5000 9.0000 -7.5000
v  -5.5000 10.0000 -1.5000
v  -5.5000 10.0000 -2.5000
v  -5.5000 10.0000 -5.5000
v  -5.5000 10.0000 -6.5000
v  -5.5000 11.0000 -1.5000
v  -5.5000 11.0000 -6.5000
v  -5.5000 12.0000 0.5000
v  -5.5000 12.0000 -0.5000
v  -5.5000 12.0000 -7.5000
v  -5.5000 12.0000 -8.5000
v  -5.5000 13.0000 1.5000
v  -5.5000 13.0000 -9.5000
v  -3.5000 22.0000 -3.5000
v  -3.5000 21.0000 -4.5000
v  -3.5000 21.0000 -3.5000
v  -3.5000 22.0000 -4.5000
v  -1.5000 14.0000 -2.5000
v  -1.5000 13.0000 -5.5000
v  -1.5000 13.0000 -2.5000
v  -1.5000 14.0000 -5.5000
v  -0.5000 21.0000 -3.5000
v  -0.5000 14.0000 -4.5000
v  -0.5000 14.0000 -3.5000
v  -0.5000 21.0000 -4.5000
v  9.5000 1.0000 -3.5000
v  9.5000 0.0000 -4.5000
v  9.5000 0.0000 -3.5000
v  9.5000 1.0000 -4.5000
v  11.5000 1.0000 -4.5000
v  11.5000 0.0000 -5.5000
v  11.5000 0.0000 -4.5000
v  11.5000 1.0000 -5.5000
v  13.5000 1.0000 -5.5000
v  13.5000 0.0000 -6.5000
v  13.5000 0.0000 -5.5000
v  13.5000 1.0000 -6.5000
v  14.5000 1.0000 -6.5000
v  14.5000 0.0000 -7.5000
v  14.5000 0.0000 -6.5000
v  14.5000 1.0000 -7.5000
v  0.5000 14.0000 -3.5000
v  0.5000 14.0000 -4.5000
v  0.5000 21.0000 -3.5000
v  0.5000 21.0000 -4.5000
v  1.5000 13.0000 -2.5000
v  1.5000 13.0000 -5.5000
v  1.5000 14.0000 -2.5000
v  1.5000 14.0000 -5.5000
v  3.5000 21.0000 -3.5000
v  3.5000 21.0000 -4.5000
v  3.5000 22.0000 -3.5000
v  3.5000 22.0000 -4.5000
v  5.5000 0.0000 1.5000
v  5.5000 0.0000 -2.5000
v  5.5000 1.0000 0.5000
v  5.5000 1.0000 -0.5000
v  5.5000 1.0000 -2.5000
v  5.5000 0.0000 -3.5000
v  5.5000 0.0000 -9.5000
v  5.5000 1.0000 -3.5000
v  5.5000 1.0000 -7.5000
v  5.5000 1.0000 -8.5000
v  5.5000 2.0000 -1.5000
v  5.5000 2.0000 -2.5000
v  5.5000 2.0000 -3.5000
v  5.5000 2.0000 -6.5000
v  5.5000 6.0000 -1.5000
v  5.5000 6.0000 -2.5000
v  5.5000 6.0000 -5.5000
v  5.5000 6.0000 -6.5000
v  5.5000 7.0000 -0.5000
v  5.5000 7.0000 -1.5000
v  5.5000 7.0000 -6.5000
v  5.5000 7.0000 -7.5000
v  5.5000 9.0000 -0.5000
v  5.5000 9.0000 -1.5000
v  5.5000 9.0000 -6.5000
v  5.5000 9.0000 -7.5000
v  5.5000 10.0000 -1.5000
v  5.5000 10.0000 -2.5000
v  5.5000 10.0000 -5.5000
v  5.5000 10.0000 -6.5000
v  5.5000 11.0000 -1.5000
v  5.5000 11.0000 -6.5000
v  5.5000 12.0000 0.5000
v  5.5000 12.0000 -0.5000
v  5.5000 12.0000 -7.5000
v  5.5000 12.0000 -8.5000
v  5.5000 13.0000 1.5000
v  5.5000 13.0000 -9.5000
v  6.5000 1.0000 -2.5000
v  6.5000 1.0000 -3.5000
v  6.5000 2.0000 -2.5000
v  6.5000 2.0000 -3.5000
v  10.5000 0.0000 -2.5000
v  10.5000 0.0000 -3.5000
v  10.5000 1.0000 -2.5000
v  10.5000 1.0000 -3.5000
v  12.5000 0.0000 -3.5000
v  12.5000 0.0000 -4.5000
v  12.5000 1.0000 -3.5000
v  12.5000 1.0000 -4.5000
v  13.5000 0.0000 -4.5000
v  13.5000 1.0000 -4.5000
v  15.5000 0.0000 -5.5000
v  15.5000 0.0000 -6.5000
v  15.5000 1.0000 -5.5000
v  15.5000 1.0000 -6.5000
v  22.5000 0.0000 -6.5000
v  22.5000 0.0000 -7.5000
v  22.5000 1.0000 -6.5000
v  22.5000 1.0000 -7.5000
v  -4.5000 1.0000 1.5000
v  -4.5000 12.0000 1.5000
v  -3.5000 1.0000 1.5000
v  -3.5000 7.0000 1.5000
v  -3.5000 9.0000 1.5000
v  -3.5000 12.0000 1.5000
v  -2.5000 2.0000 1.5000
v  -2.5000 6.0000 1.5000
v  -2.5000 7.0000 1.5000
v  -2.5000 9.0000 1.5000
v  -2.5000 10.0000 1.5000
v  -2.5000 11.0000 1.5000
v  -1.5000 6.0000 1.5000
v  -1.5000 10.0000 1.5000
v  1.5000 6.0000 1.5000
v  1.5000 10.0000 1.5000
v  2.5000 2.0000 1.5000
v  2.5000 6.0000 1.5000
v  2.5000 7.0000 1.5000
v  2.5000 9.0000 1.5000
v  2.5000 10.0000 1.5000
v  2.5000 11.0000 1.5000
v  3.5000 1.0000 1.5000
v  3.5000 7.0000 1.5000
v  3.5000 9.0000 1.5000
v  3.5000 12.0000 1.5000
v  4.5000 1.0000 1.5000
v  4.5000 12.0000 1.5000
v  -0.5000 22.0000 -3.5000
v  0.5000 22.0000 -3.5000
v  -0.5000 22.0000 -4.5000
v  0.5000 22.0000 -4.5000
v  -4.5000 1.0000 -9.5000
v  -4.5000 12.0000 -9.5000
v  -3.5000 1.0000 -9.5000
v  -3.5000 7.0000 -9.5000
v  -3.5000 9.0000 -9.5000
v  -3.5000 12.0000 -9.5000
v  -2.5000 2.0000 -9.5000
v  -2.5000 6.0000 -9.5000
v  -2.5000 7.0000 -9.5000
v  -2.5000 9.0000 -9.5000
v  -2.5000 10.0000 -9.5000
v  -2.5000 11.0000 -9.5000
v  -1.5000 6.0000 -9.5000
v  -1.5000 10.0000 -9.5000
v  1.5000 6.0000 -9.5000
v  1.5000 10.0000 -9.5000
v  2.5000 2.0000 -9.5000
v  2.5000 6.0000 -9.5000
v  2.5000 7.0000 -9.5000
v  2.5000 9.0000 -9.5000
v  2.5000 10.0000 -9.5000
v  2.5000 11.0000 -9.5000
v  3.5000 1.0000 -9.5000
v  3.5000 7.0000 -9.5000
v  3.5000 9.0000 -9.5000
v  3.5000 12.0000 -9.5000
v  4.5000 1.0000 -9.5000
v  4.5000 12.0000 -9.5000
v  -4.5000 0.0000 0.5000
v  4.5000 0.0000 0.5000
v  -4.5000 0.0000 -8.5000
v  4.5000 0.0000 -8.5000
v  -4.5000 13.0000 0.5000
v  -2.5000 13.0000 0.5000
v  -1.5000 13.0000 0.5000
v  1.5000 13.0000 0.5000
v  2.5000 13.0000 0.5000
v  4.5000 13.0000 0.5000
v  -3.5000 13.0000 -0.5000
v  -2.5000 13.0000 -0.5000
v  2.5000 13.0000 -0.5000
v  3.5000 13.0000 -0.5000
v  -2.5000 13.0000 -1.5000
v  -1.5000 13.0000 -1.5000
v  1.5000 13.0000 -1.5000
v  2.5000 13.0000 -1.5000
v  -2.5000 13.0000 -5.5000
v  2.5000 13.0000 -5.5000
v  -3.5000 13.0000 -6.5000
v  -2.5000 13.0000 -6.5000
v  2.5000 13.0000 -6.5000
v  3.5000 13.0000 -6.5000
v  -4.5000 13.0000 -8.5000
v  -2.5000 13.0000 -8.5000
v  -1.5000 13.0000 -8.5000
v  1.5000 13.0000 -8.5000
v  2.5000 13.0000 -8.5000
v  4.5000 13.0000 -8.5000
# 222 vertices

vn -1.0000 0.0000 -0.0000
vn 1.0000 0.0000 -0.0000
vn 0.0000 0.0000 1.0000
vn 0.0000 0.0000 -1.0000
vn 0.0000 -1.0000 -0.0000
vn 0.0000 1.0000 -0.0000
# 6 vertex normals

vt 0.9395 0.5000 0.0000
vt 0.9746 0.5000 0.0000
vt 0.9785 0.5000 0.0000
vt 0.9707 0.5000 0.0000
vt 0.9434 0.5000 0.0000
# 5 texture coords

g default
usemtl palette
s off
f 1/1/1 2/1/1 3/1/1 
f 4/1/1 2/1/1 1/1/1 
f 5/1/1 2/1/1 4/1/1 
f 6/1/1 2/1/1 5/1/1 
f 7/2/1 5/2/1 4/2/1 
f 8/2/1 5/2/1 7/2/1 
f 9/2/1 7/2/1 4/2/1 
f 9/3/1 8/3/1 7/3/1 
f 10/3/1 8/3/1 9/3/1 
f 11/3/1 8/3/1 10/3/1 
f 12/2/1 5/2/1 8/2/1 
f 12/3/1 8/3/1 11/3/1 
f 13/4/1 4/4/1 1/4/1 
f 13/2/1 9/2/1 4/2/1 
f 13/2/1 10/2/1 9/2/1 
f 14/2/1 10/2/1 13/2/1 
f 15/2/1 5/2/1 12/2/1 
f 15/2/1 12/2/1 11/2/1 
f 16/4/1 6/4/1 5/4/1 
f 16/2/1 5/2/1 15/2/1 
f 17/4/1 14/4/1 13/4/1 
f 17/4/1 13/4/1 1/4/1 
f 18/2/1 10/2/1 14/2/1 
f 18/4/1 14/4/1 17/4/1 
f 19/2/1 15/2/1 11/2/1 
f 19/4/1 16/4/1 15/4/1 
f 20/4/1 6/4/1 16/4/1 
f 20/4/1 16/4/1 19/4/1 
f 21/2/1 10/2/1 18/2/1 
f 21/2/1 18/2/1 17/2/1 
f 22/3/1 11/3/1 10/3/1 
f 22/2/1 10/2/1 21/2/1 
f 23/2/1 19/2/1 11/2/1 
f 23/3/1 11/3/1 22/3/1 
f 23/2/1 20/2/1 19/2/1 
f 24/2/1 20/2/1 23/2/1 
f 25/2/1 21/2/1 17/2/1 
f 25/3/1 22/3/1 21/3/1 
f 25/3/1 24/3/1 23/3/1 
f 25/3/1 23/3/1 22/3/1 
f 26/2/1 20/2/1 24/2/1 
f 26/3/1 24/3/1 25/3/1 
f 27/1/1 1/1/1 3/1/1 
f 27/4/1 17/4/1 1/4/1 
f 28/2/1 26/2/1 25/2/1 
f 28/4/1 17/4/1 27/4/1 
f 28/2/1 25/2/1 17/2/1 
f 29/2/1 20/2/1 26/2/1 
f 29/2/1 26/2/1 28/2/1 
f 29/4/1 6/4/1 20/4/1 
f 30/1/1 2/1/1 6/1/1 
f 30/4/1 6/4/1 29/4/1 
f 31/1/1 28/1/1 27/1/1 
f 31/1/1 27/1/1 3/1/1 
f 31/1/1 30/1/1 29/1/1 
f 31/1/1 29/1/1 28/1/1 
f 32/1/1 2/1/1 30/1/1 
f 32/1/1 30/1/1 31/1/1 
f 33/3/1 34/3/1 35/3/1 
f 36/3/1 34/3/1 33/3/1 
f 37/2/1 38/2/1 39/2/1 
f 40/2/1 38/2/1 37/2/1 
f 41/2/1 42/2/1 43/2/1 
f 44/2/1 42/2/1 41/2/1 
f 45/5/1 46/5/1 47/5/1 
f 48/5/1 46/5/1 45/5/1 
f 49/5/1 50/5/1 51/5/1 
f 52/5/1 50/5/1 49/5/1 
f 53/5/1 54/5/1 55/5/1 
f 56/5/1 54/5/1 53/5/1 
f 57/5/1 58/5/1 59/5/1 
f 60/5/1 58/5/1 57/5/1 
f 61/2/2 62/2/2 63/2/2 
f 63/2/2 62/2/2 64/2/2 
f 65/2/2 66/2/2 67/2/2 
f 67/2/2 66/2/2 68/2/2 
f 69/3/2 70/3/2 71/3/2 
f 71/3/2 70/3/2 72/3/2 
f 73/1/2 74/1/2 75/1/2 
f 75/1/2 74/1/2 76/1/2 
f 76/1/2 74/1/2 77/1/2 
f 78/1/2 79/1/2 80/1/2 
f 80/1/2 79/1/2 81/1/2 
f 81/1/2 79/1/2 82/1/2 
f 76/2/2 77/2/2 83/2/2 
f 83/2/2 77/2/2 84/2/2 
f 80/2/2 81/2/2 85/2/2 
f 85/2/2 81/2/2 86/2/2 
f 83/3/2 84/3/2 87/3/2 
f 76/2/2 83/2/2 87/2/2 
f 85/3/2 86/3/2 87/3/2 
f 84/3/2 85/3/2 87/3/2 
f 87/3/2 86/3/2 88/3/2 
f 88/3/2 86/3/2 89/3/2 
f 86/2/2 81/2/2 90/2/2 
f 89/3/2 86/3/2 90/3/2 
f 75/4/2 76/4/2 91/4/2 
f 76/2/2 87/2/2 91/2/2 
f 87/2/2 88/2/2 91/2/2 
f 91/2/2 88/2/2 92/2/2 
f 90/2/2 81/2/2 93/2/2 
f 89/2/2 90/2/2 93/2/2 
f 81/4/2 82/4/2 94/4/2 
f 93/2/2 81/2/2 94/2/2 
f 91/4/2 92/4/2 95/4/2 
f 75/4/2 91/4/2 95/4/2 
f 92/2/2 88/2/2 96/2/2 
f 95/4/2 92/4/2 96/4/2 
f 89/2/2 93/2/2 97/2/2 
f 93/4/2 94/4/2 97/4/2 
f 94/4/2 82/4/2 98/4/2 
f 97/4/2 94/4/2 98/4/2 
f 96/2/2 88/2/2 99/2/2 
f 95/2/2 96/2/2 99/2/2 
f 88/3/2 89/3/2 100/3/2 
f 99/2/2 88/2/2 100/2/2 
f 89/2/2 97/2/2 101/2/2 
f 100/3/2 89/3/2 101/3/2 
f 97/2/2 98/2/2 101/2/2 
f 101/2/2 98/2/2 102/2/2 
f 95/2/2 99/2/2 103/2/2 
f 99/3/2 100/3/2 103/3/2 
f 101/3/2 102/3/2 103/3/2 
f 100/3/2 101/3/2 103/3/2 
f 102/2/2 98/2/2 104/2/2 
f 103/3/2 102/3/2 104/3/2 
f 73/1/2 75/1/2 105/1/2 
f 75/4/2 95/4/2 105/4/2 
f 103/2/2 104/2/2 106/2/2 
f 105/4/2 95/4/2 106/4/2 
f 95/2/2 103/2/2 106/2/2 
f 104/2/2 98/2/2 107/2/2 
f 106/2/2 104/2/2 107/2/2 
f 98/4/2 82/4/2 107/4/2 
f 82/1/2 79/1/2 108/1/2 
f 107/4/2 82/4/2 108/4/2 
f 106/1/2 107/1/2 109/1/2 
f 105/1/2 106/1/2 109/1/2 
f 107/1/2 108/1/2 109/1/2 
f 73/1/2 105/1/2 109/1/2 
f 108/1/2 79/1/2 110/1/2 
f 109/1/2 108/1/2 110/1/2 
f 111/5/2 112/5/2 113/5/2 
f 113/5/2 112/5/2 114/5/2 
f 115/5/2 116/5/2 117/5/2 
f 117/5/2 116/5/2 118/5/2 
f 119/5/2 120/5/2 121/5/2 
f 121/5/2 120/5/2 122/5/2 
f 123/5/2 55/5/2 124/5/2 
f 124/5/2 55/5/2 53/5/2 
f 125/5/2 126/5/2 127/5/2 
f 127/5/2 126/5/2 128/5/2 
f 129/5/2 130/5/2 131/5/2 
f 131/5/2 130/5/2 132/5/2 
f 133/1/3 31/1/3 3/1/3 
f 134/1/3 31/1/3 133/1/3 
f 135/1/3 133/1/3 3/1/3 
f 135/4/3 134/4/3 133/4/3 
f 136/4/3 134/4/3 135/4/3 
f 137/4/3 134/4/3 136/4/3 
f 138/1/3 31/1/3 134/1/3 
f 138/4/3 134/4/3 137/4/3 
f 139/2/3 136/2/3 135/2/3 
f 140/2/3 136/2/3 139/2/3 
f 141/4/3 137/4/3 136/4/3 
f 141/2/3 136/2/3 140/2/3 
f 142/2/3 138/2/3 137/2/3 
f 142/4/3 137/4/3 141/4/3 
f 143/2/3 138/2/3 142/2/3 
f 144/2/3 138/2/3 143/2/3 
f 145/3/3 140/3/3 139/3/3 
f 145/2/3 141/2/3 140/2/3 
f 145/2/3 142/2/3 141/2/3 
f 145/2/3 143/2/3 142/2/3 
f 146/3/3 144/3/3 143/3/3 
f 146/2/3 143/2/3 145/2/3 
f 147/3/3 145/3/3 139/3/3 
f 147/3/3 146/3/3 145/3/3 
f 148/3/3 144/3/3 146/3/3 
f 148/3/3 146/3/3 147/3/3 
f 149/3/3 147/3/3 139/3/3 
f 149/2/3 139/2/3 135/2/3 
f 150/2/3 148/2/3 147/2/3 
f 150/3/3 147/3/3 149/3/3 
f 151/2/3 148/2/3 150/2/3 
f 152/2/3 148/2/3 151/2/3 
f 153/3/3 144/3/3 148/3/3 
f 153/2/3 148/2/3 152/2/3 
f 154/2/3 138/2/3 144/2/3 
f 154/3/3 144/3/3 153/3/3 
f 155/1/3 135/1/3 3/1/3 
f 155/2/3 149/2/3 135/2/3 
f 155/2/3 150/2/3 149/2/3 
f 155/2/3 151/2/3 150/2/3 
f 156/4/3 152/4/3 151/4/3 
f 156/2/3 151/2/3 155/2/3 
f 157/2/3 153/2/3 152/2/3 
f 157/4/3 152/4/3 156/4/3 
f 157/2/3 154/2/3 153/2/3 
f 158/2/3 138/2/3 154/2/3 
f 158/2/3 154/2/3 157/2/3 
f 158/1/3 31/1/3 138/1/3 
f 159/4/3 156/4/3 155/4/3 
f 159/4/3 157/4/3 156/4/3 
f 159/4/3 158/4/3 157/4/3 
f 159/1/3 155/1/3 3/1/3 
f 160/1/3 31/1/3 158/1/3 
f 160/4/3 158/4/3 159/4/3 
f 73/1/3 159/1/3 3/1/3 
f 73/1/3 160/1/3 159/1/3 
f 109/1/3 31/1/3 160/1/3 
f 109/1/3 160/1/3 73/1/3 
f 65/2/3 37/2/3 39/2/3 
f 67/2/3 37/2/3 65/2/3 
f 111/5/3 77/5/3 74/5/3 
f 111/5/3 84/5/3 77/5/3 
f 113/5/3 84/5/3 111/5/3 
f 115/5/3 111/5/3 74/5/3 
f 117/5/3 111/5/3 115/5/3 
f 41/3/3 33/3/3 35/3/3 
f 161/3/3 33/3/3 41/3/3 
f 61/2/3 41/2/3 43/2/3 
f 61/2/3 161/2/3 41/2/3 
f 63/2/3 161/2/3 61/2/3 
f 162/2/3 161/2/3 63/2/3 
f 69/3/3 162/3/3 63/3/3 
f 71/3/3 162/3/3 69/3/3 
f 119/5/3 118/5/3 116/5/3 
f 121/5/3 118/5/3 119/5/3 
f 123/5/3 122/5/3 120/5/3 
f 124/5/3 122/5/3 123/5/3 
f 125/5/3 53/5/3 55/5/3 
f 127/5/3 53/5/3 125/5/3 
f 129/5/3 128/5/3 126/5/3 
f 131/5/3 128/5/3 129/5/3 
f 78/5/4 80/5/4 112/5/4 
f 80/5/4 85/5/4 112/5/4 
f 112/5/4 85/5/4 114/5/4 
f 78/5/4 112/5/4 47/5/4 
f 47/5/4 112/5/4 45/5/4 
f 34/3/4 36/3/4 44/3/4 
f 44/3/4 36/3/4 163/3/4 
f 42/2/4 44/2/4 62/2/4 
f 44/2/4 163/2/4 62/2/4 
f 62/2/4 163/2/4 64/2/4 
f 64/2/4 163/2/4 164/2/4 
f 64/3/4 164/3/4 70/3/4 
f 70/3/4 164/3/4 72/3/4 
f 46/5/4 48/5/4 51/5/4 
f 51/5/4 48/5/4 49/5/4 
f 38/2/4 40/2/4 66/2/4 
f 66/2/4 40/2/4 68/2/4 
f 50/5/4 52/5/4 55/5/4 
f 55/5/4 52/5/4 53/5/4 
f 54/5/4 56/5/4 59/5/4 
f 59/5/4 56/5/4 57/5/4 
f 58/5/4 60/5/4 130/5/4 
f 130/5/4 60/5/4 132/5/4 
f 2/1/4 32/1/4 165/1/4 
f 165/1/4 32/1/4 166/1/4 
f 2/1/4 165/1/4 167/1/4 
f 165/4/4 166/4/4 167/4/4 
f 167/4/4 166/4/4 168/4/4 
f 168/4/4 166/4/4 169/4/4 
f 166/1/4 32/1/4 170/1/4 
f 169/4/4 166/4/4 170/4/4 
f 167/2/4 168/2/4 171/2/4 
f 171/2/4 168/2/4 172/2/4 
f 168/4/4 169/4/4 173/4/4 
f 172/2/4 168/2/4 173/2/4 
f 169/2/4 170/2/4 174/2/4 
f 173/4/4 169/4/4 174/4/4 
f 174/2/4 170/2/4 175/2/4 
f 175/2/4 170/2/4 176/2/4 
f 171/3/4 172/3/4 177/3/4 
f 172/2/4 173/2/4 177/2/4 
f 173/2/4 174/2/4 177/2/4 
f 174/2/4 175/2/4 177/2/4 
f 175/3/4 176/3/4 178/3/4 
f 177/2/4 175/2/4 178/2/4 
f 171/3/4 177/3/4 179/3/4 
f 177/3/4 178/3/4 179/3/4 
f 178/3/4 176/3/4 180/3/4 
f 179/3/4 178/3/4 180/3/4 
f 171/3/4 179/3/4 181/3/4 
f 167/2/4 171/2/4 181/2/4 
f 179/2/4 180/2/4 182/2/4 
f 181/3/4 179/3/4 182/3/4 
f 182/2/4 180/2/4 183/2/4 
f 183/2/4 180/2/4 184/2/4 
f 180/3/4 176/3/4 185/3/4 
f 184/2/4 180/2/4 185/2/4 
f 176/2/4 170/2/4 186/2/4 
f 185/3/4 176/3/4 186/3/4 
f 2/1/4 167/1/4 187/1/4 
f 167/2/4 181/2/4 187/2/4 
f 181/2/4 182/2/4 187/2/4 
f 182/2/4 183/2/4 187/2/4 
f 183/4/4 184/4/4 188/4/4 
f 187/2/4 183/2/4 188/2/4 
f 184/2/4 185/2/4 189/2/4 
f 188/4/4 184/4/4 189/4/4 
f 185/2/4 186/2/4 189/2/4 
f 186/2/4 170/2/4 190/2/4 
f 189/2/4 186/2/4 190/2/4 
f 170/1/4 32/1/4 190/1/4 
f 187/4/4 188/4/4 191/4/4 
f 188/4/4 189/4/4 191/4/4 
f 189/4/4 190/4/4 191/4/4 
f 2/1/4 187/1/4 191/1/4 
f 190/1/4 32/1/4 192/1/4 
f 191/4/4 190/4/4 192/4/4 
f 2/1/4 191/1/4 79/1/4 
f 191/1/4 192/1/4 79/1/4 
f 192/1/4 32/1/4 110/1/4 
f 79/1/4 192/1/4 110/1/4 
f 193/1/5 73/1/5 3/1/5 
f 194/1/5 73/1/5 193/1/5 
f 74/1/5 73/1/5 194/1/5 
f 78/1/5 74/1/5 194/1/5 
f 78/5/5 115/5/5 74/5/5 
f 47/5/5 115/5/5 78/5/5 
f 116/5/5 115/5/5 47/5/5 
f 46/5/5 119/5/5 116/5/5 
f 46/5/5 116/5/5 47/5/5 
f 51/5/5 119/5/5 46/5/5 
f 120/5/5 119/5/5 51/5/5 
f 50/5/5 123/5/5 120/5/5 
f 50/5/5 120/5/5 51/5/5 
f 55/5/5 123/5/5 50/5/5 
f 54/5/5 125/5/5 55/5/5 
f 59/5/5 125/5/5 54/5/5 
f 126/5/5 125/5/5 59/5/5 
f 58/5/5 129/5/5 126/5/5 
f 58/5/5 126/5/5 59/5/5 
f 130/5/5 129/5/5 58/5/5 
f 195/1/5 193/1/5 3/1/5 
f 195/4/5 194/4/5 193/4/5 
f 196/1/5 78/1/5 194/1/5 
f 196/4/5 194/4/5 195/4/5 
f 2/1/5 195/1/5 3/1/5 
f 2/1/5 196/1/5 195/1/5 
f 79/1/5 78/1/5 196/1/5 
f 79/1/5 196/1/5 2/1/5 
f 34/3/5 41/3/5 35/3/5 
f 44/3/5 41/3/5 34/3/5 
f 64/3/5 69/3/5 63/3/5 
f 70/3/5 69/3/5 64/3/5 
f 111/5/6 117/5/6 112/5/6 
f 112/5/6 117/5/6 45/5/6 
f 45/5/6 117/5/6 118/5/6 
f 118/5/6 121/5/6 48/5/6 
f 45/5/6 118/5/6 48/5/6 
f 48/5/6 121/5/6 49/5/6 
f 49/5/6 121/5/6 122/5/6 
f 122/5/6 124/5/6 52/5/6 
f 49/5/6 122/5/6 52/5/6 
f 52/5/6 124/5/6 53/5/6 
f 53/5/6 127/5/6 56/5/6 
f 56/5/6 127/5/6 57/5/6 
f 57/5/6 127/5/6 128/5/6 
f 128/5/6 131/5/6 60/5/6 
f 57/5/6 128/5/6 60/5/6 
f 60/5/6 131/5/6 132/5/6 
f 84/5/6 113/5/6 85/5/6 
f 85/5/6 113/5/6 114/5/6 
f 31/1/6 109/1/6 197/1/6 
f 197/1/6 109/1/6 198/1/6 
f 198/1/6 109/1/6 199/1/6 
f 199/1/6 109/1/6 200/1/6 
f 200/1/6 109/1/6 201/1/6 
f 201/1/6 109/1/6 202/1/6 
f 197/4/6 198/4/6 203/4/6 
f 198/2/6 199/2/6 204/2/6 
f 203/4/6 198/4/6 204/4/6 
f 200/2/6 201/2/6 205/2/6 
f 201/4/6 202/4/6 205/4/6 
f 205/4/6 202/4/6 206/4/6 
f 204/2/6 199/2/6 207/2/6 
f 203/2/6 204/2/6 207/2/6 
f 199/4/6 200/4/6 208/4/6 
f 207/2/6 199/2/6 208/2/6 
f 205/2/6 206/2/6 209/2/6 
f 208/4/6 200/4/6 209/4/6 
f 200/2/6 205/2/6 209/2/6 
f 209/2/6 206/2/6 210/2/6 
f 207/4/6 208/4/6 39/4/6 
f 208/4/6 209/4/6 39/4/6 
f 209/4/6 210/4/6 39/4/6 
f 39/4/6 210/4/6 65/4/6 
f 203/2/6 207/2/6 211/2/6 
f 207/4/6 39/4/6 211/4/6 
f 211/4/6 39/4/6 38/4/6 
f 65/4/6 210/4/6 66/4/6 
f 210/2/6 206/2/6 212/2/6 
f 66/4/6 210/4/6 212/4/6 
f 197/4/6 203/4/6 213/4/6 
f 211/2/6 38/2/6 213/2/6 
f 203/2/6 211/2/6 213/2/6 
f 213/2/6 38/2/6 214/2/6 
f 212/2/6 206/2/6 215/2/6 
f 66/2/6 212/2/6 215/2/6 
f 206/4/6 202/4/6 216/4/6 
f 215/2/6 206/2/6 216/2/6 
f 31/1/6 197/1/6 217/1/6 
f 213/4/6 214/4/6 217/4/6 
f 197/4/6 213/4/6 217/4/6 
f 214/2/6 38/2/6 218/2/6 
f 217/4/6 214/4/6 218/4/6 
f 38/4/6 66/4/6 219/4/6 
f 218/2/6 38/2/6 219/2/6 
f 66/2/6 215/2/6 220/2/6 
f 219/4/6 66/4/6 220/4/6 
f 215/4/6 216/4/6 221/4/6 
f 220/2/6 215/2/6 221/2/6 
f 216/4/6 202/4/6 222/4/6 
f 221/4/6 216/4/6 222/4/6 
f 202/1/6 109/1/6 222/1/6 
f 220/1/6 221/1/6 32/1/6 
f 31/1/6 217/1/6 32/1/6 
f 221/1/6 222/1/6 32/1/6 
f 217/1/6 218/1/6 32/1/6 
f 218/1/6 219/1/6 32/1/6 
f 219/1/6 220/1/6 32/1/6 
f 222/1/6 109/1/6 110/1/6 
f 32/1/6 222/1/6 110/1/6 
f 37/2/6 67/2/6 43/2/6 
f 43/2/6 67/2/6 61/2/6 
f 37/2/6 43/2/6 42/2/6 
f 61/2/6 67/2/6 62/2/6 
f 37/2/6 42/2/6 40/2/6 
f 42/2/6 62/2/6 40/2/6 
f 62/2/6 67/2/6 68/2/6 
f 40/2/6 62/2/6 68/2/6 
f 33/3/6 161/3/6 36/3/6 
f 161/2/6 162/2/6 163/2/6 
f 36/3/6 161/3/6 163/3/6 
f 162/3/6 71/3/6 164/3/6 
f 163/2/6 162/2/6 164/2/6 
f 164/3/6 71/3/6 72/3/6 
# 0 polygons - 440 triangles

