# MagicaVoxel @ ephtracy

# material
mtllib NewDarkLightCorner.mtl
usemtl palette

# normals
vn -1 0 0
vn 1 0 0
vn 0 0 1
vn 0 0 -1
vn 0 -1 0
vn 0 1 0

# texcoords
vt 0.373047 0.5
vt 0.490234 0.5
vt 0.533203 0.5
vt 0.537109 0.5
vt 0.630859 0.5
vt 0.654297 0.5
vt 0.904297 0.5
vt 0.982422 0.5

# verts
v -22.5 0 22.5
v -22.5 0 -22.5
v -22.5 3 22.5
v -22.5 3 -22.5
v -22.5 5 22.5
v -22.5 5 -22.5
v -22.5 7 22.5
v -22.5 7 -22.5
v -22.5 8 22.5
v -22.5 8 -22.5
v -22.5 9 22.5
v -22.5 9 8.5
v -22.5 9 -22.5
v -22.5 10 8.5
v -22.5 10 -22.5
v -21.5 9 11.5
v -21.5 9 8.5
v -21.5 10 11.5
v -21.5 10 8.5
v -19.5 9 6.5
v -19.5 9 5.5
v -19.5 10 6.5
v -19.5 10 5.5
v -16.5 9 10.5
v -16.5 9 9.5
v -16.5 10 10.5
v -16.5 10 9.5
v -15.5 9 12.5
v -15.5 9 10.5
v -15.5 9 6.5
v -15.5 9 4.5
v -15.5 10 12.5
v -15.5 10 10.5
v -15.5 10 6.5
v -15.5 10 4.5
v -14.5 9 4.5
v -14.5 9 3.5
v -14.5 10 4.5
v -14.5 10 3.5
v -13.5 9 8.5
v -13.5 9 7.5
v -13.5 10 8.5
v -13.5 10 7.5
v -12.5 9 9.5
v -12.5 9 8.5
v -12.5 9 7.5
v -12.5 9 6.5
v -12.5 10 9.5
v -12.5 10 8.5
v -12.5 10 7.5
v -12.5 10 6.5
v -10.5 9 21.5
v -10.5 9 19.5
v -10.5 9 12.5
v -10.5 9 11.5
v -10.5 10 21.5
v -10.5 10 19.5
v -10.5 10 12.5
v -10.5 10 11.5
v -9.5 9 19.5
v -9.5 9 17.5
v -9.5 9 11.5
v -9.5 9 10.5
v -9.5 10 19.5
v -9.5 10 17.5
v -9.5 10 11.5
v -9.5 10 10.5
v -8.5 9 22.5
v -8.5 9 20.5
v -8.5 9 16.5
v -8.5 9 15.5
v -8.5 10 22.5
v -8.5 10 20.5
v -8.5 10 16.5
v -8.5 10 15.5
v -7.5 9 17.5
v -7.5 9 16.5
v -7.5 10 17.5
v -7.5 10 16.5
v -6.5 9 18.5
v -6.5 9 17.5
v -6.5 9 13.5
v -6.5 9 8.5
v -6.5 10 18.5
v -6.5 10 17.5
v -6.5 10 13.5
v -6.5 10 8.5
v -5.5 9 19.5
v -5.5 9 18.5
v -5.5 9 15.5
v -5.5 9 13.5
v -5.5 9 8.5
v -5.5 9 7.5
v -5.5 10 19.5
v -5.5 10 18.5
v -5.5 10 15.5
v -5.5 10 13.5
v -5.5 10 8.5
v -5.5 10 7.5
v -4.5 9 16.5
v -4.5 9 15.5
v -4.5 10 16.5
v -4.5 10 15.5
v -21.5 9 6.5
v -21.5 9 5.5
v -21.5 10 6.5
v -21.5 10 5.5
v -20.5 9 7.5
v -20.5 9 6.5
v -20.5 10 7.5
v -20.5 10 6.5
v -19.5 9 10.5
v -19.5 9 7.5
v -19.5 10 10.5
v -19.5 10 7.5
v -18.5 9 11.5
v -18.5 9 10.5
v -18.5 9 6.5
v -18.5 9 4.5
v -18.5 10 11.5
v -18.5 10 10.5
v -18.5 10 6.5
v -18.5 10 4.5
v -16.5 9 4.5
v -16.5 9 3.5
v -16.5 10 4.5
v -16.5 10 3.5
v -14.5 9 12.5
v -14.5 9 10.5
v -14.5 10 12.5
v -14.5 10 10.5
v -9.5 9 21.5
v -9.5 9 20.5
v -9.5 10 21.5
v -9.5 10 20.5
v -8.5 9 19.5
v -8.5 9 17.5
v -8.5 9 12.5
v -8.5 9 11.5
v -8.5 10 19.5
v -8.5 10 17.5
v -8.5 10 12.5
v -8.5 10 11.5
v -7.5 9 11.5
v -7.5 9 7.5
v -7.5 10 11.5
v -7.5 10 7.5
v -6.5 9 16.5
v -6.5 9 15.5
v -6.5 10 16.5
v -6.5 10 15.5
v 22.5 0 22.5
v 22.5 0 -22.5
v 22.5 3 22.5
v 22.5 3 -22.5
v 22.5 5 22.5
v 22.5 5 -22.5
v 22.5 7 22.5
v 22.5 7 -22.5
v 22.5 8 22.5
v 22.5 8 -22.5
v 22.5 9 22.5
v 22.5 9 -22.5
v 22.5 10 22.5
v 22.5 10 -22.5
v -22.5 0 22.5
v -22.5 3 22.5
v -22.5 5 22.5
v -22.5 7 22.5
v -22.5 8 22.5
v -22.5 9 22.5
v -8.5 9 22.5
v -8.5 10 22.5
v 22.5 0 22.5
v 22.5 3 22.5
v 22.5 5 22.5
v 22.5 7 22.5
v 22.5 8 22.5
v 22.5 9 22.5
v 22.5 10 22.5
v -10.5 9 21.5
v -10.5 10 21.5
v -9.5 9 21.5
v -9.5 10 21.5
v -9.5 9 20.5
v -9.5 10 20.5
v -8.5 9 20.5
v -8.5 10 20.5
v -6.5 9 18.5
v -6.5 10 18.5
v -5.5 9 18.5
v -5.5 10 18.5
v -7.5 9 17.5
v -7.5 10 17.5
v -6.5 9 17.5
v -6.5 10 17.5
v -8.5 9 16.5
v -8.5 10 16.5
v -7.5 9 16.5
v -7.5 10 16.5
v -5.5 9 15.5
v -5.5 10 15.5
v -4.5 9 15.5
v -4.5 10 15.5
v -6.5 9 13.5
v -6.5 10 13.5
v -5.5 9 13.5
v -5.5 10 13.5
v -15.5 9 12.5
v -15.5 10 12.5
v -14.5 9 12.5
v -14.5 10 12.5
v -10.5 9 12.5
v -10.5 10 12.5
v -8.5 9 12.5
v -8.5 10 12.5
v -21.5 9 11.5
v -21.5 10 11.5
v -18.5 9 11.5
v -18.5 10 11.5
v -8.5 9 11.5
v -8.5 10 11.5
v -7.5 9 11.5
v -7.5 10 11.5
v -16.5 9 10.5
v -16.5 10 10.5
v -15.5 9 10.5
v -15.5 10 10.5
v -14.5 9 10.5
v -14.5 10 10.5
v -9.5 9 10.5
v -9.5 10 10.5
v -22.5 9 8.5
v -22.5 10 8.5
v -21.5 9 8.5
v -21.5 10 8.5
v -13.5 9 8.5
v -13.5 10 8.5
v -12.5 9 8.5
v -12.5 10 8.5
v -7.5 9 7.5
v -7.5 10 7.5
v -5.5 9 7.5
v -5.5 10 7.5
v -19.5 9 6.5
v -19.5 10 6.5
v -18.5 9 6.5
v -18.5 10 6.5
v -15.5 9 6.5
v -15.5 10 6.5
v -14.5 9 6.5
v -12.5 9 6.5
v -12.5 10 6.5
v -21.5 9 5.5
v -21.5 10 5.5
v -19.5 9 5.5
v -19.5 10 5.5
v -18.5 9 4.5
v -18.5 10 4.5
v -16.5 9 4.5
v -16.5 10 4.5
v -16.5 9 3.5
v -16.5 10 3.5
v -14.5 9 3.5
v -14.5 10 3.5
v -10.5 9 19.5
v -10.5 10 19.5
v -9.5 9 19.5
v -9.5 10 19.5
v -8.5 9 19.5
v -8.5 10 19.5
v -5.5 9 19.5
v -5.5 10 19.5
v -9.5 9 17.5
v -9.5 10 17.5
v -8.5 9 17.5
v -8.5 10 17.5
v -6.5 9 16.5
v -6.5 10 16.5
v -4.5 9 16.5
v -4.5 10 16.5
v -8.5 9 15.5
v -8.5 10 15.5
v -6.5 9 15.5
v -6.5 10 15.5
v -10.5 9 11.5
v -10.5 10 11.5
v -9.5 9 11.5
v -9.5 10 11.5
v -19.5 9 10.5
v -19.5 10 10.5
v -18.5 9 10.5
v -18.5 10 10.5
v -16.5 9 9.5
v -16.5 10 9.5
v -12.5 9 9.5
v -12.5 10 9.5
v -6.5 9 8.5
v -6.5 10 8.5
v -5.5 9 8.5
v -5.5 10 8.5
v -20.5 9 7.5
v -20.5 10 7.5
v -19.5 9 7.5
v -19.5 10 7.5
v -13.5 9 7.5
v -13.5 10 7.5
v -12.5 9 7.5
v -12.5 10 7.5
v -21.5 9 6.5
v -21.5 10 6.5
v -20.5 9 6.5
v -20.5 10 6.5
v -15.5 9 4.5
v -15.5 10 4.5
v -14.5 9 4.5
v -14.5 10 4.5
v -22.5 0 -22.5
v -22.5 3 -22.5
v -22.5 5 -22.5
v -22.5 7 -22.5
v -22.5 8 -22.5
v -22.5 9 -22.5
v -22.5 10 -22.5
v 22.5 0 -22.5
v 22.5 3 -22.5
v 22.5 5 -22.5
v 22.5 7 -22.5
v 22.5 8 -22.5
v 22.5 9 -22.5
v 22.5 10 -22.5
v -22.5 0 22.5
v 22.5 0 22.5
v -22.5 0 -22.5
v 22.5 0 -22.5
v -22.5 9 22.5
v -8.5 9 22.5
v -10.5 9 21.5
v -9.5 9 21.5
v -9.5 9 20.5
v -8.5 9 20.5
v -10.5 9 19.5
v -9.5 9 19.5
v -8.5 9 19.5
v -5.5 9 19.5
v -6.5 9 18.5
v -5.5 9 18.5
v -9.5 9 17.5
v -8.5 9 17.5
v -7.5 9 17.5
v -6.5 9 17.5
v -8.5 9 16.5
v -7.5 9 16.5
v -6.5 9 16.5
v -4.5 9 16.5
v -8.5 9 15.5
v -6.5 9 15.5
v -5.5 9 15.5
v -4.5 9 15.5
v -6.5 9 13.5
v -5.5 9 13.5
v -15.5 9 12.5
v -14.5 9 12.5
v -10.5 9 12.5
v -8.5 9 12.5
v -21.5 9 11.5
v -18.5 9 11.5
v -10.5 9 11.5
v -9.5 9 11.5
v -8.5 9 11.5
v -7.5 9 11.5
v -19.5 9 10.5
v -18.5 9 10.5
v -16.5 9 10.5
v -15.5 9 10.5
v -14.5 9 10.5
v -9.5 9 10.5
v -16.5 9 9.5
v -12.5 9 9.5
v -22.5 9 8.5
v -21.5 9 8.5
v -13.5 9 8.5
v -12.5 9 8.5
v -6.5 9 8.5
v -5.5 9 8.5
v -20.5 9 7.5
v -19.5 9 7.5
v -15.5 9 7.5
v -14.5 9 7.5
v -13.5 9 7.5
v -12.5 9 7.5
v -7.5 9 7.5
v -5.5 9 7.5
v -21.5 9 6.5
v -20.5 9 6.5
v -19.5 9 6.5
v -18.5 9 6.5
v -15.5 9 6.5
v -14.5 9 6.5
v -12.5 9 6.5
v -21.5 9 5.5
v -19.5 9 5.5
v -18.5 9 4.5
v -16.5 9 4.5
v -15.5 9 4.5
v -14.5 9 4.5
v -16.5 9 3.5
v -14.5 9 3.5
v -8.5 10 22.5
v 22.5 10 22.5
v -10.5 10 21.5
v -9.5 10 21.5
v -9.5 10 20.5
v -8.5 10 20.5
v -3.5 10 20.5
v -1.5 10 20.5
v 2.5 10 20.5
v 4.5 10 20.5
v -10.5 10 19.5
v -9.5 10 19.5
v -8.5 10 19.5
v -5.5 10 19.5
v 1.5 10 19.5
v 2.5 10 19.5
v -6.5 10 18.5
v -5.5 10 18.5
v -3.5 10 18.5
v -1.5 10 18.5
v -9.5 10 17.5
v -8.5 10 17.5
v -7.5 10 17.5
v -6.5 10 17.5
v 1.5 10 17.5
v 2.5 10 17.5
v 16.5 10 17.5
v 19.5 10 17.5
v -8.5 10 16.5
v -7.5 10 16.5
v -6.5 10 16.5
v -4.5 10 16.5
v 2.5 10 16.5
v 4.5 10 16.5
v -8.5 10 15.5
v -6.5 10 15.5
v -5.5 10 15.5
v -4.5 10 15.5
v 15.5 10 15.5
v 16.5 10 15.5
v 18.5 10 15.5
v 19.5 10 15.5
v 15.5 10 14.5
v 18.5 10 14.5
v -6.5 10 13.5
v -5.5 10 13.5
v -15.5 10 12.5
v -14.5 10 12.5
v -10.5 10 12.5
v -8.5 10 12.5
v -21.5 10 11.5
v -18.5 10 11.5
v -10.5 10 11.5
v -9.5 10 11.5
v -8.5 10 11.5
v -7.5 10 11.5
v -19.5 10 10.5
v -18.5 10 10.5
v -16.5 10 10.5
v -15.5 10 10.5
v -14.5 10 10.5
v -9.5 10 10.5
v -16.5 10 9.5
v -12.5 10 9.5
v 14.5 10 9.5
v 16.5 10 9.5
v -22.5 10 8.5
v -21.5 10 8.5
v -13.5 10 8.5
v -12.5 10 8.5
v -10.5 10 8.5
v -9.5 10 8.5
v -6.5 10 8.5
v -5.5 10 8.5
v -20.5 10 7.5
v -19.5 10 7.5
v -13.5 10 7.5
v -12.5 10 7.5
v -7.5 10 7.5
v -5.5 10 7.5
v -21.5 10 6.5
v -20.5 10 6.5
v -19.5 10 6.5
v -18.5 10 6.5
v -15.5 10 6.5
v -12.5 10 6.5
v -11.5 10 6.5
v -10.5 10 6.5
v -9.5 10 6.5
v -21.5 10 5.5
v -19.5 10 5.5
v -12.5 10 5.5
v -11.5 10 5.5
v -10.5 10 5.5
v -8.5 10 5.5
v 13.5 10 5.5
v 14.5 10 5.5
v -18.5 10 4.5
v -16.5 10 4.5
v -15.5 10 4.5
v -14.5 10 4.5
v -13.5 10 4.5
v -12.5 10 4.5
v -11.5 10 4.5
v -9.5 10 4.5
v 15.5 10 4.5
v 16.5 10 4.5
v -16.5 10 3.5
v -14.5 10 3.5
v -13.5 10 3.5
v -11.5 10 3.5
v -10.5 10 3.5
v -9.5 10 3.5
v -8.5 10 3.5
v 14.5 10 3.5
v 15.5 10 3.5
v -10.5 10 2.5
v -9.5 10 2.5
v 13.5 10 2.5
v 14.5 10 2.5
v -16.5 10 1.5
v -15.5 10 1.5
v -15.5 10 0.5
v -12.5 10 0.5
v -13.5 10 -0.5
v -12.5 10 -0.5
v -14.5 10 -1.5
v -13.5 10 -1.5
v -16.5 10 -2.5
v -14.5 10 -2.5
v 15.5 10 -2.5
v 17.5 10 -2.5
v 16.5 10 -3.5
v 17.5 10 -3.5
v 18.5 10 -3.5
v 16.5 10 -4.5
v 17.5 10 -4.5
v 18.5 10 -4.5
v 15.5 10 -5.5
v 17.5 10 -5.5
v -16.5 10 -11.5
v -14.5 10 -11.5
v -18.5 10 -12.5
v -16.5 10 -12.5
v -15.5 10 -12.5
v -16.5 10 -13.5
v -15.5 10 -13.5
v -18.5 10 -14.5
v -17.5 10 -14.5
v -15.5 10 -14.5
v -14.5 10 -14.5
v 16.5 10 -14.5
v 17.5 10 -14.5
v -16.5 10 -15.5
v -15.5 10 -15.5
v 17.5 10 -15.5
v 18.5 10 -15.5
v -17.5 10 -16.5
v -16.5 10 -16.5
v 16.5 10 -16.5
v 17.5 10 -16.5
v 18.5 10 -16.5
v 19.5 10 -16.5
v 5.5 10 -17.5
v 8.5 10 -17.5
v 15.5 10 -17.5
v 17.5 10 -17.5
v 18.5 10 -17.5
v 19.5 10 -17.5
v 5.5 10 -18.5
v 8.5 10 -18.5
v -7.5 10 -19.5
v -4.5 10 -19.5
v 15.5 10 -19.5
v 18.5 10 -19.5
v -7.5 10 -20.5
v -4.5 10 -20.5
v -22.5 10 -22.5
v 22.5 10 -22.5

# faces
f 3/8/1 2/8/1 1/8/1
f 4/8/1 2/8/1 3/8/1
f 5/3/1 4/3/1 3/3/1
f 6/3/1 4/3/1 5/3/1
f 7/4/1 6/4/1 5/4/1
f 8/4/1 6/4/1 7/4/1
f 9/1/1 8/1/1 7/1/1
f 10/1/1 8/1/1 9/1/1
f 11/2/1 10/2/1 9/2/1
f 12/2/1 10/2/1 11/2/1
f 13/2/1 10/2/1 12/2/1
f 14/6/1 13/6/1 12/6/1
f 15/6/1 13/6/1 14/6/1
f 18/6/1 17/6/1 16/6/1
f 19/6/1 17/6/1 18/6/1
f 22/6/1 21/6/1 20/6/1
f 23/6/1 21/6/1 22/6/1
f 26/6/1 25/6/1 24/6/1
f 27/6/1 25/6/1 26/6/1
f 32/6/1 29/6/1 28/6/1
f 33/6/1 29/6/1 32/6/1
f 34/6/1 31/6/1 30/6/1
f 35/6/1 31/6/1 34/6/1
f 38/6/1 37/6/1 36/6/1
f 39/6/1 37/6/1 38/6/1
f 42/6/1 41/6/1 40/6/1
f 43/6/1 41/6/1 42/6/1
f 48/6/1 45/6/1 44/6/1
f 49/6/1 45/6/1 48/6/1
f 50/6/1 47/6/1 46/6/1
f 51/6/1 47/6/1 50/6/1
f 56/6/1 53/6/1 52/6/1
f 57/6/1 53/6/1 56/6/1
f 58/6/1 55/6/1 54/6/1
f 59/6/1 55/6/1 58/6/1
f 64/6/1 61/6/1 60/6/1
f 65/6/1 61/6/1 64/6/1
f 66/6/1 63/6/1 62/6/1
f 67/6/1 63/6/1 66/6/1
f 72/6/1 69/6/1 68/6/1
f 73/6/1 69/6/1 72/6/1
f 74/6/1 71/6/1 70/6/1
f 75/6/1 71/6/1 74/6/1
f 78/6/1 77/6/1 76/6/1
f 79/6/1 77/6/1 78/6/1
f 84/6/1 81/6/1 80/6/1
f 85/6/1 81/6/1 84/6/1
f 86/6/1 83/6/1 82/6/1
f 87/6/1 83/6/1 86/6/1
f 94/6/1 89/6/1 88/6/1
f 95/6/1 89/6/1 94/6/1
f 96/6/1 91/6/1 90/6/1
f 97/6/1 91/6/1 96/6/1
f 98/6/1 93/6/1 92/6/1
f 99/6/1 93/6/1 98/6/1
f 102/6/1 101/6/1 100/6/1
f 103/6/1 101/6/1 102/6/1
f 104/6/2 105/6/2 106/6/2
f 106/6/2 105/6/2 107/6/2
f 108/6/2 109/6/2 110/6/2
f 110/6/2 109/6/2 111/6/2
f 112/6/2 113/6/2 114/6/2
f 114/6/2 113/6/2 115/6/2
f 116/6/2 117/6/2 120/6/2
f 120/6/2 117/6/2 121/6/2
f 118/6/2 119/6/2 122/6/2
f 122/6/2 119/6/2 123/6/2
f 124/6/2 125/6/2 126/6/2
f 126/6/2 125/6/2 127/6/2
f 128/6/2 129/6/2 130/6/2
f 130/6/2 129/6/2 131/6/2
f 132/6/2 133/6/2 134/6/2
f 134/6/2 133/6/2 135/6/2
f 136/6/2 137/6/2 140/6/2
f 140/6/2 137/6/2 141/6/2
f 138/6/2 139/6/2 142/6/2
f 142/6/2 139/6/2 143/6/2
f 144/6/2 145/6/2 146/6/2
f 146/6/2 145/6/2 147/6/2
f 148/6/2 149/6/2 150/6/2
f 150/6/2 149/6/2 151/6/2
f 152/8/2 153/8/2 154/8/2
f 154/8/2 153/8/2 155/8/2
f 154/3/2 155/3/2 156/3/2
f 156/3/2 155/3/2 157/3/2
f 156/4/2 157/4/2 158/4/2
f 158/4/2 157/4/2 159/4/2
f 158/1/2 159/1/2 160/1/2
f 160/1/2 159/1/2 161/1/2
f 160/2/2 161/2/2 162/2/2
f 162/2/2 161/2/2 163/2/2
f 162/6/2 163/6/2 164/6/2
f 164/6/2 163/6/2 165/6/2
f 172/2/3 171/2/3 170/2/3
f 174/8/3 167/8/3 166/8/3
f 175/3/3 168/3/3 167/3/3
f 175/8/3 167/8/3 174/8/3
f 176/4/3 169/4/3 168/4/3
f 176/3/3 168/3/3 175/3/3
f 177/1/3 170/1/3 169/1/3
f 177/4/3 169/4/3 176/4/3
f 178/2/3 172/2/3 170/2/3
f 178/1/3 170/1/3 177/1/3
f 179/6/3 173/6/3 172/6/3
f 179/2/3 172/2/3 178/2/3
f 180/6/3 173/6/3 179/6/3
f 183/6/3 182/6/3 181/6/3
f 184/6/3 182/6/3 183/6/3
f 187/6/3 186/6/3 185/6/3
f 188/6/3 186/6/3 187/6/3
f 191/6/3 190/6/3 189/6/3
f 192/6/3 190/6/3 191/6/3
f 195/6/3 194/6/3 193/6/3
f 196/6/3 194/6/3 195/6/3
f 199/6/3 198/6/3 197/6/3
f 200/6/3 198/6/3 199/6/3
f 203/6/3 202/6/3 201/6/3
f 204/6/3 202/6/3 203/6/3
f 207/6/3 206/6/3 205/6/3
f 208/6/3 206/6/3 207/6/3
f 211/6/3 210/6/3 209/6/3
f 212/6/3 210/6/3 211/6/3
f 215/6/3 214/6/3 213/6/3
f 216/6/3 214/6/3 215/6/3
f 219/6/3 218/6/3 217/6/3
f 220/6/3 218/6/3 219/6/3
f 223/6/3 222/6/3 221/6/3
f 224/6/3 222/6/3 223/6/3
f 227/6/3 226/6/3 225/6/3
f 228/6/3 226/6/3 227/6/3
f 231/6/3 230/6/3 229/6/3
f 232/6/3 230/6/3 231/6/3
f 235/6/3 234/6/3 233/6/3
f 236/6/3 234/6/3 235/6/3
f 239/6/3 238/6/3 237/6/3
f 240/6/3 238/6/3 239/6/3
f 243/6/3 242/6/3 241/6/3
f 244/6/3 242/6/3 243/6/3
f 247/6/3 246/6/3 245/6/3
f 248/6/3 246/6/3 247/6/3
f 251/6/3 250/6/3 249/6/3
f 252/6/3 250/6/3 251/6/3
f 253/6/3 250/6/3 252/6/3
f 256/6/3 255/6/3 254/6/3
f 257/6/3 255/6/3 256/6/3
f 260/6/3 259/6/3 258/6/3
f 261/6/3 259/6/3 260/6/3
f 264/6/3 263/6/3 262/6/3
f 265/6/3 263/6/3 264/6/3
f 266/6/4 267/6/4 268/6/4
f 268/6/4 267/6/4 269/6/4
f 270/6/4 271/6/4 272/6/4
f 272/6/4 271/6/4 273/6/4
f 274/6/4 275/6/4 276/6/4
f 276/6/4 275/6/4 277/6/4
f 278/6/4 279/6/4 280/6/4
f 280/6/4 279/6/4 281/6/4
f 282/6/4 283/6/4 284/6/4
f 284/6/4 283/6/4 285/6/4
f 286/6/4 287/6/4 288/6/4
f 288/6/4 287/6/4 289/6/4
f 290/6/4 291/6/4 292/6/4
f 292/6/4 291/6/4 293/6/4
f 294/6/4 295/6/4 296/6/4
f 296/6/4 295/6/4 297/6/4
f 298/6/4 299/6/4 300/6/4
f 300/6/4 299/6/4 301/6/4
f 302/6/4 303/6/4 304/6/4
f 304/6/4 303/6/4 305/6/4
f 306/6/4 307/6/4 308/6/4
f 308/6/4 307/6/4 309/6/4
f 310/6/4 311/6/4 312/6/4
f 312/6/4 311/6/4 313/6/4
f 314/6/4 315/6/4 316/6/4
f 316/6/4 315/6/4 317/6/4
f 318/8/4 319/8/4 325/8/4
f 319/3/4 320/3/4 326/3/4
f 325/8/4 319/8/4 326/8/4
f 320/4/4 321/4/4 327/4/4
f 326/3/4 320/3/4 327/3/4
f 321/1/4 322/1/4 328/1/4
f 327/4/4 321/4/4 328/4/4
f 322/2/4 323/2/4 329/2/4
f 328/1/4 322/1/4 329/1/4
f 323/6/4 324/6/4 330/6/4
f 329/2/4 323/2/4 330/2/4
f 330/6/4 324/6/4 331/6/4
f 334/8/5 333/8/5 332/8/5
f 335/8/5 333/8/5 334/8/5
f 336/2/6 337/2/6 338/2/6
f 338/2/6 337/2/6 339/2/6
f 339/2/6 337/2/6 340/2/6
f 340/2/6 337/2/6 341/2/6
f 336/2/6 338/2/6 342/2/6
f 344/2/6 345/2/6 346/2/6
f 346/2/6 345/2/6 347/2/6
f 342/2/6 343/2/6 348/2/6
f 344/2/6 346/2/6 349/2/6
f 349/2/6 346/2/6 350/2/6
f 350/2/6 346/2/6 351/2/6
f 348/2/6 349/2/6 352/2/6
f 349/2/6 350/2/6 352/2/6
f 352/2/6 350/2/6 353/2/6
f 348/2/6 352/2/6 356/2/6
f 354/2/6 355/2/6 357/2/6
f 357/2/6 355/2/6 358/2/6
f 358/2/6 355/2/6 359/2/6
f 356/2/6 357/2/6 360/2/6
f 357/2/6 358/2/6 360/2/6
f 360/2/6 358/2/6 361/2/6
f 348/2/6 356/2/6 362/2/6
f 336/2/6 342/2/6 362/2/6
f 356/2/6 360/2/6 362/2/6
f 342/2/6 348/2/6 362/2/6
f 362/2/6 360/2/6 363/2/6
f 363/2/6 360/2/6 364/2/6
f 364/2/6 360/2/6 365/2/6
f 336/2/6 362/2/6 366/2/6
f 366/2/6 362/2/6 367/2/6
f 363/2/6 364/2/6 368/2/6
f 365/2/6 360/2/6 370/2/6
f 370/2/6 360/2/6 371/2/6
f 367/2/6 362/2/6 373/2/6
f 373/2/6 362/2/6 374/2/6
f 374/2/6 362/2/6 375/2/6
f 368/2/6 369/2/6 376/2/6
f 363/2/6 368/2/6 376/2/6
f 376/2/6 369/2/6 377/2/6
f 373/2/6 374/2/6 378/2/6
f 372/2/6 373/2/6 378/2/6
f 336/2/6 366/2/6 380/2/6
f 380/2/6 366/2/6 381/2/6
f 378/2/6 379/2/6 382/2/6
f 382/2/6 379/2/6 383/2/6
f 371/2/6 360/2/6 384/2/6
f 378/2/6 382/2/6 387/2/6
f 372/2/6 378/2/6 387/2/6
f 387/2/6 382/2/6 388/2/6
f 388/2/6 382/2/6 389/2/6
f 389/2/6 382/2/6 390/2/6
f 384/2/6 385/2/6 392/2/6
f 371/2/6 384/2/6 392/2/6
f 392/2/6 385/2/6 393/2/6
f 386/2/6 387/2/6 395/2/6
f 387/2/6 388/2/6 395/2/6
f 395/2/6 388/2/6 396/2/6
f 396/2/6 388/2/6 397/2/6
f 388/5/6 389/5/6 398/5/6
f 397/2/6 388/2/6 398/2/6
f 390/2/6 391/2/6 399/2/6
f 398/5/6 389/5/6 399/5/6
f 389/2/6 390/2/6 399/2/6
f 399/2/6 391/2/6 400/2/6
f 395/2/6 396/2/6 401/2/6
f 394/2/6 395/2/6 401/2/6
f 401/2/6 396/2/6 402/2/6
f 397/2/6 398/2/6 403/2/6
f 403/2/6 398/2/6 404/2/6
f 404/2/6 398/2/6 405/2/6
f 405/2/6 406/2/6 407/2/6
f 404/2/6 405/2/6 407/2/6
f 407/2/6 406/2/6 408/2/6
f 411/6/6 412/6/6 413/6/6
f 409/6/6 410/6/6 414/6/6
f 414/6/6 410/6/6 415/6/6
f 415/6/6 410/6/6 416/6/6
f 416/6/6 410/6/6 417/6/6
f 417/6/6 410/6/6 418/6/6
f 411/6/6 413/6/6 419/6/6
f 413/6/6 414/6/6 419/6/6
f 414/6/6 415/6/6 419/6/6
f 419/6/6 415/6/6 420/6/6
f 420/6/6 415/6/6 421/6/6
f 421/6/6 415/6/6 422/6/6
f 416/6/6 417/6/6 423/6/6
f 417/7/6 418/7/6 424/7/6
f 423/6/6 417/6/6 424/6/6
f 422/6/6 415/6/6 426/6/6
f 415/7/6 416/7/6 427/7/6
f 426/6/6 415/6/6 427/6/6
f 416/6/6 423/6/6 428/6/6
f 427/7/6 416/7/6 428/7/6
f 420/6/6 421/6/6 429/6/6
f 429/6/6 421/6/6 430/6/6
f 426/6/6 427/6/6 432/6/6
f 425/6/6 426/6/6 432/6/6
f 427/6/6 428/6/6 432/6/6
f 423/7/6 424/7/6 433/7/6
f 428/6/6 423/6/6 433/6/6
f 432/6/6 428/6/6 433/6/6
f 424/7/6 418/7/6 434/7/6
f 433/7/6 424/7/6 434/7/6
f 418/6/6 410/6/6 435/6/6
f 435/6/6 410/6/6 436/6/6
f 431/6/6 432/6/6 438/6/6
f 432/6/6 433/6/6 438/6/6
f 433/6/6 434/6/6 438/6/6
f 438/6/6 434/6/6 439/6/6
f 439/6/6 434/6/6 440/6/6
f 434/7/6 418/7/6 441/7/6
f 440/6/6 434/6/6 441/6/6
f 418/6/6 435/6/6 442/6/6
f 441/7/6 418/7/6 442/7/6
f 437/6/6 438/6/6 443/6/6
f 438/6/6 439/6/6 443/6/6
f 443/6/6 439/6/6 444/6/6
f 440/6/6 441/6/6 446/6/6
f 441/6/6 442/6/6 446/6/6
f 442/6/6 435/6/6 447/6/6
f 446/6/6 442/6/6 447/6/6
f 435/7/6 436/7/6 448/7/6
f 447/6/6 435/6/6 448/6/6
f 448/7/6 436/7/6 449/7/6
f 436/6/6 410/6/6 450/6/6
f 449/7/6 436/7/6 450/7/6
f 445/6/6 446/6/6 451/6/6
f 448/7/6 449/7/6 451/7/6
f 446/6/6 447/6/6 451/6/6
f 447/7/6 448/7/6 451/7/6
f 449/6/6 450/6/6 452/6/6
f 451/7/6 449/7/6 452/7/6
f 445/6/6 451/6/6 454/6/6
f 451/6/6 452/6/6 454/6/6
f 457/6/6 458/6/6 461/6/6
f 461/6/6 458/6/6 462/6/6
f 462/6/6 458/6/6 463/6/6
f 459/6/6 460/6/6 465/6/6
f 465/6/6 460/6/6 466/6/6
f 455/6/6 456/6/6 468/6/6
f 468/6/6 456/6/6 469/6/6
f 463/6/6 464/6/6 470/6/6
f 462/6/6 463/6/6 470/6/6
f 469/6/6 470/6/6 471/6/6
f 468/6/6 469/6/6 471/6/6
f 467/6/6 468/6/6 471/6/6
f 471/6/6 470/6/6 472/6/6
f 454/6/6 452/6/6 473/6/6
f 453/6/6 454/6/6 473/6/6
f 473/6/6 452/6/6 474/6/6
f 459/6/6 465/6/6 476/6/6
f 472/6/6 470/6/6 478/6/6
f 478/6/6 470/6/6 479/6/6
f 470/6/6 464/6/6 480/6/6
f 479/6/6 470/6/6 480/6/6
f 453/6/6 473/6/6 481/6/6
f 481/6/6 473/6/6 482/6/6
f 475/6/6 476/6/6 483/6/6
f 476/6/6 465/6/6 483/6/6
f 483/6/6 465/6/6 484/6/6
f 478/6/6 479/6/6 485/6/6
f 477/6/6 478/6/6 485/6/6
f 485/6/6 479/6/6 486/6/6
f 480/6/6 464/6/6 487/6/6
f 482/6/6 473/6/6 488/6/6
f 475/6/6 483/6/6 489/6/6
f 489/6/6 483/6/6 490/6/6
f 486/6/6 479/6/6 494/6/6
f 494/6/6 479/6/6 495/6/6
f 479/7/6 480/7/6 496/7/6
f 495/6/6 479/6/6 496/6/6
f 480/6/6 487/6/6 497/6/6
f 496/7/6 480/7/6 497/7/6
f 487/6/6 488/6/6 497/6/6
f 475/6/6 489/6/6 498/6/6
f 491/6/6 492/6/6 499/6/6
f 493/6/6 494/6/6 500/6/6
f 494/6/6 495/6/6 500/6/6
f 495/7/6 496/7/6 501/7/6
f 500/6/6 495/6/6 501/6/6
f 496/6/6 497/6/6 502/6/6
f 501/7/6 496/7/6 502/7/6
f 497/6/6 488/6/6 503/6/6
f 502/6/6 497/6/6 503/6/6
f 488/6/6 473/6/6 504/6/6
f 503/6/6 488/6/6 504/6/6
f 473/7/6 474/7/6 505/7/6
f 504/6/6 473/6/6 505/6/6
f 498/6/6 499/6/6 506/6/6
f 499/6/6 492/6/6 506/6/6
f 493/6/6 500/6/6 508/6/6
f 508/6/6 500/6/6 509/6/6
f 509/6/6 500/6/6 510/6/6
f 502/7/6 503/7/6 511/7/6
f 510/6/6 500/6/6 511/6/6
f 501/7/6 502/7/6 511/7/6
f 500/7/6 501/7/6 511/7/6
f 511/7/6 503/7/6 512/7/6
f 512/7/6 503/7/6 513/7/6
f 505/7/6 474/7/6 514/7/6
f 504/7/6 505/7/6 514/7/6
f 474/6/6 452/6/6 515/6/6
f 514/7/6 474/7/6 515/7/6
f 506/6/6 507/6/6 516/6/6
f 509/6/6 510/6/6 517/6/6
f 510/7/6 511/7/6 518/7/6
f 511/7/6 512/7/6 518/7/6
f 517/6/6 510/6/6 518/6/6
f 512/6/6 513/6/6 519/6/6
f 518/7/6 512/7/6 519/7/6
f 519/6/6 513/6/6 520/6/6
f 513/7/6 503/7/6 521/7/6
f 520/6/6 513/6/6 521/6/6
f 503/6/6 504/6/6 522/6/6
f 521/7/6 503/7/6 522/7/6
f 504/7/6 514/7/6 523/7/6
f 514/6/6 515/6/6 524/6/6
f 523/7/6 514/7/6 524/7/6
f 519/6/6 520/6/6 525/6/6
f 520/7/6 521/7/6 525/7/6
f 517/6/6 518/6/6 525/6/6
f 516/6/6 517/6/6 525/6/6
f 518/6/6 519/6/6 525/6/6
f 521/6/6 522/6/6 526/6/6
f 525/7/6 521/7/6 526/7/6
f 522/6/6 504/6/6 527/6/6
f 526/6/6 522/6/6 527/6/6
f 504/7/6 523/7/6 527/7/6
f 523/6/6 524/6/6 528/6/6
f 527/7/6 523/7/6 528/7/6
f 525/6/6 526/6/6 529/6/6
f 526/6/6 527/6/6 529/6/6
f 527/6/6 528/6/6 529/6/6
f 506/6/6 516/6/6 529/6/6
f 516/6/6 525/6/6 529/6/6
f 529/6/6 528/6/6 530/6/6
f 529/7/6 530/7/6 531/7/6
f 530/6/6 528/6/6 531/6/6
f 531/6/6 528/6/6 532/6/6
f 531/7/6 532/7/6 533/7/6
f 532/6/6 528/6/6 534/6/6
f 533/7/6 532/7/6 534/7/6
f 531/7/6 533/7/6 535/7/6
f 533/6/6 534/6/6 536/6/6
f 535/7/6 533/7/6 536/7/6
f 506/6/6 529/6/6 537/6/6
f 529/7/6 531/7/6 537/7/6
f 531/7/6 535/7/6 537/7/6
f 535/6/6 536/6/6 538/6/6
f 537/7/6 535/7/6 538/7/6
f 528/6/6 524/6/6 539/6/6
f 538/6/6 536/6/6 539/6/6
f 524/6/6 515/6/6 539/6/6
f 534/6/6 528/6/6 539/6/6
f 536/6/6 534/6/6 539/6/6
f 515/6/6 452/6/6 540/6/6
f 539/6/6 515/6/6 540/6/6
f 539/7/6 540/7/6 541/7/6
f 540/6/6 452/6/6 542/6/6
f 541/7/6 540/7/6 542/7/6
f 452/6/6 450/6/6 543/6/6
f 542/6/6 452/6/6 543/6/6
f 541/6/6 542/6/6 544/6/6
f 539/7/6 541/7/6 544/7/6
f 542/7/6 543/7/6 545/7/6
f 544/6/6 542/6/6 545/6/6
f 543/6/6 450/6/6 546/6/6
f 545/7/6 543/7/6 546/7/6
f 544/7/6 545/7/6 547/7/6
f 538/6/6 539/6/6 547/6/6
f 537/6/6 538/6/6 547/6/6
f 539/7/6 544/7/6 547/7/6
f 545/6/6 546/6/6 548/6/6
f 547/7/6 545/7/6 548/7/6
f 537/6/6 547/6/6 549/6/6
f 506/6/6 537/6/6 549/6/6
f 547/6/6 548/6/6 549/6/6
f 549/6/6 548/6/6 550/6/6
f 498/6/6 506/6/6 551/6/6
f 506/6/6 549/6/6 551/6/6
f 549/7/6 550/7/6 552/7/6
f 551/6/6 549/6/6 552/6/6
f 552/7/6 550/7/6 553/7/6
f 551/7/6 552/7/6 554/7/6
f 552/6/6 553/6/6 554/6/6
f 553/7/6 550/7/6 555/7/6
f 554/6/6 553/6/6 555/6/6
f 498/6/6 551/6/6 556/6/6
f 551/7/6 554/7/6 556/7/6
f 554/7/6 555/7/6 556/7/6
f 556/7/6 555/7/6 557/7/6
f 555/7/6 550/7/6 558/7/6
f 557/7/6 555/7/6 558/7/6
f 550/6/6 548/6/6 559/6/6
f 558/7/6 550/7/6 559/7/6
f 559/6/6 548/6/6 560/6/6
f 548/6/6 546/6/6 561/6/6
f 560/6/6 548/6/6 561/6/6
f 557/7/6 558/7/6 562/7/6
f 559/6/6 560/6/6 563/6/6
f 562/7/6 558/7/6 563/7/6
f 558/6/6 559/6/6 563/6/6
f 561/6/6 546/6/6 564/6/6
f 560/7/6 561/7/6 564/7/6
f 546/6/6 450/6/6 565/6/6
f 564/6/6 546/6/6 565/6/6
f 557/7/6 562/7/6 566/7/6
f 556/6/6 557/6/6 566/6/6
f 562/6/6 563/6/6 567/6/6
f 566/7/6 562/7/6 567/7/6
f 560/7/6 564/7/6 568/7/6
f 567/6/6 563/6/6 568/6/6
f 563/6/6 560/6/6 568/6/6
f 564/7/6 565/7/6 568/7/6
f 568/7/6 565/7/6 569/7/6
f 565/6/6 450/6/6 570/6/6
f 569/7/6 565/7/6 570/7/6
f 450/6/6 410/6/6 571/6/6
f 570/6/6 450/6/6 571/6/6
f 566/6/6 567/6/6 572/6/6
f 568/6/6 569/6/6 572/6/6
f 567/6/6 568/6/6 572/6/6
f 572/6/6 569/6/6 573/6/6
f 573/6/6 569/6/6 574/6/6
f 569/7/6 570/7/6 575/7/6
f 574/6/6 569/6/6 575/6/6
f 570/7/6 571/7/6 575/7/6
f 575/7/6 571/7/6 576/7/6
f 571/6/6 410/6/6 577/6/6
f 576/7/6 571/7/6 577/7/6
f 572/7/6 573/7/6 578/7/6
f 566/6/6 572/6/6 578/6/6
f 573/6/6 574/6/6 579/6/6
f 578/7/6 573/7/6 579/7/6
f 566/6/6 578/6/6 580/6/6
f 578/6/6 579/6/6 580/6/6
f 580/6/6 579/6/6 581/6/6
f 579/6/6 574/6/6 582/6/6
f 581/6/6 579/6/6 582/6/6
f 575/7/6 576/7/6 582/7/6
f 574/7/6 575/7/6 582/7/6
f 576/6/6 577/6/6 583/6/6
f 582/7/6 576/7/6 583/7/6
f 580/7/6 581/7/6 584/7/6
f 566/6/6 580/6/6 584/6/6
f 582/6/6 583/6/6 585/6/6
f 584/7/6 581/7/6 585/7/6
f 581/6/6 582/6/6 585/6/6
f 566/6/6 584/6/6 586/6/6
f 556/6/6 566/6/6 586/6/6
f 584/6/6 585/6/6 586/6/6
f 498/6/6 556/6/6 586/6/6
f 475/6/6 498/6/6 586/6/6
f 583/6/6 577/6/6 587/6/6
f 586/6/6 585/6/6 587/6/6
f 585/6/6 583/6/6 587/6/6
f 577/6/6 410/6/6 587/6/6
