# MagicaVoxel @ ephtracy

# material
mtllib NewSandBorderCorner.mtl
usemtl palette

# normals
vn -1 0 0
vn 1 0 0
vn 0 0 1
vn 0 0 -1
vn 0 -1 0
vn 0 1 0

# texcoords
vt 0.154297 0.5
vt 0.181641 0.5
vt 0.208984 0.5
vt 0.490234 0.5
vt 0.533203 0.5
vt 0.537109 0.5
vt 0.654297 0.5
vt 0.982422 0.5

# verts
v -22.5 0 22.5
v -22.5 0 -22.5
v -22.5 3 22.5
v -22.5 3 -22.5
v -22.5 5 22.5
v -22.5 5 -22.5
v -22.5 7 22.5
v -22.5 7 -22.5
v -22.5 8 22.5
v -22.5 8 8.5
v -22.5 8 -22.5
v -22.5 9 8.5
v -22.5 9 -22.5
v -20.5 8 9.5
v -20.5 8 8.5
v -20.5 9 9.5
v -20.5 9 8.5
v -16.5 8 7.5
v -16.5 8 3.5
v -16.5 9 7.5
v -16.5 9 3.5
v -15.5 8 9.5
v -15.5 8 8.5
v -15.5 8 7.5
v -15.5 9 9.5
v -15.5 9 7.5
v -13.5 8 7.5
v -13.5 8 5.5
v -13.5 9 7.5
v -13.5 9 5.5
v -12.5 8 8.5
v -12.5 8 7.5
v -12.5 9 8.5
v -12.5 9 7.5
v -10.5 8 9.5
v -10.5 8 8.5
v -10.5 9 9.5
v -10.5 9 8.5
v -9.5 8 8.5
v -9.5 8 7.5
v -9.5 9 8.5
v -9.5 9 7.5
v -8.5 8 22.5
v -8.5 8 21.5
v -8.5 9 22.5
v -8.5 9 21.5
v -7.5 8 21.5
v -7.5 8 20.5
v -7.5 8 10.5
v -7.5 8 8.5
v -7.5 9 21.5
v -7.5 9 20.5
v -7.5 9 10.5
v -7.5 9 8.5
v -6.5 8 16.5
v -6.5 8 15.5
v -6.5 8 14.5
v -6.5 8 13.5
v -6.5 8 12.5
v -6.5 9 16.5
v -6.5 9 15.5
v -6.5 9 14.5
v -6.5 9 12.5
v -5.5 8 20.5
v -5.5 8 19.5
v -5.5 8 17.5
v -5.5 8 16.5
v -5.5 8 12.5
v -5.5 8 11.5
v -5.5 8 10.5
v -5.5 9 20.5
v -5.5 9 19.5
v -5.5 9 17.5
v -5.5 9 16.5
v -5.5 9 12.5
v -5.5 9 10.5
v -4.5 8 18.5
v -4.5 8 17.5
v -4.5 8 15.5
v -4.5 8 13.5
v -4.5 9 18.5
v -4.5 9 17.5
v -4.5 9 15.5
v -4.5 9 13.5
v -3.5 8 19.5
v -3.5 8 18.5
v -3.5 9 19.5
v -3.5 9 18.5
v -19.5 8 9.5
v -19.5 8 6.5
v -19.5 9 9.5
v -19.5 9 6.5
v -18.5 8 6.5
v -18.5 8 5.5
v -18.5 9 6.5
v -18.5 9 5.5
v -17.5 8 5.5
v -17.5 8 3.5
v -17.5 9 5.5
v -17.5 9 3.5
v -14.5 8 9.5
v -14.5 8 5.5
v -14.5 9 9.5
v -14.5 9 5.5
v -11.5 8 8.5
v -11.5 8 7.5
v -11.5 9 8.5
v -11.5 9 7.5
v -9.5 8 9.5
v -9.5 8 8.5
v -9.5 9 9.5
v -9.5 9 8.5
v -5.5 8 14.5
v -5.5 8 13.5
v -5.5 9 14.5
v -5.5 9 13.5
v 22.5 0 22.5
v 22.5 0 -22.5
v 22.5 3 22.5
v 22.5 3 -22.5
v 22.5 5 22.5
v 22.5 5 -22.5
v 22.5 7 22.5
v 22.5 7 -22.5
v 22.5 8 22.5
v 22.5 8 -22.5
v 22.5 9 22.5
v 22.5 9 -22.5
v -22.5 0 22.5
v -22.5 3 22.5
v -22.5 5 22.5
v -22.5 7 22.5
v -22.5 8 22.5
v -8.5 8 22.5
v -8.5 9 22.5
v 22.5 0 22.5
v 22.5 3 22.5
v 22.5 5 22.5
v 22.5 7 22.5
v 22.5 8 22.5
v 22.5 9 22.5
v -4.5 8 18.5
v -4.5 9 18.5
v -3.5 8 18.5
v -3.5 9 18.5
v -5.5 8 17.5
v -5.5 9 17.5
v -4.5 8 17.5
v -4.5 9 17.5
v -6.5 8 16.5
v -6.5 9 16.5
v -5.5 8 16.5
v -5.5 9 16.5
v -6.5 8 14.5
v -6.5 9 14.5
v -5.5 8 14.5
v -5.5 9 14.5
v -5.5 8 13.5
v -5.5 9 13.5
v -4.5 8 13.5
v -4.5 9 13.5
v -7.5 8 10.5
v -7.5 9 10.5
v -6.5 8 10.5
v -5.5 8 10.5
v -5.5 9 10.5
v -20.5 8 9.5
v -20.5 9 9.5
v -19.5 8 9.5
v -19.5 9 9.5
v -15.5 8 9.5
v -15.5 9 9.5
v -14.5 8 9.5
v -14.5 9 9.5
v -10.5 8 9.5
v -10.5 9 9.5
v -9.5 8 9.5
v -9.5 9 9.5
v -22.5 8 8.5
v -22.5 9 8.5
v -21.5 8 8.5
v -20.5 8 8.5
v -20.5 9 8.5
v -12.5 8 8.5
v -12.5 9 8.5
v -11.5 8 8.5
v -11.5 9 8.5
v -9.5 8 8.5
v -9.5 9 8.5
v -7.5 8 8.5
v -7.5 9 8.5
v -16.5 8 7.5
v -16.5 9 7.5
v -15.5 8 7.5
v -15.5 9 7.5
v -13.5 8 7.5
v -13.5 9 7.5
v -12.5 8 7.5
v -12.5 9 7.5
v -11.5 8 7.5
v -11.5 9 7.5
v -10.5 8 7.5
v -9.5 8 7.5
v -9.5 9 7.5
v -19.5 8 6.5
v -19.5 9 6.5
v -18.5 8 6.5
v -18.5 9 6.5
v -18.5 8 5.5
v -18.5 9 5.5
v -17.5 8 5.5
v -17.5 9 5.5
v -14.5 8 5.5
v -14.5 9 5.5
v -13.5 8 5.5
v -13.5 9 5.5
v -17.5 8 3.5
v -17.5 9 3.5
v -16.5 8 3.5
v -16.5 9 3.5
v -8.5 8 21.5
v -8.5 9 21.5
v -7.5 8 21.5
v -7.5 9 21.5
v -7.5 8 20.5
v -7.5 9 20.5
v -5.5 8 20.5
v -5.5 9 20.5
v -5.5 8 19.5
v -5.5 9 19.5
v -3.5 8 19.5
v -3.5 9 19.5
v -6.5 8 15.5
v -6.5 9 15.5
v -4.5 8 15.5
v -4.5 9 15.5
v -6.5 8 12.5
v -6.5 9 12.5
v -5.5 8 12.5
v -5.5 9 12.5
v -10.5 8 8.5
v -10.5 9 8.5
v -9.5 8 8.5
v -9.5 9 8.5
v -22.5 0 -22.5
v -22.5 3 -22.5
v -22.5 5 -22.5
v -22.5 7 -22.5
v -22.5 8 -22.5
v -22.5 9 -22.5
v 22.5 0 -22.5
v 22.5 3 -22.5
v 22.5 5 -22.5
v 22.5 7 -22.5
v 22.5 8 -22.5
v 22.5 9 -22.5
v -22.5 0 22.5
v 22.5 0 22.5
v -22.5 0 -22.5
v 22.5 0 -22.5
v -22.5 8 22.5
v -8.5 8 22.5
v -21.5 8 21.5
v -19.5 8 21.5
v -16.5 8 21.5
v -14.5 8 21.5
v -13.5 8 21.5
v -12.5 8 21.5
v -8.5 8 21.5
v -7.5 8 21.5
v -20.5 8 20.5
v -19.5 8 20.5
v -18.5 8 20.5
v -16.5 8 20.5
v -15.5 8 20.5
v -14.5 8 20.5
v -13.5 8 20.5
v -12.5 8 20.5
v -10.5 8 20.5
v -9.5 8 20.5
v -7.5 8 20.5
v -5.5 8 20.5
v -21.5 8 19.5
v -20.5 8 19.5
v -18.5 8 19.5
v -15.5 8 19.5
v -14.5 8 19.5
v -13.5 8 19.5
v -11.5 8 19.5
v -10.5 8 19.5
v -9.5 8 19.5
v -5.5 8 19.5
v -3.5 8 19.5
v -17.5 8 18.5
v -15.5 8 18.5
v -13.5 8 18.5
v -11.5 8 18.5
v -10.5 8 18.5
v -9.5 8 18.5
v -8.5 8 18.5
v -7.5 8 18.5
v -4.5 8 18.5
v -3.5 8 18.5
v -21.5 8 17.5
v -20.5 8 17.5
v -15.5 8 17.5
v -14.5 8 17.5
v -12.5 8 17.5
v -11.5 8 17.5
v -9.5 8 17.5
v -8.5 8 17.5
v -7.5 8 17.5
v -6.5 8 17.5
v -5.5 8 17.5
v -4.5 8 17.5
v -21.5 8 16.5
v -20.5 8 16.5
v -19.5 8 16.5
v -17.5 8 16.5
v -16.5 8 16.5
v -14.5 8 16.5
v -13.5 8 16.5
v -12.5 8 16.5
v -11.5 8 16.5
v -10.5 8 16.5
v -8.5 8 16.5
v -6.5 8 16.5
v -5.5 8 16.5
v -21.5 8 15.5
v -20.5 8 15.5
v -18.5 8 15.5
v -16.5 8 15.5
v -15.5 8 15.5
v -13.5 8 15.5
v -11.5 8 15.5
v -10.5 8 15.5
v -9.5 8 15.5
v -8.5 8 15.5
v -7.5 8 15.5
v -6.5 8 15.5
v -4.5 8 15.5
v -19.5 8 14.5
v -18.5 8 14.5
v -12.5 8 14.5
v -11.5 8 14.5
v -8.5 8 14.5
v -7.5 8 14.5
v -6.5 8 14.5
v -5.5 8 14.5
v -21.5 8 13.5
v -20.5 8 13.5
v -19.5 8 13.5
v -18.5 8 13.5
v -17.5 8 13.5
v -16.5 8 13.5
v -13.5 8 13.5
v -12.5 8 13.5
v -11.5 8 13.5
v -8.5 8 13.5
v -6.5 8 13.5
v -5.5 8 13.5
v -4.5 8 13.5
v -18.5 8 12.5
v -17.5 8 12.5
v -16.5 8 12.5
v -14.5 8 12.5
v -13.5 8 12.5
v -11.5 8 12.5
v -10.5 8 12.5
v -9.5 8 12.5
v -8.5 8 12.5
v -7.5 8 12.5
v -6.5 8 12.5
v -5.5 8 12.5
v -21.5 8 11.5
v -19.5 8 11.5
v -16.5 8 11.5
v -15.5 8 11.5
v -11.5 8 11.5
v -10.5 8 11.5
v -9.5 8 11.5
v -8.5 8 11.5
v -7.5 8 11.5
v -6.5 8 11.5
v -5.5 8 11.5
v -20.5 8 10.5
v -19.5 8 10.5
v -18.5 8 10.5
v -17.5 8 10.5
v -15.5 8 10.5
v -14.5 8 10.5
v -7.5 8 10.5
v -6.5 8 10.5
v -5.5 8 10.5
v -20.5 8 9.5
v -19.5 8 9.5
v -18.5 8 9.5
v -16.5 8 9.5
v -15.5 8 9.5
v -14.5 8 9.5
v -11.5 8 9.5
v -10.5 8 9.5
v -9.5 8 9.5
v -22.5 8 8.5
v -21.5 8 8.5
v -20.5 8 8.5
v -17.5 8 8.5
v -15.5 8 8.5
v -12.5 8 8.5
v -11.5 8 8.5
v -10.5 8 8.5
v -9.5 8 8.5
v -7.5 8 8.5
v -18.5 8 7.5
v -17.5 8 7.5
v -16.5 8 7.5
v -15.5 8 7.5
v -13.5 8 7.5
v -12.5 8 7.5
v -11.5 8 7.5
v -10.5 8 7.5
v -9.5 8 7.5
v -19.5 8 6.5
v -18.5 8 6.5
v -17.5 8 6.5
v -18.5 8 5.5
v -17.5 8 5.5
v -14.5 8 5.5
v -13.5 8 5.5
v -17.5 8 3.5
v -16.5 8 3.5
v -8.5 9 22.5
v 22.5 9 22.5
v -8.5 9 21.5
v -7.5 9 21.5
v -7.5 9 20.5
v -5.5 9 20.5
v -5.5 9 19.5
v -3.5 9 19.5
v -4.5 9 18.5
v -3.5 9 18.5
v -5.5 9 17.5
v -4.5 9 17.5
v -6.5 9 16.5
v -5.5 9 16.5
v -6.5 9 15.5
v -4.5 9 15.5
v -6.5 9 14.5
v -5.5 9 14.5
v -5.5 9 13.5
v -4.5 9 13.5
v 6.5 9 13.5
v 8.5 9 13.5
v -6.5 9 12.5
v -5.5 9 12.5
v 5.5 9 12.5
v 6.5 9 12.5
v 4.5 9 11.5
v 5.5 9 11.5
v 7.5 9 11.5
v 8.5 9 11.5
v -7.5 9 10.5
v -5.5 9 10.5
v 6.5 9 10.5
v 7.5 9 10.5
v -20.5 9 9.5
v -19.5 9 9.5
v -15.5 9 9.5
v -14.5 9 9.5
v -10.5 9 9.5
v -9.5 9 9.5
v 4.5 9 9.5
v 6.5 9 9.5
v -22.5 9 8.5
v -20.5 9 8.5
v -12.5 9 8.5
v -11.5 9 8.5
v -10.5 9 8.5
v -9.5 9 8.5
v -7.5 9 8.5
v -16.5 9 7.5
v -15.5 9 7.5
v -13.5 9 7.5
v -12.5 9 7.5
v -11.5 9 7.5
v -9.5 9 7.5
v -19.5 9 6.5
v -18.5 9 6.5
v -18.5 9 5.5
v -17.5 9 5.5
v -14.5 9 5.5
v -13.5 9 5.5
v -17.5 9 3.5
v -16.5 9 3.5
v 4.5 9 3.5
v 7.5 9 3.5
v 7.5 9 2.5
v 8.5 9 2.5
v 4.5 9 1.5
v 5.5 9 1.5
v 8.5 9 1.5
v 9.5 9 1.5
v 5.5 9 0.5
v 6.5 9 0.5
v 6.5 9 -0.5
v 8.5 9 -0.5
v 8.5 9 -1.5
v 9.5 9 -1.5
v -10.5 9 -2.5
v -7.5 9 -2.5
v -12.5 9 -3.5
v -10.5 9 -3.5
v -9.5 9 -4.5
v -7.5 9 -4.5
v -11.5 9 -5.5
v -9.5 9 -5.5
v -12.5 9 -6.5
v -11.5 9 -6.5
v 12.5 9 -9.5
v 15.5 9 -9.5
v 14.5 9 -10.5
v 15.5 9 -10.5
v -5.5 9 -12.5
v -3.5 9 -12.5
v 14.5 9 -12.5
v 15.5 9 -12.5
v -6.5 9 -13.5
v -5.5 9 -13.5
v -3.5 9 -13.5
v -2.5 9 -13.5
v 11.5 9 -13.5
v 12.5 9 -13.5
v -7.5 9 -14.5
v -6.5 9 -14.5
v -2.5 9 -14.5
v -0.5 9 -14.5
v -7.5 9 -15.5
v -5.5 9 -15.5
v -4.5 9 -15.5
v -3.5 9 -15.5
v 11.5 9 -15.5
v 15.5 9 -15.5
v -5.5 9 -16.5
v -4.5 9 -16.5
v -3.5 9 -16.5
v -2.5 9 -16.5
v -2.5 9 -17.5
v -0.5 9 -17.5
v -22.5 9 -22.5
v 22.5 9 -22.5

# faces
f 3/8/1 2/8/1 1/8/1
f 4/8/1 2/8/1 3/8/1
f 5/5/1 4/5/1 3/5/1
f 6/5/1 4/5/1 5/5/1
f 7/6/1 6/6/1 5/6/1
f 8/6/1 6/6/1 7/6/1
f 9/2/1 8/2/1 7/2/1
f 10/2/1 8/2/1 9/2/1
f 11/2/1 8/2/1 10/2/1
f 12/4/1 11/4/1 10/4/1
f 13/4/1 11/4/1 12/4/1
f 16/4/1 15/4/1 14/4/1
f 17/4/1 15/4/1 16/4/1
f 20/4/1 19/4/1 18/4/1
f 21/4/1 19/4/1 20/4/1
f 25/4/1 23/4/1 22/4/1
f 25/4/1 24/4/1 23/4/1
f 26/4/1 24/4/1 25/4/1
f 29/4/1 28/4/1 27/4/1
f 30/4/1 28/4/1 29/4/1
f 33/4/1 32/4/1 31/4/1
f 34/4/1 32/4/1 33/4/1
f 37/4/1 36/4/1 35/4/1
f 38/4/1 36/4/1 37/4/1
f 41/4/1 40/4/1 39/4/1
f 42/4/1 40/4/1 41/4/1
f 45/4/1 44/4/1 43/4/1
f 46/4/1 44/4/1 45/4/1
f 51/4/1 48/4/1 47/4/1
f 52/4/1 48/4/1 51/4/1
f 53/4/1 50/4/1 49/4/1
f 54/4/1 50/4/1 53/4/1
f 60/4/1 56/4/1 55/4/1
f 61/4/1 56/4/1 60/4/1
f 62/4/1 59/4/1 58/4/1
f 62/4/1 58/4/1 57/4/1
f 63/4/1 59/4/1 62/4/1
f 71/4/1 65/4/1 64/4/1
f 72/4/1 65/4/1 71/4/1
f 73/4/1 67/4/1 66/4/1
f 74/4/1 67/4/1 73/4/1
f 75/4/1 70/4/1 69/4/1
f 75/4/1 69/4/1 68/4/1
f 76/4/1 70/4/1 75/4/1
f 81/4/1 78/4/1 77/4/1
f 82/4/1 78/4/1 81/4/1
f 83/4/1 80/4/1 79/4/1
f 84/4/1 80/4/1 83/4/1
f 87/4/1 86/4/1 85/4/1
f 88/4/1 86/4/1 87/4/1
f 89/4/2 90/4/2 91/4/2
f 91/4/2 90/4/2 92/4/2
f 93/4/2 94/4/2 95/4/2
f 95/4/2 94/4/2 96/4/2
f 97/4/2 98/4/2 99/4/2
f 99/4/2 98/4/2 100/4/2
f 101/4/2 102/4/2 103/4/2
f 103/4/2 102/4/2 104/4/2
f 105/4/2 106/4/2 107/4/2
f 107/4/2 106/4/2 108/4/2
f 109/4/2 110/4/2 111/4/2
f 111/4/2 110/4/2 112/4/2
f 113/4/2 114/4/2 115/4/2
f 115/4/2 114/4/2 116/4/2
f 117/8/2 118/8/2 119/8/2
f 119/8/2 118/8/2 120/8/2
f 119/5/2 120/5/2 121/5/2
f 121/5/2 120/5/2 122/5/2
f 121/6/2 122/6/2 123/6/2
f 123/6/2 122/6/2 124/6/2
f 123/2/2 124/2/2 125/2/2
f 125/2/2 124/2/2 126/2/2
f 125/4/2 126/4/2 127/4/2
f 127/4/2 126/4/2 128/4/2
f 134/2/3 133/2/3 132/2/3
f 136/8/3 130/8/3 129/8/3
f 137/5/3 131/5/3 130/5/3
f 137/8/3 130/8/3 136/8/3
f 138/6/3 132/6/3 131/6/3
f 138/5/3 131/5/3 137/5/3
f 139/2/3 134/2/3 132/2/3
f 139/6/3 132/6/3 138/6/3
f 140/4/3 135/4/3 134/4/3
f 140/2/3 134/2/3 139/2/3
f 141/4/3 135/4/3 140/4/3
f 144/4/3 143/4/3 142/4/3
f 145/4/3 143/4/3 144/4/3
f 148/4/3 147/4/3 146/4/3
f 149/4/3 147/4/3 148/4/3
f 152/4/3 151/4/3 150/4/3
f 153/4/3 151/4/3 152/4/3
f 156/4/3 155/4/3 154/4/3
f 157/4/3 155/4/3 156/4/3
f 160/4/3 159/4/3 158/4/3
f 161/4/3 159/4/3 160/4/3
f 164/4/3 163/4/3 162/4/3
f 165/4/3 163/4/3 164/4/3
f 166/4/3 163/4/3 165/4/3
f 169/4/3 168/4/3 167/4/3
f 170/4/3 168/4/3 169/4/3
f 173/4/3 172/4/3 171/4/3
f 174/4/3 172/4/3 173/4/3
f 177/4/3 176/4/3 175/4/3
f 178/4/3 176/4/3 177/4/3
f 181/4/3 180/4/3 179/4/3
f 182/4/3 180/4/3 181/4/3
f 183/4/3 180/4/3 182/4/3
f 186/4/3 185/4/3 184/4/3
f 187/4/3 185/4/3 186/4/3
f 190/4/3 189/4/3 188/4/3
f 191/4/3 189/4/3 190/4/3
f 194/4/3 193/4/3 192/4/3
f 195/4/3 193/4/3 194/4/3
f 198/4/3 197/4/3 196/4/3
f 199/4/3 197/4/3 198/4/3
f 202/4/3 201/4/3 200/4/3
f 203/4/3 201/4/3 202/4/3
f 204/4/3 201/4/3 203/4/3
f 207/4/3 206/4/3 205/4/3
f 208/4/3 206/4/3 207/4/3
f 211/4/3 210/4/3 209/4/3
f 212/4/3 210/4/3 211/4/3
f 215/4/3 214/4/3 213/4/3
f 216/4/3 214/4/3 215/4/3
f 219/4/3 218/4/3 217/4/3
f 220/4/3 218/4/3 219/4/3
f 221/4/4 222/4/4 223/4/4
f 223/4/4 222/4/4 224/4/4
f 225/4/4 226/4/4 227/4/4
f 227/4/4 226/4/4 228/4/4
f 229/4/4 230/4/4 231/4/4
f 231/4/4 230/4/4 232/4/4
f 233/4/4 234/4/4 235/4/4
f 235/4/4 234/4/4 236/4/4
f 237/4/4 238/4/4 239/4/4
f 239/4/4 238/4/4 240/4/4
f 241/4/4 242/4/4 243/4/4
f 243/4/4 242/4/4 244/4/4
f 245/8/4 246/8/4 251/8/4
f 246/5/4 247/5/4 252/5/4
f 251/8/4 246/8/4 252/8/4
f 247/6/4 248/6/4 253/6/4
f 252/5/4 247/5/4 253/5/4
f 248/2/4 249/2/4 254/2/4
f 253/6/4 248/6/4 254/6/4
f 249/4/4 250/4/4 255/4/4
f 254/2/4 249/2/4 255/2/4
f 255/4/4 250/4/4 256/4/4
f 259/8/5 258/8/5 257/8/5
f 260/8/5 258/8/5 259/8/5
f 261/2/6 262/2/6 263/2/6
f 263/2/6 262/2/6 264/2/6
f 264/2/6 262/2/6 265/2/6
f 265/2/6 262/2/6 266/2/6
f 266/2/6 262/2/6 267/2/6
f 267/2/6 262/2/6 268/2/6
f 268/2/6 262/2/6 269/2/6
f 263/3/6 264/3/6 271/3/6
f 264/2/6 265/2/6 272/2/6
f 271/3/6 264/3/6 272/3/6
f 272/2/6 265/2/6 273/2/6
f 265/3/6 266/3/6 274/3/6
f 273/2/6 265/2/6 274/2/6
f 274/3/6 266/3/6 275/3/6
f 266/2/6 267/2/6 276/2/6
f 275/3/6 266/3/6 276/3/6
f 267/1/6 268/1/6 277/1/6
f 276/2/6 267/2/6 277/2/6
f 269/2/6 270/2/6 278/2/6
f 277/1/6 268/1/6 278/1/6
f 268/2/6 269/2/6 278/2/6
f 278/2/6 270/2/6 279/2/6
f 279/2/6 270/2/6 280/2/6
f 280/2/6 270/2/6 281/2/6
f 261/2/6 263/2/6 283/2/6
f 263/3/6 271/3/6 283/3/6
f 271/1/6 272/1/6 284/1/6
f 283/3/6 271/3/6 284/3/6
f 272/2/6 273/2/6 285/2/6
f 274/3/6 275/3/6 285/3/6
f 273/3/6 274/3/6 285/3/6
f 275/1/6 276/1/6 286/1/6
f 285/3/6 275/3/6 286/3/6
f 276/2/6 277/2/6 287/2/6
f 286/1/6 276/1/6 287/1/6
f 277/2/6 278/2/6 287/2/6
f 278/2/6 279/2/6 287/2/6
f 287/2/6 279/2/6 288/2/6
f 288/2/6 279/2/6 289/2/6
f 279/1/6 280/1/6 290/1/6
f 289/2/6 279/2/6 290/2/6
f 281/2/6 282/2/6 291/2/6
f 290/1/6 280/1/6 291/1/6
f 280/2/6 281/2/6 291/2/6
f 291/2/6 282/2/6 292/2/6
f 285/2/6 286/2/6 294/2/6
f 287/1/6 288/1/6 295/1/6
f 294/2/6 286/2/6 295/2/6
f 286/1/6 287/1/6 295/1/6
f 288/2/6 289/2/6 296/2/6
f 295/1/6 288/1/6 296/1/6
f 289/3/6 290/3/6 297/3/6
f 296/2/6 289/2/6 297/2/6
f 290/3/6 291/3/6 297/3/6
f 297/3/6 291/3/6 298/3/6
f 292/2/6 293/2/6 299/2/6
f 298/3/6 291/3/6 299/3/6
f 291/2/6 292/2/6 299/2/6
f 299/2/6 293/2/6 300/2/6
f 300/2/6 293/2/6 301/2/6
f 301/2/6 293/2/6 302/2/6
f 302/2/6 293/2/6 303/2/6
f 283/1/6 284/1/6 304/1/6
f 261/2/6 283/2/6 304/2/6
f 284/1/6 272/1/6 305/1/6
f 304/1/6 284/1/6 305/1/6
f 295/1/6 296/1/6 306/1/6
f 294/1/6 295/1/6 306/1/6
f 296/1/6 297/1/6 306/1/6
f 306/1/6 297/1/6 307/1/6
f 307/1/6 297/1/6 308/1/6
f 297/3/6 298/3/6 309/3/6
f 308/1/6 297/1/6 309/1/6
f 298/2/6 299/2/6 310/2/6
f 299/2/6 300/2/6 310/2/6
f 300/1/6 301/1/6 311/1/6
f 310/2/6 300/2/6 311/2/6
f 301/2/6 302/2/6 312/2/6
f 311/1/6 301/1/6 312/1/6
f 312/2/6 302/2/6 313/2/6
f 313/2/6 302/2/6 314/2/6
f 314/2/6 302/2/6 315/2/6
f 261/2/6 304/2/6 316/2/6
f 304/2/6 305/2/6 316/2/6
f 305/1/6 272/1/6 317/1/6
f 316/2/6 305/2/6 317/2/6
f 285/2/6 294/2/6 318/2/6
f 317/1/6 272/1/6 318/1/6
f 272/2/6 285/2/6 318/2/6
f 294/1/6 306/1/6 319/1/6
f 318/2/6 294/2/6 319/2/6
f 319/1/6 306/1/6 320/1/6
f 307/1/6 308/1/6 321/1/6
f 306/2/6 307/2/6 321/2/6
f 321/1/6 308/1/6 322/1/6
f 308/3/6 309/3/6 323/3/6
f 322/1/6 308/1/6 323/1/6
f 309/3/6 298/3/6 324/3/6
f 323/3/6 309/3/6 324/3/6
f 298/2/6 310/2/6 325/2/6
f 324/3/6 298/3/6 325/3/6
f 312/1/6 313/1/6 326/1/6
f 310/1/6 311/1/6 326/1/6
f 311/1/6 312/1/6 326/1/6
f 313/2/6 314/2/6 327/2/6
f 326/1/6 313/1/6 327/1/6
f 327/2/6 314/2/6 328/2/6
f 261/2/6 316/2/6 329/2/6
f 316/1/6 317/1/6 329/1/6
f 317/2/6 318/2/6 330/2/6
f 329/1/6 317/1/6 330/1/6
f 319/2/6 320/2/6 330/2/6
f 318/2/6 319/2/6 330/2/6
f 330/2/6 320/2/6 331/2/6
f 320/1/6 306/1/6 332/1/6
f 331/2/6 320/2/6 332/2/6
f 321/2/6 322/2/6 333/2/6
f 332/1/6 306/1/6 333/1/6
f 306/2/6 321/2/6 333/2/6
f 323/3/6 324/3/6 334/3/6
f 333/2/6 322/2/6 334/2/6
f 322/3/6 323/3/6 334/3/6
f 324/1/6 325/1/6 335/1/6
f 334/3/6 324/3/6 335/3/6
f 325/2/6 310/2/6 336/2/6
f 335/1/6 325/1/6 336/1/6
f 310/1/6 326/1/6 337/1/6
f 336/2/6 310/2/6 337/2/6
f 326/2/6 327/2/6 338/2/6
f 337/1/6 326/1/6 338/1/6
f 338/2/6 327/2/6 339/2/6
f 339/2/6 327/2/6 340/2/6
f 330/2/6 331/2/6 342/2/6
f 334/3/6 335/3/6 343/3/6
f 342/2/6 331/2/6 343/2/6
f 333/3/6 334/3/6 343/3/6
f 332/3/6 333/3/6 343/3/6
f 331/3/6 332/3/6 343/3/6
f 343/3/6 335/3/6 344/3/6
f 336/2/6 337/2/6 345/2/6
f 344/3/6 335/3/6 345/3/6
f 335/2/6 336/2/6 345/2/6
f 338/2/6 339/2/6 345/2/6
f 337/2/6 338/2/6 345/2/6
f 345/2/6 339/2/6 346/2/6
f 339/3/6 340/3/6 347/3/6
f 346/2/6 339/2/6 347/2/6
f 340/3/6 341/3/6 347/3/6
f 347/3/6 341/3/6 348/3/6
f 348/3/6 341/3/6 349/3/6
f 261/2/6 329/2/6 350/2/6
f 329/3/6 330/3/6 350/3/6
f 330/2/6 342/2/6 351/2/6
f 350/3/6 330/3/6 351/3/6
f 343/3/6 344/3/6 352/3/6
f 351/2/6 342/2/6 352/2/6
f 342/3/6 343/3/6 352/3/6
f 352/3/6 344/3/6 353/3/6
f 353/3/6 344/3/6 354/3/6
f 354/3/6 344/3/6 355/3/6
f 355/3/6 344/3/6 356/3/6
f 344/1/6 345/1/6 357/1/6
f 356/3/6 344/3/6 357/3/6
f 345/2/6 346/2/6 358/2/6
f 357/1/6 345/1/6 358/1/6
f 346/3/6 347/3/6 359/3/6
f 358/2/6 346/2/6 359/2/6
f 347/3/6 348/3/6 359/3/6
f 359/3/6 348/3/6 360/3/6
f 349/3/6 341/3/6 361/3/6
f 361/3/6 341/3/6 362/3/6
f 350/2/6 351/2/6 363/2/6
f 351/2/6 352/2/6 363/2/6
f 352/2/6 353/2/6 363/2/6
f 353/3/6 354/3/6 363/3/6
f 354/2/6 355/2/6 364/2/6
f 363/3/6 354/3/6 364/3/6
f 355/3/6 356/3/6 365/3/6
f 364/2/6 355/2/6 365/2/6
f 365/3/6 356/3/6 366/3/6
f 356/2/6 357/2/6 367/2/6
f 366/3/6 356/3/6 367/3/6
f 357/2/6 358/2/6 367/2/6
f 359/2/6 360/2/6 367/2/6
f 358/2/6 359/2/6 367/2/6
f 367/2/6 360/2/6 368/2/6
f 368/2/6 360/2/6 369/2/6
f 369/2/6 360/2/6 370/2/6
f 370/2/6 360/2/6 371/2/6
f 371/2/6 360/2/6 372/2/6
f 372/2/6 360/2/6 373/2/6
f 363/2/6 364/2/6 375/2/6
f 261/2/6 350/2/6 375/2/6
f 350/2/6 363/2/6 375/2/6
f 375/2/6 364/2/6 376/2/6
f 365/1/6 366/1/6 377/1/6
f 364/1/6 365/1/6 377/1/6
f 377/1/6 366/1/6 378/1/6
f 366/2/6 367/2/6 379/2/6
f 367/2/6 368/2/6 379/2/6
f 368/1/6 369/1/6 379/1/6
f 369/3/6 370/3/6 380/3/6
f 379/1/6 369/1/6 380/1/6
f 370/2/6 371/2/6 381/2/6
f 380/3/6 370/3/6 381/3/6
f 371/1/6 372/1/6 382/1/6
f 381/2/6 371/2/6 382/2/6
f 373/2/6 374/2/6 383/2/6
f 382/1/6 372/1/6 383/1/6
f 372/2/6 373/2/6 383/2/6
f 383/2/6 374/2/6 384/2/6
f 384/2/6 374/2/6 385/2/6
f 375/1/6 376/1/6 386/1/6
f 376/2/6 364/2/6 387/2/6
f 386/1/6 376/1/6 387/1/6
f 387/2/6 364/2/6 388/2/6
f 364/1/6 377/1/6 389/1/6
f 388/2/6 364/2/6 389/2/6
f 378/1/6 366/1/6 390/1/6
f 377/2/6 378/2/6 390/2/6
f 380/2/6 381/2/6 391/2/6
f 390/1/6 366/1/6 391/1/6
f 366/2/6 379/2/6 391/2/6
f 379/2/6 380/2/6 391/2/6
f 381/1/6 382/1/6 392/1/6
f 382/1/6 383/1/6 392/1/6
f 383/1/6 384/1/6 392/1/6
f 384/3/6 385/3/6 393/3/6
f 392/1/6 384/1/6 393/1/6
f 393/3/6 385/3/6 394/3/6
f 375/1/6 386/1/6 395/1/6
f 387/2/6 388/2/6 395/2/6
f 386/2/6 387/2/6 395/2/6
f 395/2/6 388/2/6 396/2/6
f 388/1/6 389/1/6 397/1/6
f 396/2/6 388/2/6 397/2/6
f 377/2/6 390/2/6 398/2/6
f 397/1/6 389/1/6 398/1/6
f 389/1/6 377/1/6 398/1/6
f 390/2/6 391/2/6 398/2/6
f 398/2/6 391/2/6 399/2/6
f 391/2/6 381/2/6 400/2/6
f 399/2/6 391/2/6 400/2/6
f 400/2/6 381/2/6 401/2/6
f 401/2/6 381/2/6 402/2/6
f 381/1/6 392/1/6 403/1/6
f 402/2/6 381/2/6 403/2/6
f 261/2/6 375/2/6 404/2/6
f 375/1/6 395/1/6 405/1/6
f 404/2/6 375/2/6 405/2/6
f 405/1/6 395/1/6 406/1/6
f 398/2/6 399/2/6 407/2/6
f 396/2/6 397/2/6 407/2/6
f 397/2/6 398/2/6 407/2/6
f 407/2/6 399/2/6 408/2/6
f 400/2/6 401/2/6 409/2/6
f 401/3/6 402/3/6 410/3/6
f 409/2/6 401/2/6 410/2/6
f 410/3/6 402/3/6 411/3/6
f 403/1/6 392/1/6 412/1/6
f 412/1/6 392/1/6 413/1/6
f 396/2/6 407/2/6 414/2/6
f 407/3/6 408/3/6 415/3/6
f 414/2/6 407/2/6 415/2/6
f 415/3/6 408/3/6 416/3/6
f 416/3/6 408/3/6 417/3/6
f 400/2/6 409/2/6 418/2/6
f 418/2/6 409/2/6 419/2/6
f 410/3/6 411/3/6 420/3/6
f 411/2/6 412/2/6 421/2/6
f 420/3/6 411/3/6 421/3/6
f 421/2/6 412/2/6 422/2/6
f 396/2/6 414/2/6 423/2/6
f 415/3/6 416/3/6 424/3/6
f 423/2/6 414/2/6 424/2/6
f 414/3/6 415/3/6 424/3/6
f 424/3/6 416/3/6 425/3/6
f 424/2/6 425/2/6 426/2/6
f 425/3/6 416/3/6 427/3/6
f 426/2/6 425/2/6 427/2/6
f 400/2/6 418/2/6 428/2/6
f 428/2/6 418/2/6 429/2/6
f 427/3/6 416/3/6 430/3/6
f 430/3/6 416/3/6 431/3/6
f 432/4/6 433/4/6 434/4/6
f 434/4/6 433/4/6 435/4/6
f 435/4/6 433/4/6 436/4/6
f 436/4/6 433/4/6 437/4/6
f 437/4/6 433/4/6 438/4/6
f 438/4/6 433/4/6 439/4/6
f 439/4/6 433/4/6 441/4/6
f 440/4/6 441/4/6 443/4/6
f 442/4/6 443/4/6 445/4/6
f 444/4/6 445/4/6 446/4/6
f 443/4/6 441/4/6 447/4/6
f 446/4/6 445/4/6 447/4/6
f 445/4/6 443/4/6 447/4/6
f 448/4/6 449/4/6 450/4/6
f 447/4/6 441/4/6 451/4/6
f 441/4/6 433/4/6 452/4/6
f 451/4/6 441/4/6 452/4/6
f 452/4/6 433/4/6 453/4/6
f 450/4/6 451/4/6 454/4/6
f 448/4/6 450/4/6 454/4/6
f 451/4/6 452/4/6 454/4/6
f 454/4/6 452/4/6 455/4/6
f 455/4/6 452/4/6 456/4/6
f 452/7/6 453/7/6 457/7/6
f 456/4/6 452/4/6 457/4/6
f 455/4/6 456/4/6 458/4/6
f 456/7/6 457/7/6 459/7/6
f 458/4/6 456/4/6 459/4/6
f 457/7/6 453/7/6 460/7/6
f 459/7/6 457/7/6 460/7/6
f 453/4/6 433/4/6 461/4/6
f 460/7/6 453/7/6 461/7/6
f 455/4/6 458/4/6 463/4/6
f 459/7/6 460/7/6 464/7/6
f 458/7/6 459/7/6 464/7/6
f 460/4/6 461/4/6 465/4/6
f 464/7/6 460/7/6 465/7/6
f 462/4/6 463/4/6 472/4/6
f 463/4/6 458/4/6 472/4/6
f 458/7/6 464/7/6 472/7/6
f 464/4/6 465/4/6 473/4/6
f 472/7/6 464/7/6 473/7/6
f 466/4/6 467/4/6 475/4/6
f 470/4/6 471/4/6 478/4/6
f 478/4/6 471/4/6 479/4/6
f 462/4/6 472/4/6 480/4/6
f 472/4/6 473/4/6 480/4/6
f 468/4/6 469/4/6 482/4/6
f 476/4/6 477/4/6 484/4/6
f 484/4/6 477/4/6 485/4/6
f 479/4/6 480/4/6 486/4/6
f 475/4/6 467/4/6 487/4/6
f 474/4/6 475/4/6 487/4/6
f 487/4/6 488/4/6 489/4/6
f 481/4/6 482/4/6 491/4/6
f 482/4/6 469/4/6 491/4/6
f 484/4/6 485/4/6 492/4/6
f 485/4/6 486/4/6 492/4/6
f 483/4/6 484/4/6 492/4/6
f 489/4/6 490/4/6 493/4/6
f 491/4/6 492/4/6 494/4/6
f 481/4/6 491/4/6 494/4/6
f 480/4/6 473/4/6 495/4/6
f 492/4/6 486/4/6 495/4/6
f 494/4/6 492/4/6 495/4/6
f 486/4/6 480/4/6 495/4/6
f 473/4/6 465/4/6 496/4/6
f 495/4/6 473/4/6 496/4/6
f 465/4/6 461/4/6 496/4/6
f 495/7/6 496/7/6 497/7/6
f 496/4/6 461/4/6 497/4/6
f 461/4/6 433/4/6 498/4/6
f 497/4/6 461/4/6 498/4/6
f 493/4/6 494/4/6 499/4/6
f 495/7/6 497/7/6 499/7/6
f 497/7/6 498/7/6 499/7/6
f 494/4/6 495/4/6 499/4/6
f 499/7/6 498/7/6 500/7/6
f 498/4/6 433/4/6 501/4/6
f 500/7/6 498/7/6 501/7/6
f 501/4/6 433/4/6 502/4/6
f 499/4/6 500/4/6 503/4/6
f 500/7/6 501/7/6 503/7/6
f 501/7/6 502/7/6 503/7/6
f 503/7/6 502/7/6 504/7/6
f 503/4/6 504/4/6 505/4/6
f 504/7/6 502/7/6 505/7/6
f 505/7/6 502/7/6 506/7/6
f 505/4/6 506/4/6 507/4/6
f 506/7/6 502/7/6 507/7/6
f 502/4/6 433/4/6 508/4/6
f 507/7/6 502/7/6 508/7/6
f 505/4/6 507/4/6 509/4/6
f 493/4/6 499/4/6 509/4/6
f 507/4/6 508/4/6 509/4/6
f 503/4/6 505/4/6 509/4/6
f 499/4/6 503/4/6 509/4/6
f 509/4/6 508/4/6 510/4/6
f 493/4/6 509/4/6 511/4/6
f 509/7/6 510/7/6 512/7/6
f 511/4/6 509/4/6 512/4/6
f 511/7/6 512/7/6 513/7/6
f 512/7/6 510/7/6 513/7/6
f 510/4/6 508/4/6 514/4/6
f 513/7/6 510/7/6 514/7/6
f 511/7/6 513/7/6 515/7/6
f 513/4/6 514/4/6 516/4/6
f 515/7/6 513/7/6 516/7/6
f 493/4/6 511/4/6 517/4/6
f 511/7/6 515/7/6 517/7/6
f 515/4/6 516/4/6 518/4/6
f 517/7/6 515/7/6 518/7/6
f 508/4/6 433/4/6 519/4/6
f 518/4/6 516/4/6 519/4/6
f 517/4/6 518/4/6 519/4/6
f 514/4/6 508/4/6 519/4/6
f 516/4/6 514/4/6 519/4/6
f 519/4/6 433/4/6 520/4/6
f 519/7/6 520/7/6 521/7/6
f 520/4/6 433/4/6 522/4/6
f 521/7/6 520/7/6 522/7/6
f 517/4/6 519/4/6 523/4/6
f 523/4/6 519/4/6 524/4/6
f 519/7/6 521/7/6 525/7/6
f 521/4/6 522/4/6 525/4/6
f 522/4/6 433/4/6 526/4/6
f 525/4/6 522/4/6 526/4/6
f 517/4/6 523/4/6 527/4/6
f 523/7/6 524/7/6 528/7/6
f 527/4/6 523/4/6 528/4/6
f 524/4/6 519/4/6 529/4/6
f 528/7/6 524/7/6 529/7/6
f 529/4/6 519/4/6 530/4/6
f 530/4/6 519/4/6 531/4/6
f 519/7/6 525/7/6 532/7/6
f 531/4/6 519/4/6 532/4/6
f 525/7/6 526/7/6 532/7/6
f 517/4/6 527/4/6 533/4/6
f 527/7/6 528/7/6 534/7/6
f 533/4/6 527/4/6 534/4/6
f 529/7/6 530/7/6 534/7/6
f 528/7/6 529/7/6 534/7/6
f 530/4/6 531/4/6 535/4/6
f 534/7/6 530/7/6 535/7/6
f 535/4/6 531/4/6 536/4/6
f 533/7/6 534/7/6 537/7/6
f 517/4/6 533/4/6 537/4/6
f 535/7/6 536/7/6 537/7/6
f 534/7/6 535/7/6 537/7/6
f 537/7/6 536/7/6 538/7/6
f 538/7/6 536/7/6 539/7/6
f 539/7/6 536/7/6 540/7/6
f 536/4/6 531/4/6 541/4/6
f 531/7/6 532/7/6 541/7/6
f 532/7/6 526/7/6 542/7/6
f 541/7/6 532/7/6 542/7/6
f 526/4/6 433/4/6 542/4/6
f 538/7/6 539/7/6 543/7/6
f 537/4/6 538/4/6 543/4/6
f 539/4/6 540/4/6 544/4/6
f 543/7/6 539/7/6 544/7/6
f 540/7/6 536/7/6 545/7/6
f 544/4/6 540/4/6 545/4/6
f 545/7/6 536/7/6 546/7/6
f 543/4/6 544/4/6 547/4/6
f 546/7/6 536/7/6 547/7/6
f 545/4/6 546/4/6 547/4/6
f 544/4/6 545/4/6 547/4/6
f 541/4/6 542/4/6 548/4/6
f 547/7/6 536/7/6 548/7/6
f 536/4/6 541/4/6 548/4/6
f 489/4/6 493/4/6 549/4/6
f 493/4/6 517/4/6 549/4/6
f 547/4/6 548/4/6 549/4/6
f 487/4/6 489/4/6 549/4/6
f 517/4/6 537/4/6 549/4/6
f 537/4/6 543/4/6 549/4/6
f 543/4/6 547/4/6 549/4/6
f 474/4/6 487/4/6 549/4/6
f 548/4/6 542/4/6 550/4/6
f 549/4/6 548/4/6 550/4/6
f 542/4/6 433/4/6 550/4/6
