# MagicaVoxel @ ephtracy

# material
mtllib Skeleton_Leg.mtl
usemtl palette

# normals
vn -1 0 0
vn 1 0 0
vn 0 0 1
vn 0 0 -1
vn 0 -1 0
vn 0 1 0

# texcoords
vt 0.00585938 0.5
vt 0.970703 0.5

# verts
v -1.5 0 4
v -1.5 0 2
v -1.5 0 -1
v -1.5 0 -2
v -1.5 0 -3
v -1.5 0 -4
v -1.5 1 4
v -1.5 1 2
v -1.5 1 -0
v -1.5 1 -1
v -1.5 1 -2
v -1.5 1 -3
v -1.5 1 -4
v -1.5 2 -0
v -1.5 2 -2
v -1.5 2 -3
v -1.5 3 -2
v -1.5 3 -3
v -1.5 4 -2
v -1.5 4 -3
v -1.5 5 -2
v -1.5 5 -3
v -1.5 5 -4
v -1.5 6 -2
v -1.5 6 -3
v -1.5 6 -4
v -1.5 7 -2
v -1.5 7 -3
v -1.5 12 -2
v -1.5 12 -3
v -1.5 13 -2
v -1.5 13 -3
v -1.5 15 -2
v -1.5 15 -3
v -1.5 16 -2
v -1.5 16 -3
v -1.5 17 -2
v -1.5 17 -3
v -0.5 1 2
v -0.5 1 1
v -0.5 1 -0
v -0.5 1 -3
v -0.5 1 -4
v -0.5 2 2
v -0.5 2 1
v -0.5 2 -0
v -0.5 2 -1
v -0.5 2 -2
v -0.5 2 -3
v -0.5 2 -4
v -0.5 3 -1
v -0.5 3 -2
v -0.5 3 -3
v -0.5 3 -4
v -0.5 4 -2
v -0.5 4 -3
v -0.5 5 -2
v -0.5 5 -3
v -0.5 5 -4
v -0.5 6 -2
v -0.5 6 -3
v -0.5 6 -4
v -0.5 7 -2
v -0.5 7 -3
v -0.5 8 -3
v -0.5 8 -4
v -0.5 9 -2
v -0.5 9 -4
v -0.5 11 -2
v -0.5 11 -3
v -0.5 11 -4
v -0.5 12 -3
v -0.5 12 -4
v -0.5 13 -2
v -0.5 13 -3
v -0.5 13 -4
v -0.5 14 -3
v -0.5 14 -4
v -0.5 15 -2
v -0.5 15 -3
v -0.5 16 -3
v -0.5 17 -2
v -0.5 17 -3
v -0.5 17 -4
v -0.5 18 -2
v -0.5 18 -3
v 0.5 0 4
v 0.5 0 3
v 0.5 1 4
v 0.5 1 3
v 0.5 2 -2
v 0.5 2 -3
v 0.5 3 -2
v 0.5 3 -3
v -0.5 0 4
v -0.5 0 3
v -0.5 1 4
v -0.5 1 3
v -0.5 2 -2
v -0.5 2 -3
v -0.5 3 -2
v -0.5 3 -3
v 0.5 0 -3
v 0.5 0 -4
v 0.5 1 2
v 0.5 1 1
v 0.5 1 -3
v 0.5 2 2
v 0.5 2 1
v 0.5 2 -1
v 0.5 2 -2
v 0.5 2 -3
v 0.5 2 -4
v 0.5 3 -1
v 0.5 3 -2
v 0.5 3 -3
v 0.5 3 -4
v 0.5 4 -2
v 0.5 4 -3
v 0.5 6 -3
v 0.5 8 -3
v 0.5 8 -4
v 0.5 9 -3
v 0.5 9 -4
v 0.5 10 -3
v 0.5 11 -3
v 0.5 11 -4
v 0.5 12 -3
v 0.5 12 -4
v 0.5 13 -2
v 0.5 13 -3
v 0.5 13 -4
v 0.5 14 -3
v 0.5 14 -4
v 0.5 15 -2
v 0.5 15 -3
v 0.5 16 -3
v 0.5 17 -2
v 0.5 17 -3
v 0.5 17 -4
v 0.5 18 -2
v 0.5 18 -3
v 1.5 0 4
v 1.5 0 2
v 1.5 0 1
v 1.5 0 -2
v 1.5 0 -3
v 1.5 1 4
v 1.5 1 2
v 1.5 1 1
v 1.5 1 -0
v 1.5 1 -1
v 1.5 1 -2
v 1.5 1 -3
v 1.5 2 1
v 1.5 2 -0
v 1.5 2 -1
v 1.5 2 -2
v 1.5 3 -2
v 1.5 3 -3
v 1.5 4 -2
v 1.5 4 -3
v 1.5 6 -2
v 1.5 6 -3
v 1.5 8 -2
v 1.5 8 -3
v 1.5 10 -2
v 1.5 10 -3
v 1.5 11 -2
v 1.5 11 -3
v 1.5 12 -2
v 1.5 12 -3
v 1.5 13 -2
v 1.5 13 -3
v 1.5 15 -2
v 1.5 15 -3
v 1.5 16 -2
v 1.5 16 -3
v 1.5 17 -2
v 1.5 17 -3
v -1.5 0 4
v -1.5 1 4
v -0.5 0 4
v -0.5 1 4
v 0.5 0 4
v 0.5 1 4
v 1.5 0 4
v 1.5 1 4
v -0.5 0 3
v -0.5 1 3
v 0.5 0 3
v 0.5 1 3
v -0.5 1 2
v -0.5 2 2
v 0.5 1 2
v 0.5 2 2
v 0.5 1 1
v 0.5 2 1
v 1.5 1 1
v 1.5 2 1
v -1.5 1 -0
v -1.5 2 -0
v -0.5 1 -0
v -0.5 2 -0
v -0.5 2 -1
v -0.5 3 -1
v 0.5 2 -1
v 0.5 3 -1
v -1.5 2 -2
v -1.5 3 -2
v -1.5 4 -2
v -1.5 5 -2
v -1.5 6 -2
v -1.5 7 -2
v -1.5 12 -2
v -1.5 13 -2
v -1.5 15 -2
v -1.5 16 -2
v -1.5 17 -2
v -0.5 2 -2
v -0.5 3 -2
v -0.5 4 -2
v -0.5 5 -2
v -0.5 6 -2
v -0.5 7 -2
v -0.5 9 -2
v -0.5 11 -2
v -0.5 13 -2
v -0.5 15 -2
v -0.5 16 -2
v -0.5 17 -2
v -0.5 18 -2
v 0.5 2 -2
v 0.5 3 -2
v 0.5 4 -2
v 0.5 5 -2
v 0.5 6 -2
v 0.5 7 -2
v 0.5 8 -2
v 0.5 9 -2
v 0.5 10 -2
v 0.5 11 -2
v 0.5 13 -2
v 0.5 15 -2
v 0.5 16 -2
v 0.5 17 -2
v 0.5 18 -2
v 1.5 2 -2
v 1.5 3 -2
v 1.5 4 -2
v 1.5 6 -2
v 1.5 8 -2
v 1.5 10 -2
v 1.5 11 -2
v 1.5 12 -2
v 1.5 13 -2
v 1.5 15 -2
v 1.5 16 -2
v 1.5 17 -2
v -1.5 5 -3
v -1.5 6 -3
v -0.5 2 -3
v -0.5 3 -3
v -0.5 5 -3
v -0.5 6 -3
v -0.5 11 -3
v -0.5 12 -3
v 0.5 2 -3
v 0.5 3 -3
v 0.5 11 -3
v 0.5 12 -3
v -0.5 2 -2
v -0.5 3 -2
v 0.5 2 -2
v 0.5 3 -2
v -1.5 1 -3
v -1.5 2 -3
v -1.5 3 -3
v -1.5 4 -3
v -1.5 5 -3
v -1.5 6 -3
v -1.5 7 -3
v -1.5 12 -3
v -1.5 13 -3
v -1.5 15 -3
v -1.5 16 -3
v -1.5 17 -3
v -0.5 1 -3
v -0.5 2 -3
v -0.5 3 -3
v -0.5 4 -3
v -0.5 5 -3
v -0.5 6 -3
v -0.5 7 -3
v -0.5 12 -3
v -0.5 13 -3
v -0.5 14 -3
v -0.5 15 -3
v -0.5 16 -3
v -0.5 17 -3
v -0.5 18 -3
v 0.5 0 -3
v 0.5 1 -3
v 0.5 2 -3
v 0.5 3 -3
v 0.5 4 -3
v 0.5 6 -3
v 0.5 8 -3
v 0.5 9 -3
v 0.5 10 -3
v 0.5 11 -3
v 0.5 12 -3
v 0.5 13 -3
v 0.5 14 -3
v 0.5 15 -3
v 0.5 16 -3
v 0.5 17 -3
v 0.5 18 -3
v 1.5 0 -3
v 1.5 1 -3
v 1.5 3 -3
v 1.5 4 -3
v 1.5 6 -3
v 1.5 8 -3
v 1.5 10 -3
v 1.5 11 -3
v 1.5 12 -3
v 1.5 13 -3
v 1.5 15 -3
v 1.5 16 -3
v 1.5 17 -3
v -1.5 0 -4
v -1.5 1 -4
v -1.5 5 -4
v -1.5 6 -4
v -0.5 0 -4
v -0.5 1 -4
v -0.5 2 -4
v -0.5 3 -4
v -0.5 5 -4
v -0.5 6 -4
v -0.5 8 -4
v -0.5 9 -4
v -0.5 11 -4
v -0.5 12 -4
v -0.5 13 -4
v -0.5 14 -4
v -0.5 17 -4
v 0.5 0 -4
v 0.5 2 -4
v 0.5 3 -4
v 0.5 8 -4
v 0.5 9 -4
v 0.5 11 -4
v 0.5 12 -4
v 0.5 13 -4
v 0.5 14 -4
v 0.5 17 -4
v -1.5 0 4
v -0.5 0 4
v 0.5 0 4
v 1.5 0 4
v -0.5 0 3
v 0.5 0 3
v -1.5 0 2
v -0.5 0 2
v 0.5 0 2
v 1.5 0 2
v 0.5 0 1
v 1.5 0 1
v -1.5 0 -1
v -0.5 0 -1
v -1.5 0 -2
v -0.5 0 -2
v 0.5 0 -2
v 1.5 0 -2
v -1.5 0 -3
v -0.5 0 -3
v 0.5 0 -3
v 1.5 0 -3
v -1.5 0 -4
v -0.5 0 -4
v 0.5 0 -4
v -0.5 3 -2
v 0.5 3 -2
v -0.5 3 -3
v 0.5 3 -3
v -1.5 4 -2
v -0.5 4 -2
v 0.5 4 -2
v 1.5 4 -2
v -1.5 4 -3
v -0.5 4 -3
v 0.5 4 -3
v 1.5 4 -3
v -1.5 5 -3
v -0.5 5 -3
v -1.5 5 -4
v -0.5 5 -4
v -1.5 6 -2
v -0.5 6 -2
v -1.5 6 -3
v -0.5 6 -3
v -1.5 12 -2
v 1.5 12 -2
v -1.5 12 -3
v -0.5 12 -3
v 0.5 12 -3
v 1.5 12 -3
v -0.5 14 -3
v 0.5 14 -3
v -0.5 14 -4
v 0.5 14 -4
v -1.5 15 -2
v -0.5 15 -2
v 0.5 15 -2
v 1.5 15 -2
v -1.5 15 -3
v -0.5 15 -3
v 0.5 15 -3
v 1.5 15 -3
v -1.5 1 4
v -0.5 1 4
v 0.5 1 4
v 1.5 1 4
v -0.5 1 3
v 0.5 1 3
v -1.5 1 2
v -0.5 1 2
v 0.5 1 2
v 1.5 1 2
v -0.5 1 1
v 0.5 1 1
v 1.5 1 1
v -1.5 1 -0
v -0.5 1 -0
v -1.5 1 -3
v -0.5 1 -3
v -1.5 1 -4
v -0.5 1 -4
v -0.5 2 2
v 0.5 2 2
v -0.5 2 1
v 0.5 2 1
v 1.5 2 1
v -1.5 2 -0
v -0.5 2 -0
v 0.5 2 -0
v 1.5 2 -0
v -0.5 2 -1
v 0.5 2 -1
v 1.5 2 -1
v -1.5 2 -2
v -0.5 2 -2
v 0.5 2 -2
v 1.5 2 -2
v -0.5 2 -3
v 0.5 2 -3
v -0.5 3 -1
v 0.5 3 -1
v -1.5 3 -2
v -0.5 3 -2
v 0.5 3 -2
v 1.5 3 -2
v -1.5 3 -3
v -0.5 3 -3
v 0.5 3 -3
v 1.5 3 -3
v -1.5 5 -2
v -0.5 5 -2
v -1.5 5 -3
v -0.5 5 -3
v -1.5 6 -3
v -0.5 6 -3
v -1.5 6 -4
v -0.5 6 -4
v -1.5 7 -2
v -0.5 7 -2
v -1.5 7 -3
v -0.5 7 -3
v -0.5 11 -2
v 0.5 11 -2
v 1.5 11 -2
v -0.5 11 -3
v 0.5 11 -3
v 1.5 11 -3
v -1.5 13 -2
v -0.5 13 -2
v 0.5 13 -2
v 1.5 13 -2
v -1.5 13 -3
v -0.5 13 -3
v 0.5 13 -3
v 1.5 13 -3
v -0.5 13 -4
v 0.5 13 -4
v -1.5 17 -2
v -0.5 17 -2
v 0.5 17 -2
v 1.5 17 -2
v -1.5 17 -3
v -0.5 17 -3
v 0.5 17 -3
v 1.5 17 -3
v -0.5 17 -4
v 0.5 17 -4
v -0.5 18 -2
v 0.5 18 -2
v -0.5 18 -3
v 0.5 18 -3

# faces
f 7/1/1 2/1/1 1/1/1
f 8/2/1 3/2/1 2/2/1
f 8/1/1 2/1/1 7/1/1
f 9/2/1 3/2/1 8/2/1
f 10/1/1 4/1/1 3/1/1
f 10/2/1 3/2/1 9/2/1
f 11/2/1 5/2/1 4/2/1
f 11/1/1 4/1/1 10/1/1
f 12/1/1 6/1/1 5/1/1
f 12/2/1 5/2/1 11/2/1
f 13/1/1 6/1/1 12/1/1
f 14/2/1 11/2/1 10/2/1
f 14/2/1 12/2/1 11/2/1
f 14/2/1 10/2/1 9/2/1
f 15/2/1 12/2/1 14/2/1
f 16/2/1 12/2/1 15/2/1
f 17/1/1 16/1/1 15/1/1
f 18/1/1 16/1/1 17/1/1
f 21/2/1 20/2/1 19/2/1
f 22/2/1 20/2/1 21/2/1
f 25/1/1 23/1/1 22/1/1
f 26/1/1 23/1/1 25/1/1
f 27/2/1 25/2/1 24/2/1
f 28/2/1 25/2/1 27/2/1
f 31/2/1 30/2/1 29/2/1
f 32/2/1 30/2/1 31/2/1
f 35/1/1 34/1/1 33/1/1
f 36/1/1 34/1/1 35/1/1
f 37/2/1 36/2/1 35/2/1
f 38/2/1 36/2/1 37/2/1
f 44/1/1 40/1/1 39/1/1
f 45/2/1 41/2/1 40/2/1
f 45/1/1 40/1/1 44/1/1
f 46/2/1 41/2/1 45/2/1
f 49/2/1 43/2/1 42/2/1
f 50/2/1 43/2/1 49/2/1
f 51/2/1 48/2/1 47/2/1
f 52/2/1 48/2/1 51/2/1
f 53/1/1 50/1/1 49/1/1
f 54/1/1 50/1/1 53/1/1
f 55/2/1 53/2/1 52/2/1
f 55/2/1 54/2/1 53/2/1
f 56/2/1 54/2/1 55/2/1
f 58/2/1 54/2/1 56/2/1
f 59/2/1 54/2/1 58/2/1
f 60/2/1 58/2/1 57/2/1
f 61/2/1 58/2/1 60/2/1
f 64/2/1 62/2/1 61/2/1
f 65/2/1 62/2/1 64/2/1
f 65/1/1 64/1/1 63/1/1
f 66/2/1 62/2/1 65/2/1
f 67/1/1 65/1/1 63/1/1
f 67/1/1 66/1/1 65/1/1
f 68/1/1 66/1/1 67/1/1
f 69/2/1 68/2/1 67/2/1
f 70/2/1 68/2/1 69/2/1
f 71/2/1 68/2/1 70/2/1
f 72/1/1 71/1/1 70/1/1
f 73/1/1 71/1/1 72/1/1
f 75/2/1 73/2/1 72/2/1
f 76/2/1 73/2/1 75/2/1
f 77/2/1 75/2/1 74/2/1
f 79/2/1 77/2/1 74/2/1
f 79/2/1 78/2/1 77/2/1
f 80/2/1 78/2/1 79/2/1
f 81/2/1 78/2/1 80/2/1
f 83/2/1 78/2/1 81/2/1
f 84/2/1 78/2/1 83/2/1
f 85/1/1 83/1/1 82/1/1
f 86/1/1 83/1/1 85/1/1
f 89/2/1 88/2/1 87/2/1
f 90/2/1 88/2/1 89/2/1
f 93/2/1 92/2/1 91/2/1
f 94/2/1 92/2/1 93/2/1
f 95/1/2 96/1/2 97/1/2
f 97/1/2 96/1/2 98/1/2
f 99/1/2 100/1/2 101/1/2
f 101/1/2 100/1/2 102/1/2
f 103/2/2 104/2/2 107/2/2
f 105/1/2 106/1/2 108/1/2
f 108/1/2 106/1/2 109/1/2
f 107/2/2 104/2/2 112/2/2
f 112/2/2 104/2/2 113/2/2
f 110/2/2 111/2/2 114/2/2
f 114/2/2 111/2/2 115/2/2
f 112/1/2 113/1/2 116/1/2
f 116/1/2 113/1/2 117/1/2
f 115/2/2 116/2/2 118/2/2
f 116/2/2 117/2/2 118/2/2
f 118/2/2 117/2/2 119/2/2
f 119/2/2 117/2/2 120/2/2
f 120/2/2 117/2/2 121/2/2
f 121/2/2 117/2/2 122/2/2
f 121/1/2 122/1/2 123/1/2
f 123/1/2 122/1/2 124/1/2
f 123/2/2 124/2/2 125/2/2
f 125/2/2 124/2/2 126/2/2
f 126/2/2 124/2/2 127/2/2
f 126/1/2 127/1/2 128/1/2
f 128/1/2 127/1/2 129/1/2
f 128/2/2 129/2/2 131/2/2
f 131/2/2 129/2/2 132/2/2
f 130/2/2 131/2/2 133/2/2
f 130/2/2 133/2/2 135/2/2
f 133/2/2 134/2/2 135/2/2
f 135/2/2 134/2/2 136/2/2
f 136/2/2 134/2/2 137/2/2
f 137/2/2 134/2/2 139/2/2
f 139/2/2 134/2/2 140/2/2
f 138/1/2 139/1/2 141/1/2
f 141/1/2 139/1/2 142/1/2
f 143/2/2 144/2/2 148/2/2
f 144/1/2 145/1/2 149/1/2
f 148/2/2 144/2/2 149/2/2
f 145/2/2 146/2/2 150/2/2
f 149/1/2 145/1/2 150/1/2
f 150/2/2 146/2/2 151/2/2
f 151/2/2 146/2/2 152/2/2
f 146/1/2 147/1/2 153/1/2
f 152/2/2 146/2/2 153/2/2
f 153/1/2 147/1/2 154/1/2
f 150/2/2 151/2/2 155/2/2
f 151/1/2 152/1/2 156/1/2
f 155/2/2 151/2/2 156/2/2
f 153/2/2 154/2/2 157/2/2
f 156/1/2 152/1/2 157/1/2
f 152/2/2 153/2/2 157/2/2
f 157/2/2 154/2/2 158/2/2
f 158/2/2 154/2/2 159/2/2
f 159/2/2 154/2/2 160/2/2
f 161/2/2 162/2/2 163/2/2
f 163/2/2 162/2/2 164/2/2
f 163/1/2 164/1/2 165/1/2
f 165/1/2 164/1/2 166/1/2
f 165/2/2 166/2/2 167/2/2
f 167/2/2 166/2/2 168/2/2
f 167/1/2 168/1/2 169/1/2
f 169/1/2 168/1/2 170/1/2
f 171/2/2 172/2/2 173/2/2
f 173/2/2 172/2/2 174/2/2
f 175/2/2 176/2/2 177/2/2
f 177/2/2 176/2/2 178/2/2
f 177/1/2 178/1/2 179/1/2
f 179/1/2 178/1/2 180/1/2
f 183/1/3 182/1/3 181/1/3
f 184/1/3 182/1/3 183/1/3
f 187/2/3 186/2/3 185/2/3
f 188/2/3 186/2/3 187/2/3
f 191/2/3 190/2/3 189/2/3
f 192/2/3 190/2/3 191/2/3
f 195/1/3 194/1/3 193/1/3
f 196/1/3 194/1/3 195/1/3
f 199/2/3 198/2/3 197/2/3
f 200/2/3 198/2/3 199/2/3
f 203/2/3 202/2/3 201/2/3
f 204/2/3 202/2/3 203/2/3
f 207/2/3 206/2/3 205/2/3
f 208/2/3 206/2/3 207/2/3
f 220/1/3 210/1/3 209/1/3
f 221/1/3 210/1/3 220/1/3
f 222/2/3 212/2/3 211/2/3
f 223/2/3 212/2/3 222/2/3
f 224/2/3 214/2/3 213/2/3
f 225/2/3 214/2/3 224/2/3
f 228/2/3 216/2/3 215/2/3
f 229/1/3 218/1/3 217/1/3
f 230/2/3 219/2/3 218/2/3
f 230/1/3 218/1/3 229/1/3
f 231/2/3 219/2/3 230/2/3
f 234/2/3 222/2/3 221/2/3
f 235/1/3 223/1/3 222/1/3
f 235/2/3 222/2/3 234/2/3
f 236/2/3 224/2/3 223/2/3
f 236/1/3 223/1/3 235/1/3
f 236/2/3 225/2/3 224/2/3
f 237/2/3 225/2/3 236/2/3
f 238/1/3 226/1/3 225/1/3
f 238/2/3 225/2/3 237/2/3
f 239/1/3 226/1/3 238/1/3
f 240/2/3 227/2/3 226/2/3
f 240/1/3 226/1/3 239/1/3
f 241/2/3 227/2/3 240/2/3
f 242/2/3 227/2/3 241/2/3
f 243/2/3 229/2/3 228/2/3
f 243/2/3 228/2/3 215/2/3
f 243/2/3 231/2/3 230/2/3
f 243/2/3 230/2/3 229/2/3
f 244/2/3 231/2/3 243/2/3
f 245/2/3 231/2/3 244/2/3
f 246/1/3 232/1/3 231/1/3
f 246/2/3 231/2/3 245/2/3
f 247/1/3 232/1/3 246/1/3
f 248/2/3 234/2/3 233/2/3
f 249/2/3 234/2/3 248/2/3
f 250/2/3 237/2/3 236/2/3
f 250/2/3 236/2/3 235/2/3
f 251/1/3 239/1/3 238/1/3
f 251/2/3 237/2/3 250/2/3
f 251/1/3 238/1/3 237/1/3
f 252/2/3 241/2/3 240/2/3
f 252/1/3 239/1/3 251/1/3
f 252/2/3 240/2/3 239/2/3
f 253/1/3 242/1/3 241/1/3
f 253/2/3 241/2/3 252/2/3
f 254/1/3 242/1/3 253/1/3
f 255/2/3 243/2/3 215/2/3
f 256/2/3 243/2/3 255/2/3
f 257/2/3 245/2/3 244/2/3
f 258/1/3 246/1/3 245/1/3
f 258/2/3 245/2/3 257/2/3
f 259/1/3 246/1/3 258/1/3
f 264/1/3 261/1/3 260/1/3
f 265/1/3 261/1/3 264/1/3
f 268/1/3 263/1/3 262/1/3
f 269/1/3 263/1/3 268/1/3
f 270/1/3 267/1/3 266/1/3
f 271/1/3 267/1/3 270/1/3
f 272/2/4 273/2/4 274/2/4
f 274/2/4 273/2/4 275/2/4
f 276/2/4 277/2/4 288/2/4
f 277/1/4 278/1/4 289/1/4
f 288/2/4 277/2/4 289/2/4
f 289/1/4 278/1/4 290/1/4
f 279/2/4 280/2/4 291/2/4
f 291/2/4 280/2/4 292/2/4
f 281/2/4 282/2/4 293/2/4
f 293/2/4 282/2/4 294/2/4
f 283/2/4 284/2/4 295/2/4
f 295/2/4 284/2/4 296/2/4
f 285/1/4 286/1/4 298/1/4
f 286/2/4 287/2/4 299/2/4
f 298/1/4 286/1/4 299/1/4
f 299/2/4 287/2/4 300/2/4
f 296/2/4 297/2/4 313/2/4
f 313/2/4 297/2/4 314/2/4
f 300/1/4 301/1/4 317/1/4
f 317/1/4 301/1/4 318/1/4
f 302/1/4 303/1/4 319/1/4
f 303/2/4 304/2/4 320/2/4
f 319/1/4 303/1/4 320/1/4
f 304/2/4 305/2/4 320/2/4
f 320/2/4 305/2/4 321/2/4
f 306/2/4 307/2/4 322/2/4
f 307/1/4 308/1/4 323/1/4
f 322/2/4 307/2/4 323/2/4
f 308/2/4 309/2/4 324/2/4
f 323/1/4 308/1/4 324/1/4
f 309/2/4 310/2/4 324/2/4
f 310/1/4 311/1/4 325/1/4
f 324/2/4 310/2/4 325/2/4
f 325/1/4 311/1/4 326/1/4
f 312/2/4 313/2/4 327/2/4
f 327/2/4 313/2/4 328/2/4
f 315/2/4 316/2/4 329/2/4
f 316/1/4 317/1/4 330/1/4
f 329/2/4 316/2/4 330/2/4
f 330/1/4 317/1/4 331/1/4
f 332/1/4 333/1/4 336/1/4
f 336/1/4 333/1/4 337/1/4
f 334/1/4 335/1/4 340/1/4
f 340/1/4 335/1/4 341/1/4
f 336/2/4 337/2/4 349/2/4
f 337/2/4 338/2/4 349/2/4
f 338/1/4 339/1/4 350/1/4
f 349/2/4 338/2/4 350/2/4
f 339/2/4 340/2/4 351/2/4
f 350/1/4 339/1/4 351/1/4
f 340/2/4 341/2/4 351/2/4
f 341/2/4 342/2/4 351/2/4
f 342/1/4 343/1/4 352/1/4
f 351/2/4 342/2/4 352/2/4
f 343/2/4 344/2/4 353/2/4
f 352/1/4 343/1/4 353/1/4
f 344/1/4 345/1/4 354/1/4
f 353/2/4 344/2/4 354/2/4
f 345/2/4 346/2/4 355/2/4
f 354/1/4 345/1/4 355/1/4
f 355/2/4 346/2/4 356/2/4
f 347/2/4 348/2/4 357/2/4
f 357/2/4 348/2/4 358/2/4
f 363/1/5 360/1/5 359/1/5
f 364/2/5 362/2/5 361/2/5
f 365/1/5 363/1/5 359/1/5
f 366/2/5 364/2/5 363/2/5
f 366/1/5 363/1/5 365/1/5
f 367/2/5 362/2/5 364/2/5
f 367/2/5 364/2/5 366/2/5
f 368/2/5 362/2/5 367/2/5
f 369/2/5 366/2/5 365/2/5
f 369/2/5 367/2/5 366/2/5
f 369/1/5 368/1/5 367/1/5
f 370/1/5 368/1/5 369/1/5
f 371/2/5 369/2/5 365/2/5
f 371/2/5 370/2/5 369/2/5
f 372/2/5 370/2/5 371/2/5
f 373/1/5 372/1/5 371/1/5
f 374/2/5 370/2/5 372/2/5
f 374/1/5 372/1/5 373/1/5
f 375/2/5 370/2/5 374/2/5
f 376/2/5 370/2/5 375/2/5
f 377/2/5 374/2/5 373/2/5
f 377/2/5 375/2/5 374/2/5
f 378/2/5 375/2/5 377/2/5
f 379/1/5 376/1/5 375/1/5
f 379/2/5 375/2/5 378/2/5
f 380/1/5 376/1/5 379/1/5
f 381/1/5 378/1/5 377/1/5
f 382/2/5 379/2/5 378/2/5
f 382/1/5 378/1/5 381/1/5
f 383/2/5 379/2/5 382/2/5
f 386/2/5 385/2/5 384/2/5
f 387/2/5 385/2/5 386/2/5
f 392/2/5 389/2/5 388/2/5
f 393/2/5 389/2/5 392/2/5
f 394/2/5 391/2/5 390/2/5
f 395/2/5 391/2/5 394/2/5
f 398/1/5 397/1/5 396/1/5
f 399/1/5 397/1/5 398/1/5
f 402/2/5 401/2/5 400/2/5
f 403/2/5 401/2/5 402/2/5
f 406/2/5 405/2/5 404/2/5
f 407/2/5 405/2/5 406/2/5
f 408/2/5 405/2/5 407/2/5
f 409/2/5 405/2/5 408/2/5
f 412/2/5 411/2/5 410/2/5
f 413/2/5 411/2/5 412/2/5
f 418/1/5 415/1/5 414/1/5
f 419/1/5 415/1/5 418/1/5
f 420/2/5 417/2/5 416/2/5
f 421/2/5 417/2/5 420/2/5
f 422/1/6 423/1/6 426/1/6
f 424/2/6 425/2/6 427/2/6
f 422/1/6 426/1/6 428/1/6
f 426/2/6 427/2/6 429/2/6
f 428/1/6 426/1/6 429/1/6
f 427/2/6 425/2/6 430/2/6
f 429/2/6 427/2/6 430/2/6
f 430/2/6 425/2/6 431/2/6
f 428/2/6 429/2/6 432/2/6
f 430/1/6 431/1/6 433/1/6
f 433/1/6 431/1/6 434/1/6
f 428/2/6 432/2/6 435/2/6
f 435/2/6 432/2/6 436/2/6
f 437/1/6 438/1/6 439/1/6
f 439/1/6 438/1/6 440/1/6
f 441/1/6 442/1/6 443/1/6
f 443/1/6 442/1/6 444/1/6
f 443/2/6 444/2/6 447/2/6
f 444/2/6 445/2/6 447/2/6
f 447/2/6 445/2/6 448/2/6
f 448/2/6 445/2/6 449/2/6
f 446/2/6 447/2/6 450/2/6
f 447/2/6 448/2/6 450/2/6
f 448/1/6 449/1/6 451/1/6
f 450/2/6 448/2/6 451/2/6
f 451/1/6 449/1/6 452/1/6
f 446/2/6 450/2/6 453/2/6
f 453/2/6 450/2/6 454/2/6
f 451/2/6 452/2/6 455/2/6
f 455/2/6 452/2/6 456/2/6
f 454/2/6 455/2/6 457/2/6
f 457/2/6 455/2/6 458/2/6
f 459/2/6 460/2/6 462/2/6
f 462/2/6 460/2/6 463/2/6
f 461/1/6 462/1/6 465/1/6
f 465/1/6 462/1/6 466/1/6
f 463/2/6 464/2/6 467/2/6
f 467/2/6 464/2/6 468/2/6
f 469/2/6 470/2/6 471/2/6
f 471/2/6 470/2/6 472/2/6
f 473/1/6 474/1/6 475/1/6
f 475/1/6 474/1/6 476/1/6
f 477/2/6 478/2/6 479/2/6
f 479/2/6 478/2/6 480/2/6
f 481/2/6 482/2/6 484/2/6
f 482/1/6 483/1/6 485/1/6
f 484/2/6 482/2/6 485/2/6
f 485/1/6 483/1/6 486/1/6
f 487/2/6 488/2/6 491/2/6
f 491/2/6 488/2/6 492/2/6
f 489/2/6 490/2/6 493/2/6
f 493/2/6 490/2/6 494/2/6
f 492/2/6 493/2/6 495/2/6
f 495/2/6 493/2/6 496/2/6
f 497/2/6 498/2/6 501/2/6
f 501/2/6 498/2/6 502/2/6
f 499/1/6 500/1/6 503/1/6
f 503/1/6 500/1/6 504/1/6
f 502/2/6 503/2/6 505/2/6
f 505/2/6 503/2/6 506/2/6
f 507/1/6 508/1/6 509/1/6
f 509/1/6 508/1/6 510/1/6
