# MagicaVoxel @ ephtracy

# material
mtllib LavaPuzzle_006.mtl
usemtl palette

# normals
vn -1 0 0
vn 1 0 0
vn 0 0 1
vn 0 0 -1
vn 0 -1 0
vn 0 1 0

# texcoords
vt 0.970703 0.5
vt 0.974609 0.5

# verts
v -22.5 0 22.5
v -22.5 0 -22.5
v -22.5 4 -3.5
v -22.5 4 -7.5
v -22.5 5 -3.5
v -22.5 5 -7.5
v -22.5 6 22.5
v -22.5 6 -3.5
v -22.5 6 -7.5
v -22.5 6 -22.5
v -18.5 4 16.5
v -18.5 4 10.5
v -18.5 4 3.5
v -18.5 4 0.5
v -18.5 6 16.5
v -18.5 6 10.5
v -18.5 6 3.5
v -18.5 6 0.5
v -13.5 4 -11.5
v -13.5 4 -17.5
v -13.5 6 -11.5
v -13.5 6 -17.5
v -10.5 4 16.5
v -10.5 4 -2.5
v -10.5 4 -9.5
v -10.5 4 -11.5
v -10.5 4 -17.5
v -10.5 4 -19.5
v -10.5 6 16.5
v -10.5 6 -2.5
v -10.5 6 -9.5
v -10.5 6 -11.5
v -10.5 6 -17.5
v -10.5 6 -19.5
v -4.5 5 10.5
v -4.5 5 -3.5
v -4.5 5 -7.5
v -4.5 5 -14.5
v -4.5 6 10.5
v -4.5 6 -3.5
v -4.5 6 -7.5
v -4.5 6 -14.5
v -1.5 4 7.5
v -1.5 4 -0.5
v -1.5 6 7.5
v -1.5 6 -0.5
v 2.5 4 20.5
v 2.5 4 16.5
v 2.5 4 8.5
v 2.5 4 -1.5
v 2.5 4 -9.5
v 2.5 4 -12.5
v 2.5 6 20.5
v 2.5 6 16.5
v 2.5 6 8.5
v 2.5 6 -1.5
v 2.5 6 -9.5
v 2.5 6 -12.5
v 8.5 5 22.5
v 8.5 5 -18.5
v 8.5 6 22.5
v 8.5 6 -18.5
v 14.5 4 17.5
v 14.5 4 12.5
v 14.5 4 9.5
v 14.5 4 -15.5
v 14.5 6 17.5
v 14.5 6 12.5
v 14.5 6 9.5
v 14.5 6 -15.5
v 20.5 4 12.5
v 20.5 4 -17.5
v 20.5 6 12.5
v 20.5 6 -17.5
v -20.5 4 20.5
v -20.5 4 8.5
v -20.5 4 5.5
v -20.5 4 -2.5
v -20.5 4 -9.5
v -20.5 4 -11.5
v -20.5 4 -17.5
v -20.5 4 -19.5
v -20.5 6 20.5
v -20.5 6 8.5
v -20.5 6 5.5
v -20.5 6 -2.5
v -20.5 6 -9.5
v -20.5 6 -11.5
v -20.5 6 -17.5
v -20.5 6 -19.5
v -16.5 4 -11.5
v -16.5 4 -17.5
v -16.5 6 -11.5
v -16.5 6 -17.5
v -12.5 4 16.5
v -12.5 4 10.5
v -12.5 4 8.5
v -12.5 4 5.5
v -12.5 4 3.5
v -12.5 4 0.5
v -12.5 6 16.5
v -12.5 6 10.5
v -12.5 6 8.5
v -12.5 6 5.5
v -12.5 6 3.5
v -12.5 6 0.5
v -8.5 5 14.5
v -8.5 5 -3.5
v -8.5 5 -7.5
v -8.5 5 -18.5
v -8.5 6 14.5
v -8.5 6 -3.5
v -8.5 6 -7.5
v -8.5 6 -18.5
v -2.5 4 8.5
v -2.5 4 -1.5
v -2.5 4 -9.5
v -2.5 4 -12.5
v -2.5 6 8.5
v -2.5 6 -1.5
v -2.5 6 -9.5
v -2.5 6 -12.5
v 1.5 4 7.5
v 1.5 4 -0.5
v 1.5 6 7.5
v 1.5 6 -0.5
v 4.5 5 22.5
v 4.5 5 14.5
v 4.5 5 10.5
v 4.5 5 -3.5
v 4.5 5 -7.5
v 4.5 5 -14.5
v 4.5 6 22.5
v 4.5 6 14.5
v 4.5 6 10.5
v 4.5 6 -3.5
v 4.5 6 -7.5
v 4.5 6 -14.5
v 12.5 4 17.5
v 12.5 4 -17.5
v 12.5 6 17.5
v 12.5 6 -17.5
v 18.5 4 9.5
v 18.5 4 -15.5
v 18.5 6 9.5
v 18.5 6 -15.5
v 22.5 0 22.5
v 22.5 0 -22.5
v 22.5 3 -12.5
v 22.5 3 -16.5
v 22.5 4 -12.5
v 22.5 4 -16.5
v 22.5 6 22.5
v 22.5 6 -22.5
v -22.5 0 22.5
v -22.5 6 22.5
v 4.5 4 22.5
v 4.5 5 22.5
v 4.5 6 22.5
v 8.5 4 22.5
v 8.5 5 22.5
v 8.5 6 22.5
v 22.5 0 22.5
v 22.5 6 22.5
v -18.5 4 16.5
v -18.5 6 16.5
v -12.5 4 16.5
v -12.5 6 16.5
v -10.5 4 16.5
v -10.5 6 16.5
v 2.5 4 16.5
v 2.5 6 16.5
v -4.5 5 10.5
v -4.5 6 10.5
v 4.5 5 10.5
v 4.5 6 10.5
v 14.5 4 9.5
v 14.5 6 9.5
v 18.5 4 9.5
v 18.5 6 9.5
v -20.5 4 8.5
v -20.5 6 8.5
v -12.5 4 8.5
v -12.5 6 8.5
v -1.5 4 7.5
v -1.5 6 7.5
v 1.5 4 7.5
v 1.5 6 7.5
v -18.5 4 3.5
v -18.5 6 3.5
v -12.5 4 3.5
v -12.5 6 3.5
v -2.5 4 -1.5
v -2.5 6 -1.5
v 2.5 4 -1.5
v 2.5 6 -1.5
v -20.5 4 -2.5
v -20.5 6 -2.5
v -10.5 4 -2.5
v -10.5 6 -2.5
v -22.5 5 -7.5
v -22.5 6 -7.5
v -8.5 5 -7.5
v -8.5 6 -7.5
v -4.5 5 -7.5
v -4.5 6 -7.5
v 4.5 5 -7.5
v 4.5 6 -7.5
v -20.5 4 -11.5
v -20.5 6 -11.5
v -16.5 4 -11.5
v -16.5 6 -11.5
v -13.5 4 -11.5
v -13.5 6 -11.5
v -10.5 4 -11.5
v -10.5 6 -11.5
v -2.5 4 -12.5
v -2.5 6 -12.5
v 2.5 4 -12.5
v 2.5 6 -12.5
v 12.5 4 -17.5
v 12.5 6 -17.5
v 20.5 4 -17.5
v 20.5 6 -17.5
v -8.5 5 -18.5
v -8.5 6 -18.5
v 8.5 5 -18.5
v 8.5 6 -18.5
v -20.5 4 -19.5
v -20.5 6 -19.5
v -10.5 4 -19.5
v -10.5 6 -19.5
v -20.5 4 20.5
v -20.5 6 20.5
v 2.5 4 20.5
v 2.5 6 20.5
v 12.5 4 17.5
v 12.5 6 17.5
v 14.5 4 17.5
v 14.5 6 17.5
v -8.5 5 14.5
v -8.5 6 14.5
v 4.5 5 14.5
v 4.5 6 14.5
v 14.5 4 12.5
v 14.5 6 12.5
v 20.5 4 12.5
v 20.5 6 12.5
v -18.5 4 10.5
v -18.5 6 10.5
v -12.5 4 10.5
v -12.5 6 10.5
v -2.5 4 8.5
v -2.5 6 8.5
v 2.5 4 8.5
v 2.5 6 8.5
v -20.5 4 5.5
v -20.5 6 5.5
v -12.5 4 5.5
v -12.5 6 5.5
v -18.5 4 0.5
v -18.5 6 0.5
v -12.5 4 0.5
v -12.5 6 0.5
v -1.5 4 -0.5
v -1.5 6 -0.5
v 1.5 4 -0.5
v 1.5 6 -0.5
v -22.5 5 -3.5
v -22.5 6 -3.5
v -8.5 5 -3.5
v -8.5 6 -3.5
v -4.5 5 -3.5
v -4.5 6 -3.5
v 4.5 5 -3.5
v 4.5 6 -3.5
v -20.5 4 -9.5
v -20.5 6 -9.5
v -10.5 4 -9.5
v -10.5 6 -9.5
v -2.5 4 -9.5
v -2.5 6 -9.5
v 2.5 4 -9.5
v 2.5 6 -9.5
v -4.5 5 -14.5
v -4.5 6 -14.5
v 4.5 5 -14.5
v 4.5 6 -14.5
v 14.5 4 -15.5
v 14.5 6 -15.5
v 18.5 4 -15.5
v 18.5 6 -15.5
v -20.5 4 -17.5
v -20.5 6 -17.5
v -16.5 4 -17.5
v -16.5 6 -17.5
v -13.5 4 -17.5
v -13.5 6 -17.5
v -10.5 4 -17.5
v -10.5 6 -17.5
v -22.5 0 -22.5
v -22.5 6 -22.5
v 22.5 0 -22.5
v 22.5 6 -22.5
v -22.5 0 22.5
v 22.5 0 22.5
v -22.5 0 -22.5
v 22.5 0 -22.5
v -20.5 4 20.5
v 2.5 4 20.5
v 12.5 4 17.5
v 14.5 4 17.5
v -18.5 4 16.5
v -12.5 4 16.5
v -10.5 4 16.5
v 2.5 4 16.5
v 14.5 4 12.5
v 20.5 4 12.5
v -18.5 4 10.5
v -12.5 4 10.5
v 14.5 4 9.5
v 18.5 4 9.5
v -20.5 4 8.5
v -12.5 4 8.5
v -2.5 4 8.5
v 2.5 4 8.5
v -1.5 4 7.5
v 1.5 4 7.5
v -20.5 4 5.5
v -12.5 4 5.5
v -18.5 4 3.5
v -12.5 4 3.5
v -18.5 4 0.5
v -12.5 4 0.5
v -1.5 4 -0.5
v 1.5 4 -0.5
v -2.5 4 -1.5
v 2.5 4 -1.5
v -20.5 4 -2.5
v -10.5 4 -2.5
v -20.5 4 -9.5
v -10.5 4 -9.5
v -2.5 4 -9.5
v 2.5 4 -9.5
v -20.5 4 -11.5
v -16.5 4 -11.5
v -13.5 4 -11.5
v -10.5 4 -11.5
v -2.5 4 -12.5
v 2.5 4 -12.5
v 14.5 4 -15.5
v 18.5 4 -15.5
v -20.5 4 -17.5
v -16.5 4 -17.5
v -13.5 4 -17.5
v -10.5 4 -17.5
v 12.5 4 -17.5
v 20.5 4 -17.5
v -20.5 4 -19.5
v -10.5 4 -19.5
v 4.5 5 22.5
v 8.5 5 22.5
v -8.5 5 14.5
v 4.5 5 14.5
v -4.5 5 10.5
v 4.5 5 10.5
v -22.5 5 -3.5
v -8.5 5 -3.5
v -4.5 5 -3.5
v 4.5 5 -3.5
v -22.5 5 -7.5
v -8.5 5 -7.5
v -4.5 5 -7.5
v 4.5 5 -7.5
v -4.5 5 -14.5
v 4.5 5 -14.5
v -8.5 5 -18.5
v 8.5 5 -18.5
v -22.5 6 22.5
v 4.5 6 22.5
v 8.5 6 22.5
v 22.5 6 22.5
v -20.5 6 20.5
v 2.5 6 20.5
v 12.5 6 17.5
v 14.5 6 17.5
v -18.5 6 16.5
v -12.5 6 16.5
v -10.5 6 16.5
v 2.5 6 16.5
v -8.5 6 14.5
v 4.5 6 14.5
v 14.5 6 12.5
v 20.5 6 12.5
v -18.5 6 10.5
v -12.5 6 10.5
v -4.5 6 10.5
v 4.5 6 10.5
v 14.5 6 9.5
v 18.5 6 9.5
v -20.5 6 8.5
v -12.5 6 8.5
v -2.5 6 8.5
v 2.5 6 8.5
v -1.5 6 7.5
v 1.5 6 7.5
v -20.5 6 5.5
v -12.5 6 5.5
v -18.5 6 3.5
v -12.5 6 3.5
v -18.5 6 0.5
v -12.5 6 0.5
v -1.5 6 -0.5
v 1.5 6 -0.5
v -2.5 6 -1.5
v 2.5 6 -1.5
v -20.5 6 -2.5
v -10.5 6 -2.5
v -22.5 6 -3.5
v -8.5 6 -3.5
v -4.5 6 -3.5
v 4.5 6 -3.5
v -22.5 6 -7.5
v -8.5 6 -7.5
v -4.5 6 -7.5
v 4.5 6 -7.5
v -20.5 6 -9.5
v -10.5 6 -9.5
v -2.5 6 -9.5
v 2.5 6 -9.5
v -20.5 6 -11.5
v -16.5 6 -11.5
v -13.5 6 -11.5
v -10.5 6 -11.5
v -2.5 6 -12.5
v 2.5 6 -12.5
v -4.5 6 -14.5
v 4.5 6 -14.5
v 14.5 6 -15.5
v 18.5 6 -15.5
v -20.5 6 -17.5
v -16.5 6 -17.5
v -13.5 6 -17.5
v -10.5 6 -17.5
v 12.5 6 -17.5
v 20.5 6 -17.5
v -8.5 6 -18.5
v 8.5 6 -18.5
v -20.5 6 -19.5
v -10.5 6 -19.5
v -22.5 6 -22.5
v 22.5 6 -22.5

# faces
f 3/1/1 2/1/1 1/1/1
f 4/1/1 2/1/1 3/1/1
f 5/1/1 3/1/1 1/1/1
f 5/2/1 4/2/1 3/2/1
f 6/1/1 2/1/1 4/1/1
f 6/2/1 4/2/1 5/2/1
f 7/1/1 5/1/1 1/1/1
f 8/1/1 5/1/1 7/1/1
f 9/1/1 2/1/1 6/1/1
f 10/1/1 2/1/1 9/1/1
f 15/1/1 12/1/1 11/1/1
f 16/1/1 12/1/1 15/1/1
f 17/1/1 14/1/1 13/1/1
f 18/1/1 14/1/1 17/1/1
f 21/1/1 20/1/1 19/1/1
f 22/1/1 20/1/1 21/1/1
f 29/1/1 24/1/1 23/1/1
f 30/1/1 24/1/1 29/1/1
f 31/1/1 26/1/1 25/1/1
f 32/1/1 26/1/1 31/1/1
f 33/1/1 28/1/1 27/1/1
f 34/1/1 28/1/1 33/1/1
f 39/1/1 36/1/1 35/1/1
f 40/1/1 36/1/1 39/1/1
f 41/1/1 38/1/1 37/1/1
f 42/1/1 38/1/1 41/1/1
f 45/1/1 44/1/1 43/1/1
f 46/1/1 44/1/1 45/1/1
f 53/1/1 48/1/1 47/1/1
f 54/1/1 48/1/1 53/1/1
f 55/1/1 50/1/1 49/1/1
f 56/1/1 50/1/1 55/1/1
f 57/1/1 52/1/1 51/1/1
f 58/1/1 52/1/1 57/1/1
f 61/1/1 60/1/1 59/1/1
f 62/1/1 60/1/1 61/1/1
f 67/1/1 64/1/1 63/1/1
f 68/1/1 64/1/1 67/1/1
f 69/1/1 66/1/1 65/1/1
f 70/1/1 66/1/1 69/1/1
f 73/1/1 72/1/1 71/1/1
f 74/1/1 72/1/1 73/1/1
f 75/1/2 76/1/2 83/1/2
f 83/1/2 76/1/2 84/1/2
f 77/1/2 78/1/2 85/1/2
f 85/1/2 78/1/2 86/1/2
f 79/1/2 80/1/2 87/1/2
f 87/1/2 80/1/2 88/1/2
f 81/1/2 82/1/2 89/1/2
f 89/1/2 82/1/2 90/1/2
f 91/1/2 92/1/2 93/1/2
f 93/1/2 92/1/2 94/1/2
f 95/1/2 96/1/2 101/1/2
f 101/1/2 96/1/2 102/1/2
f 97/1/2 98/1/2 103/1/2
f 103/1/2 98/1/2 104/1/2
f 99/1/2 100/1/2 105/1/2
f 105/1/2 100/1/2 106/1/2
f 107/1/2 108/1/2 111/1/2
f 111/1/2 108/1/2 112/1/2
f 109/1/2 110/1/2 113/1/2
f 113/1/2 110/1/2 114/1/2
f 115/1/2 116/1/2 119/1/2
f 119/1/2 116/1/2 120/1/2
f 117/1/2 118/1/2 121/1/2
f 121/1/2 118/1/2 122/1/2
f 123/1/2 124/1/2 125/1/2
f 125/1/2 124/1/2 126/1/2
f 127/1/2 128/1/2 133/1/2
f 133/1/2 128/1/2 134/1/2
f 129/1/2 130/1/2 135/1/2
f 135/1/2 130/1/2 136/1/2
f 131/1/2 132/1/2 137/1/2
f 137/1/2 132/1/2 138/1/2
f 139/1/2 140/1/2 141/1/2
f 141/1/2 140/1/2 142/1/2
f 143/1/2 144/1/2 145/1/2
f 145/1/2 144/1/2 146/1/2
f 147/1/2 148/1/2 149/1/2
f 149/1/2 148/1/2 150/1/2
f 147/1/2 149/1/2 151/1/2
f 149/2/2 150/2/2 151/2/2
f 150/1/2 148/1/2 152/1/2
f 151/2/2 150/2/2 152/2/2
f 147/1/2 151/1/2 153/1/2
f 151/1/2 152/1/2 153/1/2
f 152/1/2 148/1/2 154/1/2
f 153/1/2 152/1/2 154/1/2
f 157/1/3 156/1/3 155/1/3
f 158/1/3 156/1/3 157/1/3
f 159/1/3 156/1/3 158/1/3
f 160/1/3 157/1/3 155/1/3
f 160/2/3 158/2/3 157/2/3
f 161/2/3 158/2/3 160/2/3
f 163/1/3 160/1/3 155/1/3
f 163/1/3 162/1/3 161/1/3
f 163/1/3 161/1/3 160/1/3
f 164/1/3 162/1/3 163/1/3
f 167/1/3 166/1/3 165/1/3
f 168/1/3 166/1/3 167/1/3
f 171/1/3 170/1/3 169/1/3
f 172/1/3 170/1/3 171/1/3
f 175/1/3 174/1/3 173/1/3
f 176/1/3 174/1/3 175/1/3
f 179/1/3 178/1/3 177/1/3
f 180/1/3 178/1/3 179/1/3
f 183/1/3 182/1/3 181/1/3
f 184/1/3 182/1/3 183/1/3
f 187/1/3 186/1/3 185/1/3
f 188/1/3 186/1/3 187/1/3
f 191/1/3 190/1/3 189/1/3
f 192/1/3 190/1/3 191/1/3
f 195/1/3 194/1/3 193/1/3
f 196/1/3 194/1/3 195/1/3
f 199/1/3 198/1/3 197/1/3
f 200/1/3 198/1/3 199/1/3
f 203/1/3 202/1/3 201/1/3
f 204/1/3 202/1/3 203/1/3
f 207/1/3 206/1/3 205/1/3
f 208/1/3 206/1/3 207/1/3
f 211/1/3 210/1/3 209/1/3
f 212/1/3 210/1/3 211/1/3
f 215/1/3 214/1/3 213/1/3
f 216/1/3 214/1/3 215/1/3
f 219/1/3 218/1/3 217/1/3
f 220/1/3 218/1/3 219/1/3
f 223/1/3 222/1/3 221/1/3
f 224/1/3 222/1/3 223/1/3
f 227/1/3 226/1/3 225/1/3
f 228/1/3 226/1/3 227/1/3
f 231/1/3 230/1/3 229/1/3
f 232/1/3 230/1/3 231/1/3
f 233/1/4 234/1/4 235/1/4
f 235/1/4 234/1/4 236/1/4
f 237/1/4 238/1/4 239/1/4
f 239/1/4 238/1/4 240/1/4
f 241/1/4 242/1/4 243/1/4
f 243/1/4 242/1/4 244/1/4
f 245/1/4 246/1/4 247/1/4
f 247/1/4 246/1/4 248/1/4
f 249/1/4 250/1/4 251/1/4
f 251/1/4 250/1/4 252/1/4
f 253/1/4 254/1/4 255/1/4
f 255/1/4 254/1/4 256/1/4
f 257/1/4 258/1/4 259/1/4
f 259/1/4 258/1/4 260/1/4
f 261/1/4 262/1/4 263/1/4
f 263/1/4 262/1/4 264/1/4
f 265/1/4 266/1/4 267/1/4
f 267/1/4 266/1/4 268/1/4
f 269/1/4 270/1/4 271/1/4
f 271/1/4 270/1/4 272/1/4
f 273/1/4 274/1/4 275/1/4
f 275/1/4 274/1/4 276/1/4
f 277/1/4 278/1/4 279/1/4
f 279/1/4 278/1/4 280/1/4
f 281/1/4 282/1/4 283/1/4
f 283/1/4 282/1/4 284/1/4
f 285/1/4 286/1/4 287/1/4
f 287/1/4 286/1/4 288/1/4
f 289/1/4 290/1/4 291/1/4
f 291/1/4 290/1/4 292/1/4
f 293/1/4 294/1/4 295/1/4
f 295/1/4 294/1/4 296/1/4
f 297/1/4 298/1/4 299/1/4
f 299/1/4 298/1/4 300/1/4
f 301/1/4 302/1/4 303/1/4
f 303/1/4 302/1/4 304/1/4
f 307/1/5 306/1/5 305/1/5
f 308/1/5 306/1/5 307/1/5
f 309/2/6 310/2/6 313/2/6
f 313/2/6 310/2/6 314/2/6
f 314/2/6 310/2/6 315/2/6
f 315/2/6 310/2/6 316/2/6
f 311/2/6 312/2/6 317/2/6
f 309/2/6 313/2/6 319/2/6
f 314/2/6 315/2/6 320/2/6
f 317/2/6 318/2/6 321/2/6
f 311/2/6 317/2/6 321/2/6
f 321/2/6 318/2/6 322/2/6
f 309/2/6 319/2/6 323/2/6
f 319/2/6 320/2/6 323/2/6
f 320/2/6 315/2/6 324/2/6
f 323/2/6 320/2/6 324/2/6
f 325/2/6 326/2/6 327/2/6
f 327/2/6 326/2/6 328/2/6
f 324/2/6 315/2/6 330/2/6
f 329/2/6 330/2/6 331/2/6
f 330/2/6 315/2/6 332/2/6
f 331/2/6 330/2/6 332/2/6
f 329/2/6 331/2/6 333/2/6
f 332/2/6 315/2/6 334/2/6
f 325/2/6 327/2/6 335/2/6
f 328/2/6 326/2/6 336/2/6
f 325/2/6 335/2/6 337/2/6
f 335/2/6 336/2/6 337/2/6
f 336/2/6 326/2/6 338/2/6
f 337/2/6 336/2/6 338/2/6
f 333/2/6 334/2/6 339/2/6
f 329/2/6 333/2/6 339/2/6
f 334/2/6 315/2/6 340/2/6
f 339/2/6 334/2/6 340/2/6
f 341/2/6 342/2/6 345/2/6
f 345/2/6 342/2/6 346/2/6
f 346/2/6 342/2/6 347/2/6
f 347/2/6 342/2/6 348/2/6
f 343/2/6 344/2/6 349/2/6
f 349/2/6 344/2/6 350/2/6
f 311/2/6 321/2/6 351/2/6
f 322/2/6 318/2/6 352/2/6
f 346/2/6 347/2/6 354/2/6
f 354/2/6 347/2/6 355/2/6
f 311/2/6 351/2/6 357/2/6
f 351/2/6 352/2/6 357/2/6
f 352/2/6 318/2/6 358/2/6
f 357/2/6 352/2/6 358/2/6
f 355/2/6 356/2/6 359/2/6
f 354/2/6 355/2/6 359/2/6
f 353/2/6 354/2/6 359/2/6
f 359/2/6 356/2/6 360/2/6
f 361/2/6 362/2/6 364/2/6
f 363/2/6 364/2/6 365/2/6
f 364/2/6 362/2/6 366/2/6
f 365/2/6 364/2/6 366/2/6
f 363/2/6 365/2/6 368/2/6
f 368/2/6 365/2/6 369/2/6
f 366/2/6 362/2/6 370/2/6
f 368/2/6 369/2/6 371/2/6
f 369/2/6 370/2/6 371/2/6
f 367/2/6 368/2/6 371/2/6
f 371/2/6 370/2/6 372/2/6
f 372/2/6 370/2/6 373/2/6
f 370/2/6 362/2/6 374/2/6
f 373/2/6 370/2/6 374/2/6
f 372/2/6 373/2/6 375/2/6
f 374/2/6 362/2/6 376/2/6
f 372/2/6 375/2/6 377/2/6
f 375/2/6 376/2/6 377/2/6
f 376/2/6 362/2/6 378/2/6
f 377/2/6 376/2/6 378/2/6
f 379/1/6 380/1/6 383/1/6
f 383/1/6 380/1/6 384/1/6
f 381/1/6 382/1/6 385/1/6
f 385/1/6 382/1/6 386/1/6
f 384/1/6 380/1/6 390/1/6
f 389/1/6 390/1/6 391/1/6
f 390/1/6 380/1/6 392/1/6
f 391/1/6 390/1/6 392/1/6
f 386/1/6 382/1/6 393/1/6
f 393/1/6 382/1/6 394/1/6
f 387/1/6 388/1/6 395/1/6
f 395/1/6 388/1/6 396/1/6
f 379/1/6 383/1/6 401/1/6
f 397/1/6 398/1/6 403/1/6
f 403/1/6 398/1/6 404/1/6
f 401/1/6 402/1/6 407/1/6
f 379/1/6 401/1/6 407/1/6
f 407/1/6 402/1/6 408/1/6
f 409/1/6 410/1/6 411/1/6
f 411/1/6 410/1/6 412/1/6
f 405/1/6 406/1/6 413/1/6
f 413/1/6 406/1/6 414/1/6
f 397/1/6 403/1/6 415/1/6
f 404/1/6 398/1/6 416/1/6
f 379/1/6 407/1/6 417/1/6
f 389/1/6 391/1/6 418/1/6
f 379/1/6 417/1/6 419/1/6
f 417/1/6 418/1/6 419/1/6
f 418/1/6 391/1/6 420/1/6
f 419/1/6 418/1/6 420/1/6
f 397/1/6 415/1/6 421/1/6
f 415/1/6 416/1/6 421/1/6
f 416/1/6 398/1/6 422/1/6
f 421/1/6 416/1/6 422/1/6
f 423/1/6 424/1/6 427/1/6
f 427/1/6 424/1/6 428/1/6
f 425/1/6 426/1/6 429/1/6
f 429/1/6 426/1/6 430/1/6
f 423/1/6 427/1/6 431/1/6
f 428/1/6 424/1/6 434/1/6
f 425/1/6 429/1/6 435/1/6
f 430/1/6 426/1/6 436/1/6
f 425/1/6 435/1/6 437/1/6
f 435/1/6 436/1/6 437/1/6
f 436/1/6 426/1/6 438/1/6
f 437/1/6 436/1/6 438/1/6
f 399/1/6 400/1/6 439/1/6
f 439/1/6 400/1/6 440/1/6
f 431/1/6 432/1/6 441/1/6
f 423/1/6 431/1/6 441/1/6
f 441/1/6 432/1/6 442/1/6
f 433/1/6 434/1/6 443/1/6
f 434/1/6 424/1/6 444/1/6
f 443/1/6 434/1/6 444/1/6
f 381/1/6 385/1/6 445/1/6
f 394/1/6 382/1/6 446/1/6
f 444/1/6 424/1/6 447/1/6
f 381/1/6 445/1/6 448/1/6
f 445/1/6 446/1/6 448/1/6
f 423/1/6 441/1/6 449/1/6
f 444/1/6 447/1/6 450/1/6
f 447/1/6 448/1/6 450/1/6
f 423/1/6 449/1/6 451/1/6
f 449/1/6 450/1/6 451/1/6
f 450/1/6 448/1/6 452/1/6
f 451/1/6 450/1/6 452/1/6
f 448/1/6 446/1/6 452/1/6
f 446/1/6 382/1/6 452/1/6
