# MagicaVoxel @ ephtracy

# material
mtllib VOX_Room.mtl
usemtl palette

# normals
vn -1 0 0
vn 1 0 0
vn 0 0 1
vn 0 0 -1
vn 0 -1 0
vn 0 1 0

# texcoords
vt 0.978516 0.5
vt 0.982422 0.5
vt 0.986328 0.5
vt 0.990234 0.5

# verts
v -22.5 0 15
v -22.5 0 -15
v -22.5 15 15
v -22.5 15 -15
v 6.5 1 -14
v 6.5 1 -15
v 6.5 10 -14
v 6.5 10 -15
v 11.5 3 14
v 11.5 3 13
v 11.5 4 14
v 11.5 4 13
v 11.5 12 14
v 11.5 12 13
v 11.5 13 14
v 11.5 13 13
v 12.5 1 -14
v 12.5 1 -15
v 12.5 9 -14
v 12.5 9 -15
v 18.5 4 15
v 18.5 4 14
v 18.5 12 15
v 18.5 12 14
v -21.5 1 14
v -21.5 1 12
v -21.5 1 10
v -21.5 1 8
v -21.5 1 7
v -21.5 1 5
v -21.5 1 4
v -21.5 1 2
v -21.5 1 -0
v -21.5 1 -2
v -21.5 1 -3
v -21.5 1 -4
v -21.5 1 -6
v -21.5 1 -7
v -21.5 1 -8
v -21.5 1 -10
v -21.5 1 -12
v -21.5 1 -15
v -21.5 15 14
v -21.5 15 -15
v 7.5 1 -14
v 7.5 1 -15
v 7.5 9 -14
v 7.5 9 -15
v 11.5 4 15
v 11.5 4 14
v 11.5 12 15
v 11.5 12 14
v 13.5 1 -14
v 13.5 1 -15
v 13.5 10 -14
v 13.5 10 -15
v 18.5 3 14
v 18.5 3 13
v 18.5 4 14
v 18.5 4 13
v 18.5 12 14
v 18.5 12 13
v 18.5 13 14
v 18.5 13 13
v 22.5 0 15
v 22.5 0 14
v 22.5 0 12
v 22.5 0 11
v 22.5 0 10
v 22.5 0 8
v 22.5 0 3
v 22.5 0 2
v 22.5 0 -0
v 22.5 0 -1
v 22.5 0 -3
v 22.5 0 -4
v 22.5 0 -5
v 22.5 0 -8
v 22.5 0 -9
v 22.5 0 -13
v 22.5 0 -15
v 22.5 1 14
v 22.5 1 12
v 22.5 1 11
v 22.5 1 10
v 22.5 1 8
v 22.5 1 3
v 22.5 1 2
v 22.5 1 -0
v 22.5 1 -1
v 22.5 1 -3
v 22.5 1 -4
v 22.5 1 -5
v 22.5 1 -8
v 22.5 1 -9
v 22.5 1 -13
v 22.5 1 -15
v 22.5 15 15
v 22.5 15 14
v -22.5 0 15
v -22.5 15 15
v 11.5 3 15
v 11.5 4 15
v 11.5 12 15
v 18.5 3 15
v 18.5 4 15
v 18.5 12 15
v 22.5 0 15
v 22.5 15 15
v 6.5 1 -14
v 6.5 10 -14
v 7.5 1 -14
v 7.5 9 -14
v 12.5 1 -14
v 12.5 9 -14
v 13.5 1 -14
v 13.5 10 -14
v -21.5 1 14
v -21.5 15 14
v 0.5 1 14
v 11.5 3 14
v 11.5 4 14
v 11.5 12 14
v 11.5 13 14
v 18.5 3 14
v 18.5 4 14
v 18.5 12 14
v 18.5 13 14
v 22.5 1 14
v 22.5 15 14
v 11.5 3 13
v 11.5 4 13
v 11.5 12 13
v 11.5 13 13
v 18.5 3 13
v 18.5 4 13
v 18.5 12 13
v 18.5 13 13
v -22.5 0 -15
v -22.5 15 -15
v -21.5 1 -15
v -21.5 15 -15
v -16.5 0 -15
v -16.5 1 -15
v 5.5 0 -15
v 5.5 1 -15
v 6.5 1 -15
v 6.5 10 -15
v 7.5 1 -15
v 7.5 9 -15
v 12.5 1 -15
v 12.5 9 -15
v 13.5 1 -15
v 13.5 10 -15
v 22.5 0 -15
v 22.5 1 -15
v -22.5 0 15
v 22.5 0 15
v -21.5 0 14
v 0.5 0 14
v 22.5 0 14
v 0.5 0 13
v 1.5 0 13
v 16.5 0 13
v -21.5 0 12
v -10.5 0 12
v -3.5 0 12
v 1.5 0 12
v 16.5 0 12
v 22.5 0 12
v -12.5 0 11
v -10.5 0 11
v -3.5 0 11
v 22.5 0 11
v -21.5 0 10
v -12.5 0 10
v -11.5 0 10
v -10.5 0 10
v -3.5 0 10
v -2.5 0 10
v 22.5 0 10
v -11.5 0 9
v -2.5 0 9
v -21.5 0 8
v -11.5 0 8
v -2.5 0 8
v 22.5 0 8
v -21.5 0 7
v 18.5 0 7
v -21.5 0 5
v 18.5 0 5
v -21.5 0 4
v 6.5 0 4
v 6.5 0 3
v 22.5 0 3
v -21.5 0 2
v 6.5 0 2
v 11.5 0 2
v 22.5 0 2
v -21.5 0 -0
v 11.5 0 -0
v 22.5 0 -0
v -15.5 0 -1
v 22.5 0 -1
v -21.5 0 -2
v -15.5 0 -2
v 9.5 0 -2
v -21.5 0 -3
v 9.5 0 -3
v 22.5 0 -3
v -21.5 0 -4
v 17.5 0 -4
v 22.5 0 -4
v 17.5 0 -5
v 19.5 0 -5
v 22.5 0 -5
v -21.5 0 -6
v 19.5 0 -6
v -21.5 0 -7
v 17.5 0 -7
v -21.5 0 -8
v -17.5 0 -8
v 17.5 0 -8
v 22.5 0 -8
v -17.5 0 -9
v 22.5 0 -9
v -21.5 0 -10
v 20.5 0 -10
v -18.5 0 -11
v -8.5 0 -11
v 10.5 0 -11
v 20.5 0 -11
v 21.5 0 -11
v -21.5 0 -12
v -18.5 0 -12
v -8.5 0 -12
v 10.5 0 -12
v -18.5 0 -13
v -8.5 0 -13
v -3.5 0 -13
v 10.5 0 -13
v 21.5 0 -13
v 22.5 0 -13
v -16.5 0 -14
v -3.5 0 -14
v 5.5 0 -14
v -22.5 0 -15
v -16.5 0 -15
v 5.5 0 -15
v 22.5 0 -15
v 11.5 3 14
v 18.5 3 14
v 11.5 3 13
v 18.5 3 13
v 7.5 9 -14
v 12.5 9 -14
v 7.5 9 -15
v 12.5 9 -15
v 11.5 12 15
v 18.5 12 15
v 11.5 12 14
v 18.5 12 14
v 11.5 12 13
v 18.5 12 13
v -21.5 1 14
v 0.5 1 14
v 22.5 1 14
v 0.5 1 13
v 1.5 1 13
v 16.5 1 13
v -21.5 1 12
v -10.5 1 12
v -3.5 1 12
v 1.5 1 12
v 16.5 1 12
v 22.5 1 12
v -12.5 1 11
v -10.5 1 11
v -3.5 1 11
v 22.5 1 11
v -21.5 1 10
v -12.5 1 10
v -11.5 1 10
v -10.5 1 10
v -3.5 1 10
v -2.5 1 10
v 22.5 1 10
v -11.5 1 9
v -2.5 1 9
v -21.5 1 8
v -11.5 1 8
v -2.5 1 8
v 22.5 1 8
v -21.5 1 7
v 18.5 1 7
v -21.5 1 5
v 18.5 1 5
v -21.5 1 4
v 6.5 1 4
v 6.5 1 3
v 22.5 1 3
v -21.5 1 2
v 6.5 1 2
v 11.5 1 2
v 22.5 1 2
v -21.5 1 -0
v 11.5 1 -0
v 22.5 1 -0
v -15.5 1 -1
v 22.5 1 -1
v -21.5 1 -2
v -15.5 1 -2
v 9.5 1 -2
v -21.5 1 -3
v 9.5 1 -3
v 22.5 1 -3
v -21.5 1 -4
v 17.5 1 -4
v 22.5 1 -4
v 17.5 1 -5
v 19.5 1 -5
v 22.5 1 -5
v -21.5 1 -6
v 19.5 1 -6
v -21.5 1 -7
v 17.5 1 -7
v -21.5 1 -8
v -17.5 1 -8
v 17.5 1 -8
v 22.5 1 -8
v -17.5 1 -9
v 22.5 1 -9
v -21.5 1 -10
v 20.5 1 -10
v -18.5 1 -11
v -8.5 1 -11
v 10.5 1 -11
v 20.5 1 -11
v 21.5 1 -11
v -21.5 1 -12
v -18.5 1 -12
v -8.5 1 -12
v 10.5 1 -12
v -18.5 1 -13
v -8.5 1 -13
v -3.5 1 -13
v 10.5 1 -13
v 21.5 1 -13
v 22.5 1 -13
v -16.5 1 -14
v -3.5 1 -14
v 5.5 1 -14
v 6.5 1 -14
v 7.5 1 -14
v 12.5 1 -14
v 13.5 1 -14
v -21.5 1 -15
v -16.5 1 -15
v 5.5 1 -15
v 6.5 1 -15
v 7.5 1 -15
v 12.5 1 -15
v 13.5 1 -15
v 22.5 1 -15
v 11.5 4 15
v 18.5 4 15
v 11.5 4 14
v 18.5 4 14
v 11.5 4 13
v 18.5 4 13
v 6.5 10 -14
v 13.5 10 -14
v 6.5 10 -15
v 13.5 10 -15
v 11.5 13 14
v 18.5 13 14
v 11.5 13 13
v 18.5 13 13
v -22.5 15 15
v 22.5 15 15
v -21.5 15 14
v 22.5 15 14
v -22.5 15 -15
v -21.5 15 -15

# faces
f 3/2/1 2/2/1 1/2/1
f 4/2/1 2/2/1 3/2/1
f 7/3/1 6/3/1 5/3/1
f 8/3/1 6/3/1 7/3/1
f 11/1/1 10/1/1 9/1/1
f 12/1/1 10/1/1 11/1/1
f 15/1/1 14/1/1 13/1/1
f 16/1/1 14/1/1 15/1/1
f 19/3/1 18/3/1 17/3/1
f 20/3/1 18/3/1 19/3/1
f 23/2/1 22/2/1 21/2/1
f 24/2/1 22/2/1 23/2/1
f 25/2/2 26/2/2 43/2/2
f 41/2/2 42/2/2 43/2/2
f 40/2/2 41/2/2 43/2/2
f 39/2/2 40/2/2 43/2/2
f 38/2/2 39/2/2 43/2/2
f 37/2/2 38/2/2 43/2/2
f 36/2/2 37/2/2 43/2/2
f 35/2/2 36/2/2 43/2/2
f 34/2/2 35/2/2 43/2/2
f 33/2/2 34/2/2 43/2/2
f 32/2/2 33/2/2 43/2/2
f 31/2/2 32/2/2 43/2/2
f 30/2/2 31/2/2 43/2/2
f 29/2/2 30/2/2 43/2/2
f 28/2/2 29/2/2 43/2/2
f 27/2/2 28/2/2 43/2/2
f 26/2/2 27/2/2 43/2/2
f 43/2/2 42/2/2 44/2/2
f 45/3/2 46/3/2 47/3/2
f 47/3/2 46/3/2 48/3/2
f 49/2/2 50/2/2 51/2/2
f 51/2/2 50/2/2 52/2/2
f 53/3/2 54/3/2 55/3/2
f 55/3/2 54/3/2 56/3/2
f 57/1/2 58/1/2 59/1/2
f 59/1/2 58/1/2 60/1/2
f 61/1/2 62/1/2 63/1/2
f 63/1/2 62/1/2 64/1/2
f 65/2/2 66/2/2 82/2/2
f 66/4/2 67/4/2 82/4/2
f 67/2/2 68/2/2 83/2/2
f 82/4/2 67/4/2 83/4/2
f 68/3/2 69/3/2 84/3/2
f 83/2/2 68/2/2 84/2/2
f 69/4/2 70/4/2 85/4/2
f 84/3/2 69/3/2 85/3/2
f 70/2/2 71/2/2 86/2/2
f 85/4/2 70/4/2 86/4/2
f 71/3/2 72/3/2 87/3/2
f 86/2/2 71/2/2 87/2/2
f 72/4/2 73/4/2 88/4/2
f 87/3/2 72/3/2 88/3/2
f 73/2/2 74/2/2 89/2/2
f 88/4/2 73/4/2 89/4/2
f 74/3/2 75/3/2 90/3/2
f 89/2/2 74/2/2 90/2/2
f 75/2/2 76/2/2 91/2/2
f 90/3/2 75/3/2 91/3/2
f 76/4/2 77/4/2 92/4/2
f 91/2/2 76/2/2 92/2/2
f 77/2/2 78/2/2 93/2/2
f 92/4/2 77/4/2 93/4/2
f 78/3/2 79/3/2 94/3/2
f 93/2/2 78/2/2 94/2/2
f 79/2/2 80/2/2 95/2/2
f 94/3/2 79/3/2 95/3/2
f 80/3/2 81/3/2 96/3/2
f 95/2/2 80/2/2 96/2/2
f 96/3/2 81/3/2 97/3/2
f 65/2/2 82/2/2 98/2/2
f 98/2/2 82/2/2 99/2/2
f 102/2/3 101/2/3 100/2/3
f 103/2/3 101/2/3 102/2/3
f 104/2/3 101/2/3 103/2/3
f 105/2/3 102/2/3 100/2/3
f 105/1/3 103/1/3 102/1/3
f 106/1/3 103/1/3 105/1/3
f 107/2/3 101/2/3 104/2/3
f 108/2/3 106/2/3 105/2/3
f 108/2/3 107/2/3 106/2/3
f 108/2/3 105/2/3 100/2/3
f 109/2/3 101/2/3 107/2/3
f 109/2/3 107/2/3 108/2/3
f 112/3/3 111/3/3 110/3/3
f 113/3/3 111/3/3 112/3/3
f 115/3/3 111/3/3 113/3/3
f 116/3/3 115/3/3 114/3/3
f 117/3/3 111/3/3 115/3/3
f 117/3/3 115/3/3 116/3/3
f 118/2/4 119/2/4 120/2/4
f 120/2/4 119/2/4 121/2/4
f 121/2/4 119/2/4 122/2/4
f 122/2/4 119/2/4 123/2/4
f 123/2/4 119/2/4 124/2/4
f 120/2/4 121/2/4 125/2/4
f 124/2/4 119/2/4 128/2/4
f 126/2/4 127/2/4 129/2/4
f 127/2/4 128/2/4 129/2/4
f 120/2/4 125/2/4 129/2/4
f 125/2/4 126/2/4 129/2/4
f 128/2/4 119/2/4 130/2/4
f 129/2/4 128/2/4 130/2/4
f 131/1/4 132/1/4 135/1/4
f 135/1/4 132/1/4 136/1/4
f 133/1/4 134/1/4 137/1/4
f 137/1/4 134/1/4 138/1/4
f 139/2/4 140/2/4 141/2/4
f 141/2/4 140/2/4 142/2/4
f 139/2/4 141/2/4 143/2/4
f 143/2/4 141/2/4 144/2/4
f 143/4/4 144/4/4 145/4/4
f 145/4/4 144/4/4 146/4/4
f 145/3/4 146/3/4 147/3/4
f 145/3/4 147/3/4 149/3/4
f 147/3/4 148/3/4 149/3/4
f 149/3/4 148/3/4 150/3/4
f 145/3/4 149/3/4 151/3/4
f 150/3/4 148/3/4 152/3/4
f 145/3/4 151/3/4 153/3/4
f 151/3/4 152/3/4 153/3/4
f 152/3/4 148/3/4 154/3/4
f 153/3/4 152/3/4 154/3/4
f 145/3/4 153/3/4 155/3/4
f 155/3/4 153/3/4 156/3/4
f 159/2/5 158/2/5 157/2/5
f 160/2/5 158/2/5 159/2/5
f 161/2/5 158/2/5 160/2/5
f 162/3/5 160/3/5 159/3/5
f 162/4/5 161/4/5 160/4/5
f 163/4/5 161/4/5 162/4/5
f 164/4/5 161/4/5 163/4/5
f 165/2/5 159/2/5 157/2/5
f 165/3/5 162/3/5 159/3/5
f 165/3/5 163/3/5 162/3/5
f 166/3/5 163/3/5 165/3/5
f 167/3/5 163/3/5 166/3/5
f 168/2/5 164/2/5 163/2/5
f 168/3/5 163/3/5 167/3/5
f 169/4/5 161/4/5 164/4/5
f 169/2/5 164/2/5 168/2/5
f 170/4/5 161/4/5 169/4/5
f 171/2/5 166/2/5 165/2/5
f 172/4/5 167/4/5 166/4/5
f 172/2/5 166/2/5 171/2/5
f 173/2/5 168/2/5 167/2/5
f 173/4/5 167/4/5 172/4/5
f 173/2/5 169/2/5 168/2/5
f 173/2/5 170/2/5 169/2/5
f 174/2/5 170/2/5 173/2/5
f 175/2/5 171/2/5 165/2/5
f 175/2/5 165/2/5 157/2/5
f 176/3/5 172/3/5 171/3/5
f 176/2/5 171/2/5 175/2/5
f 177/3/5 172/3/5 176/3/5
f 178/4/5 173/4/5 172/4/5
f 178/3/5 172/3/5 177/3/5
f 179/3/5 174/3/5 173/3/5
f 179/4/5 173/4/5 178/4/5
f 180/3/5 174/3/5 179/3/5
f 181/3/5 174/3/5 180/3/5
f 182/3/5 178/3/5 177/3/5
f 182/4/5 177/4/5 176/4/5
f 182/4/5 176/4/5 175/4/5
f 182/3/5 180/3/5 179/3/5
f 182/3/5 179/3/5 178/3/5
f 183/4/5 181/4/5 180/4/5
f 183/3/5 180/3/5 182/3/5
f 184/2/5 175/2/5 157/2/5
f 184/4/5 182/4/5 175/4/5
f 185/2/5 183/2/5 182/2/5
f 185/4/5 182/4/5 184/4/5
f 186/4/5 181/4/5 183/4/5
f 186/2/5 183/2/5 185/2/5
f 187/4/5 181/4/5 186/4/5
f 188/2/5 185/2/5 184/2/5
f 188/2/5 184/2/5 157/2/5
f 188/2/5 187/2/5 186/2/5
f 188/2/5 186/2/5 185/2/5
f 189/2/5 187/2/5 188/2/5
f 190/2/5 188/2/5 157/2/5
f 190/3/5 189/3/5 188/3/5
f 191/2/5 187/2/5 189/2/5
f 191/3/5 189/3/5 190/3/5
f 192/2/5 190/2/5 157/2/5
f 192/2/5 191/2/5 190/2/5
f 193/2/5 191/2/5 192/2/5
f 194/4/5 193/4/5 192/4/5
f 194/2/5 191/2/5 193/2/5
f 195/2/5 187/2/5 191/2/5
f 195/2/5 191/2/5 194/2/5
f 196/4/5 194/4/5 192/4/5
f 196/2/5 192/2/5 157/2/5
f 197/3/5 195/3/5 194/3/5
f 197/4/5 194/4/5 196/4/5
f 198/3/5 195/3/5 197/3/5
f 199/3/5 195/3/5 198/3/5
f 200/2/5 196/2/5 157/2/5
f 200/3/5 197/3/5 196/3/5
f 200/3/5 198/3/5 197/3/5
f 201/4/5 199/4/5 198/4/5
f 201/3/5 198/3/5 200/3/5
f 202/4/5 199/4/5 201/4/5
f 203/2/5 201/2/5 200/2/5
f 203/2/5 202/2/5 201/2/5
f 204/2/5 202/2/5 203/2/5
f 205/2/5 200/2/5 157/2/5
f 205/2/5 203/2/5 200/2/5
f 206/3/5 204/3/5 203/3/5
f 206/2/5 203/2/5 205/2/5
f 207/3/5 204/3/5 206/3/5
f 208/2/5 205/2/5 157/2/5
f 208/4/5 206/4/5 205/4/5
f 208/4/5 207/4/5 206/4/5
f 209/3/5 204/3/5 207/3/5
f 209/4/5 207/4/5 208/4/5
f 210/3/5 204/3/5 209/3/5
f 211/2/5 208/2/5 157/2/5
f 211/2/5 209/2/5 208/2/5
f 211/2/5 210/2/5 209/2/5
f 212/2/5 210/2/5 211/2/5
f 213/2/5 210/2/5 212/2/5
f 214/3/5 212/3/5 211/3/5
f 214/4/5 213/4/5 212/4/5
f 215/4/5 213/4/5 214/4/5
f 216/4/5 213/4/5 215/4/5
f 217/2/5 211/2/5 157/2/5
f 217/3/5 214/3/5 211/3/5
f 217/3/5 215/3/5 214/3/5
f 218/2/5 216/2/5 215/2/5
f 218/3/5 215/3/5 217/3/5
f 219/2/5 217/2/5 157/2/5
f 219/2/5 218/2/5 217/2/5
f 220/2/5 218/2/5 219/2/5
f 221/2/5 219/2/5 157/2/5
f 221/4/5 220/4/5 219/4/5
f 222/4/5 220/4/5 221/4/5
f 223/2/5 218/2/5 220/2/5
f 223/4/5 220/4/5 222/4/5
f 224/2/5 216/2/5 218/2/5
f 224/2/5 218/2/5 223/2/5
f 225/3/5 223/3/5 222/3/5
f 225/2/5 222/2/5 221/2/5
f 225/3/5 224/3/5 223/3/5
f 226/3/5 224/3/5 225/3/5
f 227/2/5 221/2/5 157/2/5
f 227/2/5 225/2/5 221/2/5
f 227/2/5 226/2/5 225/2/5
f 228/2/5 226/2/5 227/2/5
f 229/3/5 228/3/5 227/3/5
f 230/3/5 228/3/5 229/3/5
f 231/3/5 228/3/5 230/3/5
f 232/2/5 226/2/5 228/2/5
f 232/3/5 228/3/5 231/3/5
f 233/2/5 226/2/5 232/2/5
f 234/2/5 227/2/5 157/2/5
f 234/3/5 229/3/5 227/3/5
f 235/4/5 230/4/5 229/4/5
f 235/3/5 229/3/5 234/3/5
f 236/3/5 231/3/5 230/3/5
f 236/4/5 230/4/5 235/4/5
f 237/4/5 233/4/5 232/4/5
f 237/3/5 231/3/5 236/3/5
f 237/4/5 232/4/5 231/4/5
f 238/2/5 235/2/5 234/2/5
f 238/4/5 236/4/5 235/4/5
f 239/2/5 237/2/5 236/2/5
f 239/4/5 236/4/5 238/4/5
f 240/2/5 237/2/5 239/2/5
f 241/4/5 233/4/5 237/4/5
f 241/2/5 237/2/5 240/2/5
f 242/2/5 226/2/5 233/2/5
f 242/4/5 233/4/5 241/4/5
f 243/2/5 226/2/5 242/2/5
f 244/2/5 240/2/5 239/2/5
f 244/2/5 239/2/5 238/2/5
f 245/3/5 241/3/5 240/3/5
f 245/2/5 240/2/5 244/2/5
f 245/3/5 243/3/5 242/3/5
f 245/3/5 242/3/5 241/3/5
f 246/3/5 243/3/5 245/3/5
f 247/2/5 244/2/5 238/2/5
f 247/2/5 238/2/5 234/2/5
f 247/2/5 234/2/5 157/2/5
f 248/4/5 246/4/5 245/4/5
f 248/2/5 244/2/5 247/2/5
f 248/4/5 245/4/5 244/4/5
f 249/3/5 243/3/5 246/3/5
f 249/4/5 246/4/5 248/4/5
f 250/3/5 243/3/5 249/3/5
f 253/1/5 252/1/5 251/1/5
f 254/1/5 252/1/5 253/1/5
f 257/3/5 256/3/5 255/3/5
f 258/3/5 256/3/5 257/3/5
f 261/2/5 260/2/5 259/2/5
f 262/2/5 260/2/5 261/2/5
f 263/1/5 262/1/5 261/1/5
f 264/1/5 262/1/5 263/1/5
f 265/3/6 266/3/6 268/3/6
f 266/4/6 267/4/6 268/4/6
f 268/4/6 267/4/6 269/4/6
f 269/4/6 267/4/6 270/4/6
f 265/3/6 268/3/6 271/3/6
f 268/3/6 269/3/6 271/3/6
f 271/3/6 269/3/6 272/3/6
f 272/3/6 269/3/6 273/3/6
f 269/2/6 270/2/6 274/2/6
f 273/3/6 269/3/6 274/3/6
f 270/4/6 267/4/6 275/4/6
f 274/2/6 270/2/6 275/2/6
f 275/4/6 267/4/6 276/4/6
f 271/2/6 272/2/6 277/2/6
f 272/4/6 273/4/6 278/4/6
f 277/2/6 272/2/6 278/2/6
f 273/2/6 274/2/6 279/2/6
f 278/4/6 273/4/6 279/4/6
f 274/2/6 275/2/6 279/2/6
f 275/2/6 276/2/6 279/2/6
f 279/2/6 276/2/6 280/2/6
f 271/2/6 277/2/6 281/2/6
f 277/3/6 278/3/6 282/3/6
f 281/2/6 277/2/6 282/2/6
f 282/3/6 278/3/6 283/3/6
f 278/4/6 279/4/6 284/4/6
f 283/3/6 278/3/6 284/3/6
f 279/3/6 280/3/6 285/3/6
f 284/4/6 279/4/6 285/4/6
f 285/3/6 280/3/6 286/3/6
f 286/3/6 280/3/6 287/3/6
f 282/4/6 283/4/6 288/4/6
f 283/3/6 284/3/6 288/3/6
f 281/4/6 282/4/6 288/4/6
f 285/3/6 286/3/6 288/3/6
f 284/3/6 285/3/6 288/3/6
f 286/4/6 287/4/6 289/4/6
f 288/3/6 286/3/6 289/3/6
f 281/4/6 288/4/6 290/4/6
f 288/2/6 289/2/6 291/2/6
f 290/4/6 288/4/6 291/4/6
f 289/4/6 287/4/6 292/4/6
f 291/2/6 289/2/6 292/2/6
f 292/4/6 287/4/6 293/4/6
f 290/2/6 291/2/6 294/2/6
f 291/2/6 292/2/6 294/2/6
f 292/2/6 293/2/6 294/2/6
f 294/2/6 293/2/6 295/2/6
f 294/3/6 295/3/6 296/3/6
f 295/2/6 293/2/6 297/2/6
f 296/3/6 295/3/6 297/3/6
f 296/2/6 297/2/6 298/2/6
f 298/2/6 297/2/6 299/2/6
f 298/4/6 299/4/6 300/4/6
f 299/2/6 297/2/6 300/2/6
f 297/2/6 293/2/6 301/2/6
f 300/2/6 297/2/6 301/2/6
f 298/4/6 300/4/6 302/4/6
f 300/3/6 301/3/6 303/3/6
f 302/4/6 300/4/6 303/4/6
f 303/3/6 301/3/6 304/3/6
f 304/3/6 301/3/6 305/3/6
f 302/3/6 303/3/6 306/3/6
f 303/3/6 304/3/6 306/3/6
f 304/4/6 305/4/6 307/4/6
f 306/3/6 304/3/6 307/3/6
f 307/4/6 305/4/6 308/4/6
f 306/2/6 307/2/6 309/2/6
f 307/2/6 308/2/6 309/2/6
f 309/2/6 308/2/6 310/2/6
f 306/2/6 309/2/6 311/2/6
f 309/3/6 310/3/6 312/3/6
f 311/2/6 309/2/6 312/2/6
f 312/3/6 310/3/6 313/3/6
f 311/4/6 312/4/6 314/4/6
f 312/4/6 313/4/6 314/4/6
f 313/3/6 310/3/6 315/3/6
f 314/4/6 313/4/6 315/4/6
f 315/3/6 310/3/6 316/3/6
f 314/2/6 315/2/6 317/2/6
f 315/2/6 316/2/6 317/2/6
f 317/2/6 316/2/6 318/2/6
f 318/2/6 316/2/6 319/2/6
f 317/3/6 318/3/6 320/3/6
f 318/4/6 319/4/6 320/4/6
f 320/4/6 319/4/6 321/4/6
f 321/4/6 319/4/6 322/4/6
f 317/3/6 320/3/6 323/3/6
f 320/3/6 321/3/6 323/3/6
f 321/2/6 322/2/6 324/2/6
f 323/3/6 321/3/6 324/3/6
f 323/2/6 324/2/6 325/2/6
f 325/2/6 324/2/6 326/2/6
f 325/4/6 326/4/6 327/4/6
f 327/4/6 326/4/6 328/4/6
f 326/2/6 324/2/6 329/2/6
f 328/4/6 326/4/6 329/4/6
f 324/2/6 322/2/6 330/2/6
f 329/2/6 324/2/6 330/2/6
f 328/3/6 329/3/6 331/3/6
f 327/2/6 328/2/6 331/2/6
f 329/3/6 330/3/6 331/3/6
f 331/3/6 330/3/6 332/3/6
f 327/2/6 331/2/6 333/2/6
f 331/2/6 332/2/6 333/2/6
f 333/2/6 332/2/6 334/2/6
f 333/3/6 334/3/6 335/3/6
f 335/3/6 334/3/6 336/3/6
f 336/3/6 334/3/6 337/3/6
f 334/2/6 332/2/6 338/2/6
f 337/3/6 334/3/6 338/3/6
f 338/2/6 332/2/6 339/2/6
f 333/3/6 335/3/6 340/3/6
f 335/4/6 336/4/6 341/4/6
f 340/3/6 335/3/6 341/3/6
f 336/3/6 337/3/6 342/3/6
f 341/4/6 336/4/6 342/4/6
f 337/4/6 338/4/6 343/4/6
f 342/3/6 337/3/6 343/3/6
f 338/4/6 339/4/6 343/4/6
f 340/2/6 341/2/6 344/2/6
f 341/4/6 342/4/6 344/4/6
f 342/2/6 343/2/6 345/2/6
f 344/4/6 342/4/6 345/4/6
f 345/2/6 343/2/6 346/2/6
f 343/4/6 339/4/6 347/4/6
f 346/2/6 343/2/6 347/2/6
f 339/2/6 332/2/6 348/2/6
f 347/4/6 339/4/6 348/4/6
f 348/2/6 332/2/6 349/2/6
f 345/2/6 346/2/6 350/2/6
f 344/2/6 345/2/6 350/2/6
f 346/3/6 347/3/6 351/3/6
f 350/2/6 346/2/6 351/2/6
f 348/3/6 349/3/6 351/3/6
f 347/3/6 348/3/6 351/3/6
f 351/3/6 349/3/6 352/3/6
f 352/3/6 349/3/6 353/3/6
f 353/3/6 349/3/6 354/3/6
f 354/3/6 349/3/6 355/3/6
f 355/3/6 349/3/6 356/3/6
f 344/2/6 350/2/6 357/2/6
f 340/2/6 344/2/6 357/2/6
f 350/4/6 351/4/6 358/4/6
f 357/2/6 350/2/6 358/2/6
f 351/4/6 352/4/6 358/4/6
f 352/3/6 353/3/6 359/3/6
f 358/4/6 352/4/6 359/4/6
f 359/3/6 353/3/6 360/3/6
f 354/3/6 355/3/6 361/3/6
f 361/3/6 355/3/6 362/3/6
f 356/3/6 349/3/6 363/3/6
f 363/3/6 349/3/6 364/3/6
f 365/1/6 366/1/6 367/1/6
f 367/1/6 366/1/6 368/1/6
f 367/1/6 368/1/6 369/1/6
f 369/1/6 368/1/6 370/1/6
f 371/3/6 372/3/6 373/3/6
f 373/3/6 372/3/6 374/3/6
f 375/1/6 376/1/6 377/1/6
f 377/1/6 376/1/6 378/1/6
f 379/2/6 380/2/6 381/2/6
f 381/2/6 380/2/6 382/2/6
f 379/2/6 381/2/6 383/2/6
f 383/2/6 381/2/6 384/2/6
