# MagicaVoxel @ ephtracy

# material
mtllib VOX_Room.mtl
usemtl palette

# normals
vn -1 0 0
vn 1 0 0
vn 0 0 1
vn 0 0 -1
vn 0 -1 0
vn 0 1 0

# texcoords
vt 0.978516 0.5
vt 0.982422 0.5
vt 0.986328 0.5
vt 0.990234 0.5

# verts
v -22.5 0 15
v -22.5 0 -15
v -22.5 15 15
v -22.5 15 -15
v 11.5 3 14
v 11.5 3 13
v 11.5 4 14
v 11.5 4 13
v 11.5 12 14
v 11.5 12 13
v 11.5 13 14
v 11.5 13 13
v 12.5 1 -14
v 12.5 1 -15
v 12.5 9 -14
v 12.5 9 -15
v 18.5 4 15
v 18.5 4 14
v 18.5 12 15
v 18.5 12 14
v 21.5 1 14
v 21.5 1 12
v 21.5 1 11
v 21.5 1 10
v 21.5 1 8
v 21.5 1 3
v 21.5 1 2
v 21.5 1 -0
v 21.5 1 -1
v 21.5 1 -3
v 21.5 1 -4
v 21.5 1 -5
v 21.5 1 -8
v 21.5 1 -9
v 21.5 1 -11
v 21.5 1 -13
v 21.5 1 -14
v 21.5 15 14
v 21.5 15 -14
v -21.5 1 14
v -21.5 1 12
v -21.5 1 10
v -21.5 1 8
v -21.5 1 7
v -21.5 1 5
v -21.5 1 4
v -21.5 1 2
v -21.5 1 -0
v -21.5 1 -2
v -21.5 1 -3
v -21.5 1 -4
v -21.5 1 -6
v -21.5 1 -7
v -21.5 1 -8
v -21.5 1 -10
v -21.5 1 -12
v -21.5 1 -14
v -21.5 15 14
v -21.5 15 -14
v 7.5 1 -14
v 7.5 1 -15
v 7.5 9 -14
v 7.5 9 -15
v 11.5 4 15
v 11.5 4 14
v 11.5 12 15
v 11.5 12 14
v 18.5 3 14
v 18.5 3 13
v 18.5 4 14
v 18.5 4 13
v 18.5 12 14
v 18.5 12 13
v 18.5 13 14
v 18.5 13 13
v 22.5 0 15
v 22.5 0 14
v 22.5 0 12
v 22.5 0 11
v 22.5 0 10
v 22.5 0 8
v 22.5 0 3
v 22.5 0 2
v 22.5 0 -0
v 22.5 0 -1
v 22.5 0 -3
v 22.5 0 -4
v 22.5 0 -5
v 22.5 0 -8
v 22.5 0 -9
v 22.5 0 -13
v 22.5 0 -15
v 22.5 1 14
v 22.5 1 12
v 22.5 1 11
v 22.5 1 10
v 22.5 1 8
v 22.5 1 3
v 22.5 1 2
v 22.5 1 -0
v 22.5 1 -1
v 22.5 1 -3
v 22.5 1 -4
v 22.5 1 -5
v 22.5 1 -8
v 22.5 1 -9
v 22.5 1 -13
v 22.5 1 -15
v 22.5 15 15
v 22.5 15 -15
v -22.5 0 15
v -22.5 15 15
v 11.5 3 15
v 11.5 4 15
v 11.5 12 15
v 18.5 3 15
v 18.5 4 15
v 18.5 12 15
v 22.5 0 15
v 22.5 15 15
v -21.5 1 -14
v -21.5 15 -14
v -3.5 1 -14
v 6.5 1 -14
v 6.5 10 -14
v 7.5 1 -14
v 7.5 9 -14
v 12.5 1 -14
v 12.5 9 -14
v 13.5 1 -14
v 13.5 10 -14
v 21.5 1 -14
v 21.5 15 -14
v -21.5 1 14
v -21.5 15 14
v 0.5 1 14
v 11.5 3 14
v 11.5 4 14
v 11.5 12 14
v 11.5 13 14
v 18.5 3 14
v 18.5 4 14
v 18.5 12 14
v 18.5 13 14
v 21.5 1 14
v 21.5 15 14
v 11.5 3 13
v 11.5 4 13
v 11.5 12 13
v 11.5 13 13
v 18.5 3 13
v 18.5 4 13
v 18.5 12 13
v 18.5 13 13
v -22.5 0 -15
v -22.5 15 -15
v -16.5 0 -15
v -16.5 1 -15
v 5.5 0 -15
v 5.5 1 -15
v 6.5 1 -15
v 6.5 10 -15
v 7.5 1 -15
v 7.5 9 -15
v 12.5 1 -15
v 12.5 9 -15
v 13.5 1 -15
v 13.5 10 -15
v 22.5 0 -15
v 22.5 1 -15
v 22.5 15 -15
v -22.5 0 15
v 22.5 0 15
v -21.5 0 14
v 0.5 0 14
v 22.5 0 14
v 0.5 0 13
v 1.5 0 13
v 16.5 0 13
v -21.5 0 12
v -10.5 0 12
v -3.5 0 12
v 1.5 0 12
v 16.5 0 12
v 22.5 0 12
v -12.5 0 11
v -10.5 0 11
v -3.5 0 11
v 22.5 0 11
v -21.5 0 10
v -12.5 0 10
v -11.5 0 10
v -10.5 0 10
v -3.5 0 10
v -2.5 0 10
v 22.5 0 10
v -11.5 0 9
v -2.5 0 9
v -21.5 0 8
v -11.5 0 8
v -2.5 0 8
v 22.5 0 8
v -21.5 0 7
v 18.5 0 7
v -21.5 0 5
v 18.5 0 5
v -21.5 0 4
v 6.5 0 4
v 6.5 0 3
v 22.5 0 3
v -21.5 0 2
v 6.5 0 2
v 11.5 0 2
v 22.5 0 2
v -21.5 0 -0
v 11.5 0 -0
v 22.5 0 -0
v -15.5 0 -1
v 22.5 0 -1
v -21.5 0 -2
v -15.5 0 -2
v 9.5 0 -2
v -21.5 0 -3
v 9.5 0 -3
v 22.5 0 -3
v -21.5 0 -4
v 17.5 0 -4
v 22.5 0 -4
v 17.5 0 -5
v 19.5 0 -5
v 22.5 0 -5
v -21.5 0 -6
v 19.5 0 -6
v -21.5 0 -7
v 17.5 0 -7
v -21.5 0 -8
v -17.5 0 -8
v 17.5 0 -8
v 22.5 0 -8
v -17.5 0 -9
v 22.5 0 -9
v -21.5 0 -10
v 20.5 0 -10
v -18.5 0 -11
v -8.5 0 -11
v 10.5 0 -11
v 20.5 0 -11
v 21.5 0 -11
v -21.5 0 -12
v -18.5 0 -12
v -8.5 0 -12
v 10.5 0 -12
v -18.5 0 -13
v -8.5 0 -13
v -3.5 0 -13
v 10.5 0 -13
v 21.5 0 -13
v 22.5 0 -13
v -16.5 0 -14
v -3.5 0 -14
v 5.5 0 -14
v -22.5 0 -15
v -16.5 0 -15
v 5.5 0 -15
v 22.5 0 -15
v 11.5 3 14
v 18.5 3 14
v 11.5 3 13
v 18.5 3 13
v 7.5 9 -14
v 12.5 9 -14
v 7.5 9 -15
v 12.5 9 -15
v 11.5 12 15
v 18.5 12 15
v 11.5 12 14
v 18.5 12 14
v 11.5 12 13
v 18.5 12 13
v -21.5 1 14
v 0.5 1 14
v 21.5 1 14
v 0.5 1 13
v 1.5 1 13
v 16.5 1 13
v -21.5 1 12
v -10.5 1 12
v -3.5 1 12
v 1.5 1 12
v 16.5 1 12
v 21.5 1 12
v -12.5 1 11
v -10.5 1 11
v -3.5 1 11
v 21.5 1 11
v -21.5 1 10
v -12.5 1 10
v -11.5 1 10
v -10.5 1 10
v -3.5 1 10
v -2.5 1 10
v 21.5 1 10
v -11.5 1 9
v -2.5 1 9
v -21.5 1 8
v -11.5 1 8
v -2.5 1 8
v 21.5 1 8
v -21.5 1 7
v 18.5 1 7
v -21.5 1 5
v 18.5 1 5
v -21.5 1 4
v 6.5 1 4
v 6.5 1 3
v 21.5 1 3
v -21.5 1 2
v 6.5 1 2
v 11.5 1 2
v 21.5 1 2
v -21.5 1 -0
v 11.5 1 -0
v 21.5 1 -0
v -15.5 1 -1
v 21.5 1 -1
v -21.5 1 -2
v -15.5 1 -2
v 9.5 1 -2
v -21.5 1 -3
v 9.5 1 -3
v 21.5 1 -3
v -21.5 1 -4
v 17.5 1 -4
v 21.5 1 -4
v 17.5 1 -5
v 19.5 1 -5
v 21.5 1 -5
v -21.5 1 -6
v 19.5 1 -6
v -21.5 1 -7
v 17.5 1 -7
v -21.5 1 -8
v -17.5 1 -8
v 17.5 1 -8
v 21.5 1 -8
v -17.5 1 -9
v 21.5 1 -9
v -21.5 1 -10
v 20.5 1 -10
v -18.5 1 -11
v -8.5 1 -11
v 10.5 1 -11
v 20.5 1 -11
v 21.5 1 -11
v -21.5 1 -12
v -18.5 1 -12
v -8.5 1 -12
v 10.5 1 -12
v -18.5 1 -13
v -8.5 1 -13
v -3.5 1 -13
v 10.5 1 -13
v 21.5 1 -13
v -21.5 1 -14
v -3.5 1 -14
v 6.5 1 -14
v 7.5 1 -14
v 12.5 1 -14
v 13.5 1 -14
v 21.5 1 -14
v 7.5 1 -15
v 12.5 1 -15
v 11.5 4 15
v 18.5 4 15
v 11.5 4 14
v 18.5 4 14
v 11.5 4 13
v 18.5 4 13
v 11.5 13 14
v 18.5 13 14
v 11.5 13 13
v 18.5 13 13
v -22.5 15 15
v 22.5 15 15
v -21.5 15 14
v 21.5 15 14
v -21.5 15 -14
v 21.5 15 -14
v -22.5 15 -15
v 22.5 15 -15

# faces
f 3/2/1 2/2/1 1/2/1
f 4/2/1 2/2/1 3/2/1
f 7/1/1 6/1/1 5/1/1
f 8/1/1 6/1/1 7/1/1
f 11/1/1 10/1/1 9/1/1
f 12/1/1 10/1/1 11/1/1
f 15/3/1 14/3/1 13/3/1
f 16/3/1 14/3/1 15/3/1
f 19/2/1 18/2/1 17/2/1
f 20/2/1 18/2/1 19/2/1
f 38/2/1 22/2/1 21/2/1
f 38/2/1 37/2/1 36/2/1
f 38/2/1 36/2/1 35/2/1
f 38/2/1 35/2/1 34/2/1
f 38/2/1 34/2/1 33/2/1
f 38/2/1 33/2/1 32/2/1
f 38/2/1 32/2/1 31/2/1
f 38/2/1 31/2/1 30/2/1
f 38/2/1 30/2/1 29/2/1
f 38/2/1 29/2/1 28/2/1
f 38/2/1 28/2/1 27/2/1
f 38/2/1 27/2/1 26/2/1
f 38/2/1 26/2/1 25/2/1
f 38/2/1 25/2/1 24/2/1
f 38/2/1 24/2/1 23/2/1
f 38/2/1 23/2/1 22/2/1
f 39/2/1 37/2/1 38/2/1
f 40/2/2 41/2/2 58/2/2
f 56/2/2 57/2/2 58/2/2
f 55/2/2 56/2/2 58/2/2
f 54/2/2 55/2/2 58/2/2
f 53/2/2 54/2/2 58/2/2
f 52/2/2 53/2/2 58/2/2
f 51/2/2 52/2/2 58/2/2
f 50/2/2 51/2/2 58/2/2
f 49/2/2 50/2/2 58/2/2
f 48/2/2 49/2/2 58/2/2
f 47/2/2 48/2/2 58/2/2
f 46/2/2 47/2/2 58/2/2
f 45/2/2 46/2/2 58/2/2
f 44/2/2 45/2/2 58/2/2
f 43/2/2 44/2/2 58/2/2
f 42/2/2 43/2/2 58/2/2
f 41/2/2 42/2/2 58/2/2
f 58/2/2 57/2/2 59/2/2
f 60/3/2 61/3/2 62/3/2
f 62/3/2 61/3/2 63/3/2
f 64/2/2 65/2/2 66/2/2
f 66/2/2 65/2/2 67/2/2
f 68/1/2 69/1/2 70/1/2
f 70/1/2 69/1/2 71/1/2
f 72/1/2 73/1/2 74/1/2
f 74/1/2 73/1/2 75/1/2
f 76/2/2 77/2/2 93/2/2
f 77/4/2 78/4/2 93/4/2
f 78/2/2 79/2/2 94/2/2
f 93/4/2 78/4/2 94/4/2
f 79/3/2 80/3/2 95/3/2
f 94/2/2 79/2/2 95/2/2
f 80/4/2 81/4/2 96/4/2
f 95/3/2 80/3/2 96/3/2
f 81/2/2 82/2/2 97/2/2
f 96/4/2 81/4/2 97/4/2
f 82/3/2 83/3/2 98/3/2
f 97/2/2 82/2/2 98/2/2
f 83/4/2 84/4/2 99/4/2
f 98/3/2 83/3/2 99/3/2
f 84/2/2 85/2/2 100/2/2
f 99/4/2 84/4/2 100/4/2
f 85/3/2 86/3/2 101/3/2
f 100/2/2 85/2/2 101/2/2
f 86/2/2 87/2/2 102/2/2
f 101/3/2 86/3/2 102/3/2
f 87/4/2 88/4/2 103/4/2
f 102/2/2 87/2/2 103/2/2
f 88/2/2 89/2/2 104/2/2
f 103/4/2 88/4/2 104/4/2
f 89/3/2 90/3/2 105/3/2
f 104/2/2 89/2/2 105/2/2
f 90/2/2 91/2/2 106/2/2
f 105/3/2 90/3/2 106/3/2
f 91/3/2 92/3/2 107/3/2
f 106/2/2 91/2/2 107/2/2
f 107/3/2 92/3/2 108/3/2
f 105/2/2 106/2/2 109/2/2
f 104/2/2 105/2/2 109/2/2
f 107/2/2 108/2/2 109/2/2
f 106/2/2 107/2/2 109/2/2
f 103/2/2 104/2/2 109/2/2
f 102/2/2 103/2/2 109/2/2
f 101/2/2 102/2/2 109/2/2
f 100/2/2 101/2/2 109/2/2
f 99/2/2 100/2/2 109/2/2
f 98/2/2 99/2/2 109/2/2
f 97/2/2 98/2/2 109/2/2
f 96/2/2 97/2/2 109/2/2
f 95/2/2 96/2/2 109/2/2
f 94/2/2 95/2/2 109/2/2
f 93/2/2 94/2/2 109/2/2
f 76/2/2 93/2/2 109/2/2
f 109/2/2 108/2/2 110/2/2
f 113/2/3 112/2/3 111/2/3
f 114/2/3 112/2/3 113/2/3
f 115/2/3 112/2/3 114/2/3
f 116/2/3 113/2/3 111/2/3
f 116/1/3 114/1/3 113/1/3
f 117/1/3 114/1/3 116/1/3
f 118/2/3 112/2/3 115/2/3
f 119/2/3 117/2/3 116/2/3
f 119/2/3 118/2/3 117/2/3
f 119/2/3 116/2/3 111/2/3
f 120/2/3 112/2/3 118/2/3
f 120/2/3 118/2/3 119/2/3
f 123/2/3 122/2/3 121/2/3
f 124/2/3 122/2/3 123/2/3
f 125/2/3 122/2/3 124/2/3
f 126/3/3 125/3/3 124/3/3
f 127/3/3 125/3/3 126/3/3
f 129/3/3 125/3/3 127/3/3
f 130/3/3 129/3/3 128/3/3
f 131/2/3 122/2/3 125/2/3
f 131/3/3 129/3/3 130/3/3
f 131/3/3 125/3/3 129/3/3
f 132/2/3 131/2/3 130/2/3
f 133/2/3 122/2/3 131/2/3
f 133/2/3 131/2/3 132/2/3
f 134/2/4 135/2/4 136/2/4
f 136/2/4 135/2/4 137/2/4
f 137/2/4 135/2/4 138/2/4
f 138/2/4 135/2/4 139/2/4
f 139/2/4 135/2/4 140/2/4
f 136/2/4 137/2/4 141/2/4
f 140/2/4 135/2/4 144/2/4
f 142/2/4 143/2/4 145/2/4
f 143/2/4 144/2/4 145/2/4
f 136/2/4 141/2/4 145/2/4
f 141/2/4 142/2/4 145/2/4
f 144/2/4 135/2/4 146/2/4
f 145/2/4 144/2/4 146/2/4
f 147/1/4 148/1/4 151/1/4
f 151/1/4 148/1/4 152/1/4
f 149/1/4 150/1/4 153/1/4
f 153/1/4 150/1/4 154/1/4
f 155/2/4 156/2/4 157/2/4
f 157/2/4 156/2/4 158/2/4
f 157/4/4 158/4/4 159/4/4
f 158/2/4 156/2/4 160/2/4
f 159/4/4 158/4/4 160/4/4
f 159/3/4 160/3/4 161/3/4
f 160/2/4 156/2/4 161/2/4
f 161/2/4 156/2/4 162/2/4
f 159/3/4 161/3/4 163/3/4
f 161/3/4 162/3/4 163/3/4
f 163/3/4 162/3/4 164/3/4
f 159/3/4 163/3/4 165/3/4
f 164/3/4 162/3/4 166/3/4
f 159/3/4 165/3/4 167/3/4
f 165/3/4 166/3/4 167/3/4
f 162/2/4 156/2/4 168/2/4
f 167/3/4 166/3/4 168/3/4
f 166/3/4 162/3/4 168/3/4
f 159/3/4 167/3/4 169/3/4
f 167/2/4 168/2/4 170/2/4
f 169/3/4 167/3/4 170/3/4
f 168/2/4 156/2/4 171/2/4
f 170/2/4 168/2/4 171/2/4
f 174/2/5 173/2/5 172/2/5
f 175/2/5 173/2/5 174/2/5
f 176/2/5 173/2/5 175/2/5
f 177/3/5 175/3/5 174/3/5
f 177/4/5 176/4/5 175/4/5
f 178/4/5 176/4/5 177/4/5
f 179/4/5 176/4/5 178/4/5
f 180/2/5 174/2/5 172/2/5
f 180/3/5 177/3/5 174/3/5
f 180/3/5 178/3/5 177/3/5
f 181/3/5 178/3/5 180/3/5
f 182/3/5 178/3/5 181/3/5
f 183/2/5 179/2/5 178/2/5
f 183/3/5 178/3/5 182/3/5
f 184/4/5 176/4/5 179/4/5
f 184/2/5 179/2/5 183/2/5
f 185/4/5 176/4/5 184/4/5
f 186/2/5 181/2/5 180/2/5
f 187/4/5 182/4/5 181/4/5
f 187/2/5 181/2/5 186/2/5
f 188/2/5 183/2/5 182/2/5
f 188/4/5 182/4/5 187/4/5
f 188/2/5 184/2/5 183/2/5
f 188/2/5 185/2/5 184/2/5
f 189/2/5 185/2/5 188/2/5
f 190/2/5 186/2/5 180/2/5
f 190/2/5 180/2/5 172/2/5
f 191/3/5 187/3/5 186/3/5
f 191/2/5 186/2/5 190/2/5
f 192/3/5 187/3/5 191/3/5
f 193/4/5 188/4/5 187/4/5
f 193/3/5 187/3/5 192/3/5
f 194/3/5 189/3/5 188/3/5
f 194/4/5 188/4/5 193/4/5
f 195/3/5 189/3/5 194/3/5
f 196/3/5 189/3/5 195/3/5
f 197/3/5 193/3/5 192/3/5
f 197/4/5 192/4/5 191/4/5
f 197/4/5 191/4/5 190/4/5
f 197/3/5 195/3/5 194/3/5
f 197/3/5 194/3/5 193/3/5
f 198/4/5 196/4/5 195/4/5
f 198/3/5 195/3/5 197/3/5
f 199/2/5 190/2/5 172/2/5
f 199/4/5 197/4/5 190/4/5
f 200/2/5 198/2/5 197/2/5
f 200/4/5 197/4/5 199/4/5
f 201/4/5 196/4/5 198/4/5
f 201/2/5 198/2/5 200/2/5
f 202/4/5 196/4/5 201/4/5
f 203/2/5 200/2/5 199/2/5
f 203/2/5 199/2/5 172/2/5
f 203/2/5 202/2/5 201/2/5
f 203/2/5 201/2/5 200/2/5
f 204/2/5 202/2/5 203/2/5
f 205/2/5 203/2/5 172/2/5
f 205/3/5 204/3/5 203/3/5
f 206/2/5 202/2/5 204/2/5
f 206/3/5 204/3/5 205/3/5
f 207/2/5 205/2/5 172/2/5
f 207/2/5 206/2/5 205/2/5
f 208/2/5 206/2/5 207/2/5
f 209/4/5 208/4/5 207/4/5
f 209/2/5 206/2/5 208/2/5
f 210/2/5 202/2/5 206/2/5
f 210/2/5 206/2/5 209/2/5
f 211/4/5 209/4/5 207/4/5
f 211/2/5 207/2/5 172/2/5
f 212/3/5 210/3/5 209/3/5
f 212/4/5 209/4/5 211/4/5
f 213/3/5 210/3/5 212/3/5
f 214/3/5 210/3/5 213/3/5
f 215/2/5 211/2/5 172/2/5
f 215/3/5 212/3/5 211/3/5
f 215/3/5 213/3/5 212/3/5
f 216/4/5 214/4/5 213/4/5
f 216/3/5 213/3/5 215/3/5
f 217/4/5 214/4/5 216/4/5
f 218/2/5 216/2/5 215/2/5
f 218/2/5 217/2/5 216/2/5
f 219/2/5 217/2/5 218/2/5
f 220/2/5 215/2/5 172/2/5
f 220/2/5 218/2/5 215/2/5
f 221/3/5 219/3/5 218/3/5
f 221/2/5 218/2/5 220/2/5
f 222/3/5 219/3/5 221/3/5
f 223/2/5 220/2/5 172/2/5
f 223/4/5 221/4/5 220/4/5
f 223/4/5 222/4/5 221/4/5
f 224/3/5 219/3/5 222/3/5
f 224/4/5 222/4/5 223/4/5
f 225/3/5 219/3/5 224/3/5
f 226/2/5 223/2/5 172/2/5
f 226/2/5 224/2/5 223/2/5
f 226/2/5 225/2/5 224/2/5
f 227/2/5 225/2/5 226/2/5
f 228/2/5 225/2/5 227/2/5
f 229/3/5 227/3/5 226/3/5
f 229/4/5 228/4/5 227/4/5
f 230/4/5 228/4/5 229/4/5
f 231/4/5 228/4/5 230/4/5
f 232/2/5 226/2/5 172/2/5
f 232/3/5 229/3/5 226/3/5
f 232/3/5 230/3/5 229/3/5
f 233/2/5 231/2/5 230/2/5
f 233/3/5 230/3/5 232/3/5
f 234/2/5 232/2/5 172/2/5
f 234/2/5 233/2/5 232/2/5
f 235/2/5 233/2/5 234/2/5
f 236/2/5 234/2/5 172/2/5
f 236/4/5 235/4/5 234/4/5
f 237/4/5 235/4/5 236/4/5
f 238/2/5 233/2/5 235/2/5
f 238/4/5 235/4/5 237/4/5
f 239/2/5 231/2/5 233/2/5
f 239/2/5 233/2/5 238/2/5
f 240/3/5 238/3/5 237/3/5
f 240/2/5 237/2/5 236/2/5
f 240/3/5 239/3/5 238/3/5
f 241/3/5 239/3/5 240/3/5
f 242/2/5 236/2/5 172/2/5
f 242/2/5 240/2/5 236/2/5
f 242/2/5 241/2/5 240/2/5
f 243/2/5 241/2/5 242/2/5
f 244/3/5 243/3/5 242/3/5
f 245/3/5 243/3/5 244/3/5
f 246/3/5 243/3/5 245/3/5
f 247/2/5 241/2/5 243/2/5
f 247/3/5 243/3/5 246/3/5
f 248/2/5 241/2/5 247/2/5
f 249/2/5 242/2/5 172/2/5
f 249/3/5 244/3/5 242/3/5
f 250/4/5 245/4/5 244/4/5
f 250/3/5 244/3/5 249/3/5
f 251/3/5 246/3/5 245/3/5
f 251/4/5 245/4/5 250/4/5
f 252/4/5 248/4/5 247/4/5
f 252/3/5 246/3/5 251/3/5
f 252/4/5 247/4/5 246/4/5
f 253/2/5 250/2/5 249/2/5
f 253/4/5 251/4/5 250/4/5
f 254/2/5 252/2/5 251/2/5
f 254/4/5 251/4/5 253/4/5
f 255/2/5 252/2/5 254/2/5
f 256/4/5 248/4/5 252/4/5
f 256/2/5 252/2/5 255/2/5
f 257/2/5 241/2/5 248/2/5
f 257/4/5 248/4/5 256/4/5
f 258/2/5 241/2/5 257/2/5
f 259/2/5 255/2/5 254/2/5
f 259/2/5 254/2/5 253/2/5
f 260/3/5 256/3/5 255/3/5
f 260/2/5 255/2/5 259/2/5
f 260/3/5 258/3/5 257/3/5
f 260/3/5 257/3/5 256/3/5
f 261/3/5 258/3/5 260/3/5
f 262/2/5 259/2/5 253/2/5
f 262/2/5 253/2/5 249/2/5
f 262/2/5 249/2/5 172/2/5
f 263/4/5 261/4/5 260/4/5
f 263/2/5 259/2/5 262/2/5
f 263/4/5 260/4/5 259/4/5
f 264/3/5 258/3/5 261/3/5
f 264/4/5 261/4/5 263/4/5
f 265/3/5 258/3/5 264/3/5
f 268/1/5 267/1/5 266/1/5
f 269/1/5 267/1/5 268/1/5
f 272/3/5 271/3/5 270/3/5
f 273/3/5 271/3/5 272/3/5
f 276/2/5 275/2/5 274/2/5
f 277/2/5 275/2/5 276/2/5
f 278/1/5 277/1/5 276/1/5
f 279/1/5 277/1/5 278/1/5
f 280/3/6 281/3/6 283/3/6
f 281/4/6 282/4/6 283/4/6
f 283/4/6 282/4/6 284/4/6
f 284/4/6 282/4/6 285/4/6
f 280/3/6 283/3/6 286/3/6
f 283/3/6 284/3/6 286/3/6
f 286/3/6 284/3/6 287/3/6
f 287/3/6 284/3/6 288/3/6
f 284/2/6 285/2/6 289/2/6
f 288/3/6 284/3/6 289/3/6
f 285/4/6 282/4/6 290/4/6
f 289/2/6 285/2/6 290/2/6
f 290/4/6 282/4/6 291/4/6
f 286/2/6 287/2/6 292/2/6
f 287/4/6 288/4/6 293/4/6
f 292/2/6 287/2/6 293/2/6
f 288/2/6 289/2/6 294/2/6
f 293/4/6 288/4/6 294/4/6
f 289/2/6 290/2/6 294/2/6
f 290/2/6 291/2/6 294/2/6
f 294/2/6 291/2/6 295/2/6
f 286/2/6 292/2/6 296/2/6
f 292/3/6 293/3/6 297/3/6
f 296/2/6 292/2/6 297/2/6
f 297/3/6 293/3/6 298/3/6
f 293/4/6 294/4/6 299/4/6
f 298/3/6 293/3/6 299/3/6
f 294/3/6 295/3/6 300/3/6
f 299/4/6 294/4/6 300/4/6
f 300/3/6 295/3/6 301/3/6
f 301/3/6 295/3/6 302/3/6
f 297/4/6 298/4/6 303/4/6
f 298/3/6 299/3/6 303/3/6
f 296/4/6 297/4/6 303/4/6
f 300/3/6 301/3/6 303/3/6
f 299/3/6 300/3/6 303/3/6
f 301/4/6 302/4/6 304/4/6
f 303/3/6 301/3/6 304/3/6
f 296/4/6 303/4/6 305/4/6
f 303/2/6 304/2/6 306/2/6
f 305/4/6 303/4/6 306/4/6
f 304/4/6 302/4/6 307/4/6
f 306/2/6 304/2/6 307/2/6
f 307/4/6 302/4/6 308/4/6
f 305/2/6 306/2/6 309/2/6
f 306/2/6 307/2/6 309/2/6
f 307/2/6 308/2/6 309/2/6
f 309/2/6 308/2/6 310/2/6
f 309/3/6 310/3/6 311/3/6
f 310/2/6 308/2/6 312/2/6
f 311/3/6 310/3/6 312/3/6
f 311/2/6 312/2/6 313/2/6
f 313/2/6 312/2/6 314/2/6
f 313/4/6 314/4/6 315/4/6
f 314/2/6 312/2/6 315/2/6
f 312/2/6 308/2/6 316/2/6
f 315/2/6 312/2/6 316/2/6
f 313/4/6 315/4/6 317/4/6
f 315/3/6 316/3/6 318/3/6
f 317/4/6 315/4/6 318/4/6
f 318/3/6 316/3/6 319/3/6
f 319/3/6 316/3/6 320/3/6
f 317/3/6 318/3/6 321/3/6
f 318/3/6 319/3/6 321/3/6
f 319/4/6 320/4/6 322/4/6
f 321/3/6 319/3/6 322/3/6
f 322/4/6 320/4/6 323/4/6
f 321/2/6 322/2/6 324/2/6
f 322/2/6 323/2/6 324/2/6
f 324/2/6 323/2/6 325/2/6
f 321/2/6 324/2/6 326/2/6
f 324/3/6 325/3/6 327/3/6
f 326/2/6 324/2/6 327/2/6
f 327/3/6 325/3/6 328/3/6
f 326/4/6 327/4/6 329/4/6
f 327/4/6 328/4/6 329/4/6
f 328/3/6 325/3/6 330/3/6
f 329/4/6 328/4/6 330/4/6
f 330/3/6 325/3/6 331/3/6
f 329/2/6 330/2/6 332/2/6
f 330/2/6 331/2/6 332/2/6
f 332/2/6 331/2/6 333/2/6
f 333/2/6 331/2/6 334/2/6
f 332/3/6 333/3/6 335/3/6
f 333/4/6 334/4/6 335/4/6
f 335/4/6 334/4/6 336/4/6
f 336/4/6 334/4/6 337/4/6
f 332/3/6 335/3/6 338/3/6
f 335/3/6 336/3/6 338/3/6
f 336/2/6 337/2/6 339/2/6
f 338/3/6 336/3/6 339/3/6
f 338/2/6 339/2/6 340/2/6
f 340/2/6 339/2/6 341/2/6
f 340/4/6 341/4/6 342/4/6
f 342/4/6 341/4/6 343/4/6
f 341/2/6 339/2/6 344/2/6
f 343/4/6 341/4/6 344/4/6
f 339/2/6 337/2/6 345/2/6
f 344/2/6 339/2/6 345/2/6
f 343/3/6 344/3/6 346/3/6
f 342/2/6 343/2/6 346/2/6
f 344/3/6 345/3/6 346/3/6
f 346/3/6 345/3/6 347/3/6
f 342/2/6 346/2/6 348/2/6
f 346/2/6 347/2/6 348/2/6
f 348/2/6 347/2/6 349/2/6
f 348/3/6 349/3/6 350/3/6
f 350/3/6 349/3/6 351/3/6
f 351/3/6 349/3/6 352/3/6
f 349/2/6 347/2/6 353/2/6
f 352/3/6 349/3/6 353/3/6
f 353/2/6 347/2/6 354/2/6
f 348/3/6 350/3/6 355/3/6
f 350/4/6 351/4/6 356/4/6
f 355/3/6 350/3/6 356/3/6
f 351/3/6 352/3/6 357/3/6
f 356/4/6 351/4/6 357/4/6
f 352/4/6 353/4/6 358/4/6
f 357/3/6 352/3/6 358/3/6
f 353/4/6 354/4/6 358/4/6
f 355/2/6 356/2/6 359/2/6
f 356/4/6 357/4/6 359/4/6
f 357/2/6 358/2/6 360/2/6
f 359/4/6 357/4/6 360/4/6
f 360/2/6 358/2/6 361/2/6
f 358/4/6 354/4/6 362/4/6
f 361/2/6 358/2/6 362/2/6
f 362/4/6 354/4/6 363/4/6
f 360/2/6 361/2/6 364/2/6
f 355/2/6 359/2/6 364/2/6
f 359/2/6 360/2/6 364/2/6
f 362/3/6 363/3/6 365/3/6
f 364/2/6 361/2/6 365/2/6
f 361/3/6 362/3/6 365/3/6
f 365/3/6 363/3/6 366/3/6
f 366/3/6 363/3/6 367/3/6
f 367/3/6 363/3/6 368/3/6
f 368/3/6 363/3/6 369/3/6
f 369/3/6 363/3/6 370/3/6
f 367/3/6 368/3/6 371/3/6
f 371/3/6 368/3/6 372/3/6
f 373/1/6 374/1/6 375/1/6
f 375/1/6 374/1/6 376/1/6
f 375/1/6 376/1/6 377/1/6
f 377/1/6 376/1/6 378/1/6
f 379/1/6 380/1/6 381/1/6
f 381/1/6 380/1/6 382/1/6
f 383/2/6 384/2/6 385/2/6
f 385/2/6 384/2/6 386/2/6
f 383/2/6 385/2/6 387/2/6
f 386/2/6 384/2/6 388/2/6
f 383/2/6 387/2/6 389/2/6
f 387/2/6 388/2/6 389/2/6
f 388/2/6 384/2/6 390/2/6
f 389/2/6 388/2/6 390/2/6
