# MagicaVoxel @ ephtracy

# material
mtllib Lantern Candle.mtl
usemtl palette

# normals
vn -1 0 0
vn 1 0 0
vn 0 0 1
vn 0 0 -1
vn 0 -1 0
vn 0 1 0

# texcoords
vt 0.978516 0.5
vt 0.982422 0.5

# verts
v 2.5 3 4.5
v 2.5 3 1.5
v 2.5 5 4.5
v 2.5 5 3.5
v 2.5 6 2.5
v 2.5 6 1.5
v 2.5 7 3.5
v 2.5 7 2.5
v 3.5 5 4.5
v 3.5 5 3.5
v 3.5 6 2.5
v 3.5 6 1.5
v 3.5 7 4.5
v 3.5 7 3.5
v 3.5 7 2.5
v 3.5 7 1.5
v 3.5 8 3.5
v 3.5 8 2.5
v 4.5 5 2.5
v 4.5 5 1.5
v 4.5 6 4.5
v 4.5 6 3.5
v 4.5 7 4.5
v 4.5 7 3.5
v 4.5 7 2.5
v 4.5 7 1.5
v 4.5 8 3.5
v 4.5 8 2.5
v 5.5 3 4.5
v 5.5 3 1.5
v 5.5 5 2.5
v 5.5 5 1.5
v 5.5 6 4.5
v 5.5 6 3.5
v 5.5 7 3.5
v 5.5 7 2.5
v 2.5 3 4.5
v 2.5 5 4.5
v 3.5 5 4.5
v 3.5 7 4.5
v 4.5 6 4.5
v 4.5 7 4.5
v 5.5 3 4.5
v 5.5 6 4.5
v 2.5 5 3.5
v 2.5 7 3.5
v 3.5 5 3.5
v 3.5 7 3.5
v 3.5 8 3.5
v 4.5 6 3.5
v 4.5 7 3.5
v 4.5 8 3.5
v 5.5 6 3.5
v 5.5 7 3.5
v 2.5 6 2.5
v 2.5 7 2.5
v 3.5 6 2.5
v 3.5 7 2.5
v 3.5 8 2.5
v 4.5 5 2.5
v 4.5 7 2.5
v 4.5 8 2.5
v 5.5 5 2.5
v 5.5 7 2.5
v 2.5 3 1.5
v 2.5 6 1.5
v 3.5 6 1.5
v 3.5 7 1.5
v 4.5 5 1.5
v 4.5 7 1.5
v 5.5 3 1.5
v 5.5 5 1.5
v 2.5 3 4.5
v 5.5 3 4.5
v 2.5 3 1.5
v 5.5 3 1.5
v 2.5 5 4.5
v 3.5 5 4.5
v 2.5 5 3.5
v 3.5 5 3.5
v 4.5 5 2.5
v 5.5 5 2.5
v 4.5 5 1.5
v 5.5 5 1.5
v 4.5 6 4.5
v 5.5 6 4.5
v 4.5 6 3.5
v 5.5 6 3.5
v 2.5 6 2.5
v 3.5 6 2.5
v 2.5 6 1.5
v 3.5 6 1.5
v 3.5 7 4.5
v 4.5 7 4.5
v 2.5 7 3.5
v 3.5 7 3.5
v 4.5 7 3.5
v 5.5 7 3.5
v 2.5 7 2.5
v 3.5 7 2.5
v 4.5 7 2.5
v 5.5 7 2.5
v 3.5 7 1.5
v 4.5 7 1.5
v 3.5 8 3.5
v 4.5 8 3.5
v 3.5 8 2.5
v 4.5 8 2.5

# faces
f 3/2/1 2/2/1 1/2/1
f 4/2/1 2/2/1 3/2/1
f 5/2/1 2/2/1 4/2/1
f 6/2/1 2/2/1 5/2/1
f 7/2/1 5/2/1 4/2/1
f 8/2/1 5/2/1 7/2/1
f 13/2/1 10/2/1 9/2/1
f 14/2/1 10/2/1 13/2/1
f 15/2/1 12/2/1 11/2/1
f 16/2/1 12/2/1 15/2/1
f 17/1/1 15/1/1 14/1/1
f 18/1/1 15/1/1 17/1/1
f 21/2/2 22/2/2 23/2/2
f 23/2/2 22/2/2 24/2/2
f 19/2/2 20/2/2 25/2/2
f 25/2/2 20/2/2 26/2/2
f 24/1/2 25/1/2 27/1/2
f 27/1/2 25/1/2 28/1/2
f 29/2/2 30/2/2 31/2/2
f 31/2/2 30/2/2 32/2/2
f 29/2/2 31/2/2 33/2/2
f 33/2/2 31/2/2 34/2/2
f 34/2/2 31/2/2 35/2/2
f 35/2/2 31/2/2 36/2/2
f 39/2/3 38/2/3 37/2/3
f 41/2/3 40/2/3 39/2/3
f 42/2/3 40/2/3 41/2/3
f 43/2/3 39/2/3 37/2/3
f 43/2/3 41/2/3 39/2/3
f 44/2/3 41/2/3 43/2/3
f 47/2/3 46/2/3 45/2/3
f 48/2/3 46/2/3 47/2/3
f 51/1/3 49/1/3 48/1/3
f 52/1/3 49/1/3 51/1/3
f 53/2/3 51/2/3 50/2/3
f 54/2/3 51/2/3 53/2/3
f 55/2/4 56/2/4 57/2/4
f 57/2/4 56/2/4 58/2/4
f 58/1/4 59/1/4 61/1/4
f 61/1/4 59/1/4 62/1/4
f 60/2/4 61/2/4 63/2/4
f 63/2/4 61/2/4 64/2/4
f 65/2/4 66/2/4 67/2/4
f 65/2/4 67/2/4 69/2/4
f 67/2/4 68/2/4 69/2/4
f 69/2/4 68/2/4 70/2/4
f 65/2/4 69/2/4 71/2/4
f 71/2/4 69/2/4 72/2/4
f 75/2/5 74/2/5 73/2/5
f 76/2/5 74/2/5 75/2/5
f 77/2/6 78/2/6 79/2/6
f 79/2/6 78/2/6 80/2/6
f 81/2/6 82/2/6 83/2/6
f 83/2/6 82/2/6 84/2/6
f 85/2/6 86/2/6 87/2/6
f 87/2/6 86/2/6 88/2/6
f 89/2/6 90/2/6 91/2/6
f 91/2/6 90/2/6 92/2/6
f 93/2/6 94/2/6 96/2/6
f 96/2/6 94/2/6 97/2/6
f 95/2/6 96/2/6 99/2/6
f 99/2/6 96/2/6 100/2/6
f 97/2/6 98/2/6 101/2/6
f 101/2/6 98/2/6 102/2/6
f 100/2/6 101/2/6 103/2/6
f 103/2/6 101/2/6 104/2/6
f 105/1/6 106/1/6 107/1/6
f 107/1/6 106/1/6 108/1/6
