# MagicaVoxel @ ephtracy

# material
mtllib Health_Pickup_001.mtl
usemtl palette

# normals
vn -1 0 0
vn 1 0 0
vn 0 0 1
vn 0 0 -1
vn 0 -1 0
vn 0 1 0

# texcoords
vt 0.841797 0.5
vt 0.845703 0.5
vt 0.849609 0.5
vt 0.853516 0.5
vt 0.994141 0.5

# verts
v -4.5 4 0.5
v -4.5 4 -0.5
v -4.5 7 0.5
v -4.5 7 -0.5
v -3.5 3 0.5
v -3.5 3 -0.5
v -3.5 4 1.5
v -3.5 4 0.5
v -3.5 4 -0.5
v -3.5 4 -1.5
v -3.5 7 1.5
v -3.5 7 0.5
v -3.5 7 -0.5
v -3.5 7 -1.5
v -3.5 8 0.5
v -3.5 8 -0.5
v -2.5 2 0.5
v -2.5 2 -0.5
v -2.5 3 1.5
v -2.5 3 0.5
v -2.5 3 -0.5
v -2.5 3 -1.5
v -2.5 4 1.5
v -2.5 4 0.5
v -2.5 4 -0.5
v -2.5 4 -1.5
v -2.5 7 1.5
v -2.5 7 0.5
v -2.5 7 -0.5
v -2.5 7 -1.5
v -2.5 8 1.5
v -2.5 8 0.5
v -2.5 8 -0.5
v -2.5 8 -1.5
v -2.5 9 0.5
v -2.5 9 -0.5
v -1.5 1 0.5
v -1.5 1 -0.5
v -1.5 2 1.5
v -1.5 2 0.5
v -1.5 2 -0.5
v -1.5 2 -1.5
v -1.5 3 1.5
v -1.5 3 0.5
v -1.5 3 -0.5
v -1.5 3 -1.5
v -0.5 0 0.5
v -0.5 0 -0.5
v -0.5 1 1.5
v -0.5 1 0.5
v -0.5 1 -0.5
v -0.5 1 -1.5
v -0.5 2 1.5
v -0.5 2 0.5
v -0.5 2 -0.5
v -0.5 2 -1.5
v 0.5 7 1.5
v 0.5 7 0.5
v 0.5 7 -0.5
v 0.5 7 -1.5
v 0.5 8 1.5
v 0.5 8 0.5
v 0.5 8 -0.5
v 0.5 8 -1.5
v 0.5 9 0.5
v 0.5 9 -0.5
v -0.5 7 1.5
v -0.5 7 0.5
v -0.5 7 -0.5
v -0.5 7 -1.5
v -0.5 8 1.5
v -0.5 8 0.5
v -0.5 8 -0.5
v -0.5 8 -1.5
v -0.5 9 0.5
v -0.5 9 -0.5
v 0.5 0 0.5
v 0.5 0 -0.5
v 0.5 1 1.5
v 0.5 1 0.5
v 0.5 1 -0.5
v 0.5 1 -1.5
v 0.5 2 1.5
v 0.5 2 0.5
v 0.5 2 -0.5
v 0.5 2 -1.5
v 1.5 1 0.5
v 1.5 1 -0.5
v 1.5 2 1.5
v 1.5 2 0.5
v 1.5 2 -0.5
v 1.5 2 -1.5
v 1.5 3 1.5
v 1.5 3 0.5
v 1.5 3 -0.5
v 1.5 3 -1.5
v 2.5 2 0.5
v 2.5 2 -0.5
v 2.5 3 1.5
v 2.5 3 0.5
v 2.5 3 -0.5
v 2.5 3 -1.5
v 2.5 4 1.5
v 2.5 4 0.5
v 2.5 4 -0.5
v 2.5 4 -1.5
v 2.5 7 1.5
v 2.5 7 0.5
v 2.5 7 -0.5
v 2.5 7 -1.5
v 2.5 8 1.5
v 2.5 8 0.5
v 2.5 8 -0.5
v 2.5 8 -1.5
v 2.5 9 0.5
v 2.5 9 -0.5
v 3.5 3 0.5
v 3.5 3 -0.5
v 3.5 4 1.5
v 3.5 4 0.5
v 3.5 4 -0.5
v 3.5 4 -1.5
v 3.5 7 1.5
v 3.5 7 0.5
v 3.5 7 -0.5
v 3.5 7 -1.5
v 3.5 8 0.5
v 3.5 8 -0.5
v 4.5 4 0.5
v 4.5 4 -0.5
v 4.5 7 0.5
v 4.5 7 -0.5
v -3.5 4 1.5
v -3.5 7 1.5
v -2.5 3 1.5
v -2.5 4 1.5
v -2.5 7 1.5
v -2.5 8 1.5
v -1.5 2 1.5
v -1.5 3 1.5
v -1.5 4 1.5
v -1.5 7 1.5
v -1.5 8 1.5
v -0.5 1 1.5
v -0.5 2 1.5
v -0.5 3 1.5
v -0.5 7 1.5
v -0.5 8 1.5
v 0.5 1 1.5
v 0.5 2 1.5
v 0.5 3 1.5
v 0.5 4 1.5
v 0.5 7 1.5
v 0.5 8 1.5
v 1.5 2 1.5
v 1.5 3 1.5
v 1.5 4 1.5
v 1.5 5 1.5
v 1.5 7 1.5
v 1.5 8 1.5
v 2.5 3 1.5
v 2.5 4 1.5
v 2.5 5 1.5
v 2.5 7 1.5
v 2.5 8 1.5
v 3.5 4 1.5
v 3.5 7 1.5
v -4.5 4 0.5
v -4.5 7 0.5
v -3.5 3 0.5
v -3.5 4 0.5
v -3.5 7 0.5
v -3.5 8 0.5
v -2.5 2 0.5
v -2.5 3 0.5
v -2.5 4 0.5
v -2.5 7 0.5
v -2.5 8 0.5
v -2.5 9 0.5
v -1.5 1 0.5
v -1.5 2 0.5
v -1.5 3 0.5
v -1.5 8 0.5
v -0.5 0 0.5
v -0.5 1 0.5
v -0.5 2 0.5
v -0.5 7 0.5
v -0.5 8 0.5
v -0.5 9 0.5
v 0.5 0 0.5
v 0.5 1 0.5
v 0.5 2 0.5
v 0.5 7 0.5
v 0.5 8 0.5
v 0.5 9 0.5
v 1.5 1 0.5
v 1.5 2 0.5
v 1.5 3 0.5
v 1.5 8 0.5
v 2.5 2 0.5
v 2.5 3 0.5
v 2.5 4 0.5
v 2.5 7 0.5
v 2.5 8 0.5
v 2.5 9 0.5
v 3.5 3 0.5
v 3.5 4 0.5
v 3.5 7 0.5
v 3.5 8 0.5
v 4.5 4 0.5
v 4.5 7 0.5
v -4.5 4 -0.5
v -4.5 7 -0.5
v -3.5 3 -0.5
v -3.5 4 -0.5
v -3.5 7 -0.5
v -3.5 8 -0.5
v -2.5 2 -0.5
v -2.5 3 -0.5
v -2.5 4 -0.5
v -2.5 7 -0.5
v -2.5 8 -0.5
v -2.5 9 -0.5
v -1.5 1 -0.5
v -1.5 2 -0.5
v -1.5 3 -0.5
v -1.5 8 -0.5
v -0.5 0 -0.5
v -0.5 1 -0.5
v -0.5 2 -0.5
v -0.5 7 -0.5
v -0.5 8 -0.5
v -0.5 9 -0.5
v 0.5 0 -0.5
v 0.5 1 -0.5
v 0.5 2 -0.5
v 0.5 7 -0.5
v 0.5 8 -0.5
v 0.5 9 -0.5
v 1.5 1 -0.5
v 1.5 2 -0.5
v 1.5 3 -0.5
v 1.5 8 -0.5
v 2.5 2 -0.5
v 2.5 3 -0.5
v 2.5 4 -0.5
v 2.5 7 -0.5
v 2.5 8 -0.5
v 2.5 9 -0.5
v 3.5 3 -0.5
v 3.5 4 -0.5
v 3.5 7 -0.5
v 3.5 8 -0.5
v 4.5 4 -0.5
v 4.5 7 -0.5
v -3.5 4 -1.5
v -3.5 7 -1.5
v -2.5 3 -1.5
v -2.5 4 -1.5
v -2.5 7 -1.5
v -2.5 8 -1.5
v -1.5 2 -1.5
v -1.5 3 -1.5
v -1.5 4 -1.5
v -1.5 7 -1.5
v -1.5 8 -1.5
v -0.5 1 -1.5
v -0.5 2 -1.5
v -0.5 3 -1.5
v -0.5 7 -1.5
v -0.5 8 -1.5
v 0.5 1 -1.5
v 0.5 2 -1.5
v 0.5 3 -1.5
v 0.5 4 -1.5
v 0.5 7 -1.5
v 0.5 8 -1.5
v 1.5 2 -1.5
v 1.5 3 -1.5
v 1.5 4 -1.5
v 1.5 5 -1.5
v 1.5 7 -1.5
v 1.5 8 -1.5
v 2.5 3 -1.5
v 2.5 4 -1.5
v 2.5 5 -1.5
v 2.5 7 -1.5
v 2.5 8 -1.5
v 3.5 4 -1.5
v 3.5 7 -1.5
v -0.5 0 0.5
v 0.5 0 0.5
v -0.5 0 -0.5
v 0.5 0 -0.5
v -0.5 1 1.5
v 0.5 1 1.5
v -1.5 1 0.5
v -0.5 1 0.5
v 0.5 1 0.5
v 1.5 1 0.5
v -1.5 1 -0.5
v -0.5 1 -0.5
v 0.5 1 -0.5
v 1.5 1 -0.5
v -0.5 1 -1.5
v 0.5 1 -1.5
v -1.5 2 1.5
v -0.5 2 1.5
v 0.5 2 1.5
v 1.5 2 1.5
v -2.5 2 0.5
v -1.5 2 0.5
v -0.5 2 0.5
v 0.5 2 0.5
v 1.5 2 0.5
v 2.5 2 0.5
v -2.5 2 -0.5
v -1.5 2 -0.5
v -0.5 2 -0.5
v 0.5 2 -0.5
v 1.5 2 -0.5
v 2.5 2 -0.5
v -1.5 2 -1.5
v -0.5 2 -1.5
v 0.5 2 -1.5
v 1.5 2 -1.5
v -2.5 3 1.5
v -1.5 3 1.5
v 1.5 3 1.5
v 2.5 3 1.5
v -3.5 3 0.5
v -2.5 3 0.5
v -1.5 3 0.5
v 1.5 3 0.5
v 2.5 3 0.5
v 3.5 3 0.5
v -3.5 3 -0.5
v -2.5 3 -0.5
v -1.5 3 -0.5
v 1.5 3 -0.5
v 2.5 3 -0.5
v 3.5 3 -0.5
v -2.5 3 -1.5
v -1.5 3 -1.5
v 1.5 3 -1.5
v 2.5 3 -1.5
v -3.5 4 1.5
v -2.5 4 1.5
v 2.5 4 1.5
v 3.5 4 1.5
v -4.5 4 0.5
v -3.5 4 0.5
v -2.5 4 0.5
v 2.5 4 0.5
v 3.5 4 0.5
v 4.5 4 0.5
v -4.5 4 -0.5
v -3.5 4 -0.5
v -2.5 4 -0.5
v 2.5 4 -0.5
v 3.5 4 -0.5
v 4.5 4 -0.5
v -3.5 4 -1.5
v -2.5 4 -1.5
v 2.5 4 -1.5
v 3.5 4 -1.5
v -3.5 7 1.5
v -2.5 7 1.5
v -0.5 7 1.5
v 0.5 7 1.5
v 2.5 7 1.5
v 3.5 7 1.5
v -4.5 7 0.5
v -3.5 7 0.5
v -2.5 7 0.5
v -0.5 7 0.5
v 0.5 7 0.5
v 2.5 7 0.5
v 3.5 7 0.5
v 4.5 7 0.5
v -4.5 7 -0.5
v -3.5 7 -0.5
v -2.5 7 -0.5
v -0.5 7 -0.5
v 0.5 7 -0.5
v 2.5 7 -0.5
v 3.5 7 -0.5
v 4.5 7 -0.5
v -3.5 7 -1.5
v -2.5 7 -1.5
v -0.5 7 -1.5
v 0.5 7 -1.5
v 2.5 7 -1.5
v 3.5 7 -1.5
v -2.5 8 1.5
v -1.5 8 1.5
v -0.5 8 1.5
v 0.5 8 1.5
v 1.5 8 1.5
v 2.5 8 1.5
v -3.5 8 0.5
v -2.5 8 0.5
v -1.5 8 0.5
v -0.5 8 0.5
v 0.5 8 0.5
v 1.5 8 0.5
v 2.5 8 0.5
v 3.5 8 0.5
v -3.5 8 -0.5
v -2.5 8 -0.5
v -1.5 8 -0.5
v -0.5 8 -0.5
v 0.5 8 -0.5
v 1.5 8 -0.5
v 2.5 8 -0.5
v 3.5 8 -0.5
v -2.5 8 -1.5
v -1.5 8 -1.5
v -0.5 8 -1.5
v 0.5 8 -1.5
v 1.5 8 -1.5
v 2.5 8 -1.5
v -2.5 9 0.5
v -0.5 9 0.5
v 0.5 9 0.5
v 2.5 9 0.5
v -2.5 9 -0.5
v -0.5 9 -0.5
v 0.5 9 -0.5
v 2.5 9 -0.5

# faces
f 3/5/1 2/5/1 1/5/1
f 4/5/1 2/5/1 3/5/1
f 8/5/1 6/5/1 5/5/1
f 9/5/1 6/5/1 8/5/1
f 11/2/1 8/2/1 7/2/1
f 12/2/1 8/2/1 11/2/1
f 13/2/1 10/2/1 9/2/1
f 14/2/1 10/2/1 13/2/1
f 15/5/1 13/5/1 12/5/1
f 16/5/1 13/5/1 15/5/1
f 20/5/1 18/5/1 17/5/1
f 21/5/1 18/5/1 20/5/1
f 23/2/1 20/2/1 19/2/1
f 24/2/1 20/2/1 23/2/1
f 25/2/1 22/2/1 21/2/1
f 26/2/1 22/2/1 25/2/1
f 31/2/1 28/2/1 27/2/1
f 32/2/1 28/2/1 31/2/1
f 33/2/1 30/2/1 29/2/1
f 34/2/1 30/2/1 33/2/1
f 35/5/1 33/5/1 32/5/1
f 36/5/1 33/5/1 35/5/1
f 40/5/1 38/5/1 37/5/1
f 41/5/1 38/5/1 40/5/1
f 43/2/1 40/2/1 39/2/1
f 44/2/1 40/2/1 43/2/1
f 45/2/1 42/2/1 41/2/1
f 46/2/1 42/2/1 45/2/1
f 50/5/1 48/5/1 47/5/1
f 51/5/1 48/5/1 50/5/1
f 53/4/1 50/4/1 49/4/1
f 54/4/1 50/4/1 53/4/1
f 55/4/1 52/4/1 51/4/1
f 56/4/1 52/4/1 55/4/1
f 61/3/1 58/3/1 57/3/1
f 62/3/1 58/3/1 61/3/1
f 63/3/1 60/3/1 59/3/1
f 64/3/1 60/3/1 63/3/1
f 65/5/1 63/5/1 62/5/1
f 66/5/1 63/5/1 65/5/1
f 67/3/2 68/3/2 71/3/2
f 71/3/2 68/3/2 72/3/2
f 69/3/2 70/3/2 73/3/2
f 73/3/2 70/3/2 74/3/2
f 72/5/2 73/5/2 75/5/2
f 75/5/2 73/5/2 76/5/2
f 77/5/2 78/5/2 80/5/2
f 80/5/2 78/5/2 81/5/2
f 79/4/2 80/4/2 83/4/2
f 83/4/2 80/4/2 84/4/2
f 81/4/2 82/4/2 85/4/2
f 85/4/2 82/4/2 86/4/2
f 87/5/2 88/5/2 90/5/2
f 90/5/2 88/5/2 91/5/2
f 89/4/2 90/4/2 93/4/2
f 93/4/2 90/4/2 94/4/2
f 91/4/2 92/4/2 95/4/2
f 95/4/2 92/4/2 96/4/2
f 97/5/2 98/5/2 100/5/2
f 100/5/2 98/5/2 101/5/2
f 99/4/2 100/4/2 103/4/2
f 103/4/2 100/4/2 104/4/2
f 101/4/2 102/4/2 105/4/2
f 105/4/2 102/4/2 106/4/2
f 107/4/2 108/4/2 111/4/2
f 111/4/2 108/4/2 112/4/2
f 109/4/2 110/4/2 113/4/2
f 113/4/2 110/4/2 114/4/2
f 112/5/2 113/5/2 115/5/2
f 115/5/2 113/5/2 116/5/2
f 117/5/2 118/5/2 120/5/2
f 120/5/2 118/5/2 121/5/2
f 119/4/2 120/4/2 123/4/2
f 123/4/2 120/4/2 124/4/2
f 121/4/2 122/4/2 125/4/2
f 125/4/2 122/4/2 126/4/2
f 124/5/2 125/5/2 127/5/2
f 127/5/2 125/5/2 128/5/2
f 129/5/2 130/5/2 131/5/2
f 131/5/2 130/5/2 132/5/2
f 136/2/3 134/2/3 133/2/3
f 137/2/3 134/2/3 136/2/3
f 140/2/3 136/2/3 135/2/3
f 141/3/3 137/3/3 136/3/3
f 141/2/3 136/2/3 140/2/3
f 142/2/3 138/2/3 137/2/3
f 142/3/3 137/3/3 141/3/3
f 143/2/3 138/2/3 142/2/3
f 145/2/3 140/2/3 139/2/3
f 146/3/3 141/3/3 140/3/3
f 146/3/3 142/3/3 141/3/3
f 146/2/3 140/2/3 145/2/3
f 146/3/3 143/3/3 142/3/3
f 147/3/3 143/3/3 146/3/3
f 148/3/3 143/3/3 147/3/3
f 149/4/3 145/4/3 144/4/3
f 149/4/3 146/4/3 145/4/3
f 150/4/3 146/4/3 149/4/3
f 151/3/3 147/3/3 146/3/3
f 151/4/3 146/4/3 150/4/3
f 152/3/3 147/3/3 151/3/3
f 153/3/3 147/3/3 152/3/3
f 155/4/3 151/4/3 150/4/3
f 155/4/3 152/4/3 151/4/3
f 156/4/3 152/4/3 155/4/3
f 157/3/3 154/3/3 153/3/3
f 157/4/3 152/4/3 156/4/3
f 157/3/3 153/3/3 152/3/3
f 158/3/3 154/3/3 157/3/3
f 159/3/3 154/3/3 158/3/3
f 160/3/3 154/3/3 159/3/3
f 161/4/3 157/4/3 156/4/3
f 161/4/3 158/4/3 157/4/3
f 162/4/3 158/4/3 161/4/3
f 163/1/3 159/1/3 158/1/3
f 163/4/3 158/4/3 162/4/3
f 164/4/3 160/4/3 159/4/3
f 164/1/3 159/1/3 163/1/3
f 165/4/3 160/4/3 164/4/3
f 166/4/3 163/4/3 162/4/3
f 166/4/3 164/4/3 163/4/3
f 167/4/3 164/4/3 166/4/3
f 171/5/3 169/5/3 168/5/3
f 172/5/3 169/5/3 171/5/3
f 175/5/3 171/5/3 170/5/3
f 176/5/3 171/5/3 175/5/3
f 177/5/3 173/5/3 172/5/3
f 178/5/3 173/5/3 177/5/3
f 181/5/3 175/5/3 174/5/3
f 182/5/3 175/5/3 181/5/3
f 183/5/3 179/5/3 178/5/3
f 185/5/3 181/5/3 180/5/3
f 186/5/3 181/5/3 185/5/3
f 188/5/3 179/5/3 183/5/3
f 189/5/3 179/5/3 188/5/3
f 190/5/3 185/5/3 184/5/3
f 191/5/3 185/5/3 190/5/3
f 193/5/3 188/5/3 187/5/3
f 194/5/3 188/5/3 193/5/3
f 196/5/3 192/5/3 191/5/3
f 197/5/3 192/5/3 196/5/3
f 199/5/3 195/5/3 194/5/3
f 200/5/3 198/5/3 197/5/3
f 201/5/3 198/5/3 200/5/3
f 204/5/3 195/5/3 199/5/3
f 205/5/3 195/5/3 204/5/3
f 206/5/3 202/5/3 201/5/3
f 207/5/3 202/5/3 206/5/3
f 208/5/3 204/5/3 203/5/3
f 209/5/3 204/5/3 208/5/3
f 210/5/3 208/5/3 207/5/3
f 211/5/3 208/5/3 210/5/3
f 212/5/4 213/5/4 215/5/4
f 215/5/4 213/5/4 216/5/4
f 214/5/4 215/5/4 219/5/4
f 219/5/4 215/5/4 220/5/4
f 216/5/4 217/5/4 221/5/4
f 221/5/4 217/5/4 222/5/4
f 218/5/4 219/5/4 225/5/4
f 225/5/4 219/5/4 226/5/4
f 222/5/4 223/5/4 227/5/4
f 224/5/4 225/5/4 229/5/4
f 229/5/4 225/5/4 230/5/4
f 227/5/4 223/5/4 232/5/4
f 232/5/4 223/5/4 233/5/4
f 228/5/4 229/5/4 234/5/4
f 234/5/4 229/5/4 235/5/4
f 231/5/4 232/5/4 237/5/4
f 237/5/4 232/5/4 238/5/4
f 235/5/4 236/5/4 240/5/4
f 240/5/4 236/5/4 241/5/4
f 238/5/4 239/5/4 243/5/4
f 241/5/4 242/5/4 244/5/4
f 244/5/4 242/5/4 245/5/4
f 243/5/4 239/5/4 248/5/4
f 248/5/4 239/5/4 249/5/4
f 245/5/4 246/5/4 250/5/4
f 250/5/4 246/5/4 251/5/4
f 247/5/4 248/5/4 252/5/4
f 252/5/4 248/5/4 253/5/4
f 251/5/4 252/5/4 254/5/4
f 254/5/4 252/5/4 255/5/4
f 256/2/4 257/2/4 259/2/4
f 259/2/4 257/2/4 260/2/4
f 258/2/4 259/2/4 263/2/4
f 259/3/4 260/3/4 264/3/4
f 263/2/4 259/2/4 264/2/4
f 260/2/4 261/2/4 265/2/4
f 264/3/4 260/3/4 265/3/4
f 265/2/4 261/2/4 266/2/4
f 262/2/4 263/2/4 268/2/4
f 263/3/4 264/3/4 269/3/4
f 264/3/4 265/3/4 269/3/4
f 268/2/4 263/2/4 269/2/4
f 265/3/4 266/3/4 269/3/4
f 269/3/4 266/3/4 270/3/4
f 270/3/4 266/3/4 271/3/4
f 267/4/4 268/4/4 272/4/4
f 268/4/4 269/4/4 272/4/4
f 272/4/4 269/4/4 273/4/4
f 269/3/4 270/3/4 274/3/4
f 273/4/4 269/4/4 274/4/4
f 274/3/4 270/3/4 275/3/4
f 275/3/4 270/3/4 276/3/4
f 273/4/4 274/4/4 278/4/4
f 274/4/4 275/4/4 278/4/4
f 278/4/4 275/4/4 279/4/4
f 276/3/4 277/3/4 280/3/4
f 279/4/4 275/4/4 280/4/4
f 275/3/4 276/3/4 280/3/4
f 280/3/4 277/3/4 281/3/4
f 281/3/4 277/3/4 282/3/4
f 282/3/4 277/3/4 283/3/4
f 279/4/4 280/4/4 284/4/4
f 280/4/4 281/4/4 284/4/4
f 284/4/4 281/4/4 285/4/4
f 281/1/4 282/1/4 286/1/4
f 285/4/4 281/4/4 286/4/4
f 282/4/4 283/4/4 287/4/4
f 286/1/4 282/1/4 287/1/4
f 287/4/4 283/4/4 288/4/4
f 285/4/4 286/4/4 289/4/4
f 286/4/4 287/4/4 289/4/4
f 289/4/4 287/4/4 290/4/4
f 293/5/5 292/5/5 291/5/5
f 294/5/5 292/5/5 293/5/5
f 298/4/5 296/4/5 295/4/5
f 299/4/5 296/4/5 298/4/5
f 301/5/5 298/5/5 297/5/5
f 302/5/5 298/5/5 301/5/5
f 303/5/5 300/5/5 299/5/5
f 304/5/5 300/5/5 303/5/5
f 305/4/5 303/4/5 302/4/5
f 306/4/5 303/4/5 305/4/5
f 312/2/5 308/2/5 307/2/5
f 313/2/5 308/2/5 312/2/5
f 314/4/5 310/4/5 309/4/5
f 315/4/5 310/4/5 314/4/5
f 317/5/5 312/5/5 311/5/5
f 318/5/5 312/5/5 317/5/5
f 321/5/5 316/5/5 315/5/5
f 322/5/5 316/5/5 321/5/5
f 323/2/5 319/2/5 318/2/5
f 324/2/5 319/2/5 323/2/5
f 325/4/5 321/4/5 320/4/5
f 326/4/5 321/4/5 325/4/5
f 332/2/5 328/2/5 327/2/5
f 333/2/5 328/2/5 332/2/5
f 334/4/5 330/4/5 329/4/5
f 335/4/5 330/4/5 334/4/5
f 337/5/5 332/5/5 331/5/5
f 338/5/5 332/5/5 337/5/5
f 341/5/5 336/5/5 335/5/5
f 342/5/5 336/5/5 341/5/5
f 343/2/5 339/2/5 338/2/5
f 344/2/5 339/2/5 343/2/5
f 345/4/5 341/4/5 340/4/5
f 346/4/5 341/4/5 345/4/5
f 352/2/5 348/2/5 347/2/5
f 353/2/5 348/2/5 352/2/5
f 354/4/5 350/4/5 349/4/5
f 355/4/5 350/4/5 354/4/5
f 357/5/5 352/5/5 351/5/5
f 358/5/5 352/5/5 357/5/5
f 361/5/5 356/5/5 355/5/5
f 362/5/5 356/5/5 361/5/5
f 363/2/5 359/2/5 358/2/5
f 364/2/5 359/2/5 363/2/5
f 365/4/5 361/4/5 360/4/5
f 366/4/5 361/4/5 365/4/5
f 367/2/6 368/2/6 374/2/6
f 374/2/6 368/2/6 375/2/6
f 369/3/6 370/3/6 376/3/6
f 376/3/6 370/3/6 377/3/6
f 371/4/6 372/4/6 378/4/6
f 378/4/6 372/4/6 379/4/6
f 373/5/6 374/5/6 381/5/6
f 381/5/6 374/5/6 382/5/6
f 379/5/6 380/5/6 387/5/6
f 387/5/6 380/5/6 388/5/6
f 382/2/6 383/2/6 389/2/6
f 389/2/6 383/2/6 390/2/6
f 384/3/6 385/3/6 391/3/6
f 391/3/6 385/3/6 392/3/6
f 386/4/6 387/4/6 393/4/6
f 393/4/6 387/4/6 394/4/6
f 395/2/6 396/2/6 402/2/6
f 396/3/6 397/3/6 403/3/6
f 402/2/6 396/2/6 403/2/6
f 403/3/6 397/3/6 404/3/6
f 398/3/6 399/3/6 405/3/6
f 399/4/6 400/4/6 406/4/6
f 405/3/6 399/3/6 406/3/6
f 406/4/6 400/4/6 407/4/6
f 401/5/6 402/5/6 409/5/6
f 409/5/6 402/5/6 410/5/6
f 404/5/6 405/5/6 412/5/6
f 412/5/6 405/5/6 413/5/6
f 407/5/6 408/5/6 415/5/6
f 415/5/6 408/5/6 416/5/6
f 410/2/6 411/2/6 417/2/6
f 411/3/6 412/3/6 418/3/6
f 417/2/6 411/2/6 418/2/6
f 418/3/6 412/3/6 419/3/6
f 413/3/6 414/3/6 420/3/6
f 414/4/6 415/4/6 421/4/6
f 420/3/6 414/3/6 421/3/6
f 421/4/6 415/4/6 422/4/6
f 423/5/6 424/5/6 427/5/6
f 427/5/6 424/5/6 428/5/6
f 425/5/6 426/5/6 429/5/6
f 429/5/6 426/5/6 430/5/6
