# MagicaVoxel @ ephtracy

# material
mtllib VOX_Bed.mtl
usemtl palette

# normals
vn -1 0 0
vn 1 0 0
vn 0 0 1
vn 0 0 -1
vn 0 -1 0
vn 0 1 0

# texcoords
vt 0.369141 0.5
vt 0.373047 0.5
vt 0.962891 0.5
vt 0.966797 0.5
vt 0.970703 0.5
vt 0.974609 0.5

# verts
v -12 0 8
v -12 0 -6
v -12 1 8
v -12 1 -5
v -12 2 8
v -12 2 7
v -12 2 -3
v -12 2 -4
v -12 2 -5
v -12 3 7
v -12 3 2
v -12 3 -0
v -12 3 -3
v -12 3 -4
v -12 3 -5
v -12 4 8
v -12 4 7
v -12 4 6
v -12 4 3
v -12 4 2
v -12 4 -0
v -12 4 -1
v -12 4 -4
v -12 4 -5
v -12 4 -6
v -12 5 7
v -12 5 6
v -12 5 3
v -12 5 -1
v -12 5 -4
v -12 5 -5
v -12 6 7
v -12 6 -5
v -10 3 6
v -10 3 -3
v -10 3 -4
v -10 4 6
v -10 4 -4
v -9 4 5
v -9 4 -3
v -9 5 5
v -9 5 -3
v 7 1 8
v 7 1 7
v 7 1 -5
v 7 1 -6
v 7 2 8
v 7 2 7
v 7 2 -5
v 7 2 -6
v -11 2 8
v -11 2 7
v -11 2 -5
v -11 2 -6
v -11 3 7
v -11 3 2
v -11 3 -0
v -11 3 -3
v -11 3 -4
v -11 3 -5
v -11 4 8
v -11 4 7
v -11 4 6
v -11 4 3
v -11 4 2
v -11 4 -0
v -11 4 -1
v -11 4 -4
v -11 4 -5
v -11 4 -6
v -11 5 7
v -11 5 6
v -11 5 3
v -11 5 -1
v -11 5 -4
v -11 5 -5
v -11 6 7
v -11 6 -5
v -10 1 8
v -10 1 7
v -10 1 -5
v -10 1 -6
v -10 2 8
v -10 2 7
v -10 2 -5
v -10 2 -6
v -7 4 5
v -7 4 -3
v -7 5 5
v -7 5 -3
v -6 3 6
v -6 3 3
v -6 3 -3
v -6 3 -4
v -6 4 6
v -6 4 -3
v -6 4 -4
v 9 0 8
v 9 0 7
v 9 0 -5
v 9 0 -6
v 9 1 7
v 9 1 -5
v 9 2 8
v 9 2 7
v 9 2 4
v 9 2 -0
v 9 2 -3
v 9 2 -4
v 9 2 -5
v 9 2 -6
v 9 3 7
v 9 3 4
v 9 3 -0
v 9 3 -3
v 9 3 -4
v 9 3 -5
v 10 0 7
v 10 0 -3
v 10 0 -4
v 10 0 -5
v 10 1 7
v 10 1 -3
v 10 1 -4
v 10 1 -5
v 10 2 7
v 10 2 -3
v 10 2 -4
v 10 2 -5
v -12 0 8
v -12 1 8
v -12 2 8
v -12 4 8
v -11 2 8
v -11 4 8
v -10 1 8
v -10 2 8
v 7 1 8
v 7 2 8
v 8 1 8
v 8 2 8
v 9 0 8
v 9 2 8
v -12 4 7
v -12 5 7
v -12 6 7
v -11 2 7
v -11 3 7
v -11 4 7
v -11 5 7
v -11 6 7
v -10 1 7
v -10 2 7
v -6 2 7
v -6 3 7
v -5 2 7
v -5 3 7
v -4 2 7
v -4 3 7
v -1 2 7
v -1 3 7
v 0 2 7
v 0 3 7
v 3 2 7
v 3 3 7
v 4 2 7
v 4 3 7
v 7 1 7
v 7 2 7
v 7 3 7
v 8 2 7
v 8 3 7
v 9 0 7
v 9 1 7
v 9 2 7
v 9 3 7
v 10 0 7
v 10 1 7
v 10 2 7
v -10 3 6
v -10 4 6
v -9 3 6
v -9 4 6
v -6 3 6
v -6 4 6
v -9 4 5
v -9 5 5
v -7 4 5
v -7 5 5
v -12 4 3
v -12 5 3
v -11 4 3
v -11 5 3
v -12 4 -4
v -12 5 -4
v -11 4 -4
v -11 5 -4
v -12 4 6
v -12 5 6
v -11 4 6
v -11 5 6
v -12 4 -1
v -12 5 -1
v -11 4 -1
v -11 5 -1
v -9 4 -3
v -9 5 -3
v -7 4 -3
v -7 5 -3
v -10 3 -4
v -10 4 -4
v -6 3 -4
v -6 4 -4
v -12 4 -5
v -12 5 -5
v -12 6 -5
v -11 2 -5
v -11 3 -5
v -11 4 -5
v -11 5 -5
v -11 6 -5
v -10 1 -5
v -10 2 -5
v -5 2 -5
v -5 3 -5
v -4 2 -5
v -4 3 -5
v -3 2 -5
v -3 3 -5
v -2 2 -5
v -2 3 -5
v 1 2 -5
v 1 3 -5
v 2 2 -5
v 2 3 -5
v 5 2 -5
v 5 3 -5
v 6 2 -5
v 6 3 -5
v 7 1 -5
v 7 2 -5
v 8 2 -5
v 9 0 -5
v 9 1 -5
v 9 2 -5
v 9 3 -5
v 10 0 -5
v 10 1 -5
v 10 2 -5
v -12 0 -6
v -12 4 -6
v -11 1 -6
v -11 2 -6
v -11 4 -6
v -10 1 -6
v -10 2 -6
v 7 1 -6
v 7 2 -6
v 8 1 -6
v 8 2 -6
v 9 0 -6
v 9 2 -6
v -12 0 8
v 9 0 8
v 9 0 7
v 10 0 7
v 9 0 -3
v 10 0 -3
v 9 0 -4
v 10 0 -4
v 9 0 -5
v 10 0 -5
v -12 0 -6
v 9 0 -6
v -12 5 6
v -11 5 6
v -12 5 3
v -11 5 3
v -12 5 -1
v -11 5 -1
v -12 5 -4
v -11 5 -4
v -10 1 8
v 7 1 8
v -10 1 7
v 7 1 7
v -10 1 -5
v 7 1 -5
v -10 1 -6
v 7 1 -6
v -11 2 8
v -10 2 8
v 7 2 8
v 8 2 8
v 9 2 8
v -11 2 7
v -10 2 7
v 7 2 7
v 8 2 7
v 9 2 7
v 10 2 7
v 9 2 4
v 9 2 -0
v 9 2 -3
v 10 2 -3
v 9 2 -4
v 10 2 -4
v -11 2 -5
v -10 2 -5
v 7 2 -5
v 8 2 -5
v 9 2 -5
v 10 2 -5
v -11 2 -6
v -10 2 -6
v 7 2 -6
v 8 2 -6
v 9 2 -6
v -11 3 7
v -6 3 7
v -5 3 7
v -4 3 7
v -1 3 7
v 0 3 7
v 3 3 7
v 4 3 7
v 7 3 7
v 8 3 7
v 9 3 7
v -10 3 6
v -9 3 6
v -6 3 6
v -4 3 6
v -3 3 6
v -2 3 6
v -1 3 6
v 1 3 6
v 2 3 6
v 5 3 6
v 6 3 6
v 4 3 4
v 5 3 4
v 8 3 4
v 9 3 4
v -6 3 3
v -5 3 3
v -11 3 2
v -4 3 2
v -3 3 2
v -2 3 2
v -1 3 2
v 0 3 2
v 1 3 2
v 0 3 1
v 1 3 1
v -11 3 -0
v 2 3 -0
v 3 3 -0
v 8 3 -0
v 9 3 -0
v 2 3 -1
v 3 3 -1
v 4 3 -1
v 5 3 -1
v -11 3 -3
v -10 3 -3
v -6 3 -3
v -5 3 -3
v -4 3 -3
v -3 3 -3
v -2 3 -3
v -1 3 -3
v 0 3 -3
v 1 3 -3
v 2 3 -3
v 3 3 -3
v 4 3 -3
v 5 3 -3
v 6 3 -3
v 7 3 -3
v 8 3 -3
v 9 3 -3
v -11 3 -4
v -10 3 -4
v -6 3 -4
v -5 3 -4
v -4 3 -4
v -3 3 -4
v -2 3 -4
v 1 3 -4
v 2 3 -4
v 5 3 -4
v 6 3 -4
v 9 3 -4
v -11 3 -5
v -5 3 -5
v -4 3 -5
v -3 3 -5
v -2 3 -5
v 1 3 -5
v 2 3 -5
v 5 3 -5
v 6 3 -5
v 9 3 -5
v -12 4 8
v -11 4 8
v -12 4 7
v -11 4 7
v -12 4 6
v -11 4 6
v -10 4 6
v -9 4 6
v -6 4 6
v -9 4 5
v -7 4 5
v -12 4 3
v -11 4 3
v -12 4 -1
v -11 4 -1
v -9 4 -3
v -7 4 -3
v -6 4 -3
v -12 4 -4
v -11 4 -4
v -10 4 -4
v -6 4 -4
v -12 4 -5
v -11 4 -5
v -12 4 -6
v -11 4 -6
v -9 5 5
v -7 5 5
v -9 5 -3
v -7 5 -3
v -12 6 7
v -11 6 7
v -12 6 -5
v -11 6 -5

# faces
f 3/2/1 2/2/1 1/2/1
f 4/2/1 2/2/1 3/2/1
f 5/1/1 4/1/1 3/1/1
f 6/1/1 4/1/1 5/1/1
f 7/1/1 4/1/1 6/1/1
f 8/1/1 4/1/1 7/1/1
f 9/2/1 2/2/1 4/2/1
f 9/1/1 4/1/1 8/1/1
f 10/2/1 6/2/1 5/2/1
f 10/4/1 7/4/1 6/4/1
f 11/4/1 7/4/1 10/4/1
f 12/4/1 7/4/1 11/4/1
f 13/5/1 8/5/1 7/5/1
f 13/4/1 7/4/1 12/4/1
f 14/4/1 9/4/1 8/4/1
f 14/5/1 8/5/1 13/5/1
f 15/2/1 2/2/1 9/2/1
f 15/4/1 9/4/1 14/4/1
f 16/2/1 10/2/1 5/2/1
f 16/2/1 11/2/1 10/2/1
f 17/2/1 11/2/1 16/2/1
f 18/2/1 11/2/1 17/2/1
f 19/2/1 11/2/1 18/2/1
f 20/1/1 12/1/1 11/1/1
f 20/2/1 11/2/1 19/2/1
f 21/2/1 14/2/1 13/2/1
f 21/1/1 12/1/1 20/1/1
f 21/2/1 13/2/1 12/2/1
f 21/2/1 15/2/1 14/2/1
f 22/2/1 15/2/1 21/2/1
f 23/2/1 15/2/1 22/2/1
f 24/2/1 2/2/1 15/2/1
f 24/2/1 15/2/1 23/2/1
f 25/2/1 2/2/1 24/2/1
f 26/1/1 18/1/1 17/1/1
f 27/1/1 18/1/1 26/1/1
f 28/1/1 20/1/1 19/1/1
f 28/1/1 22/1/1 21/1/1
f 28/1/1 21/1/1 20/1/1
f 29/1/1 22/1/1 28/1/1
f 30/1/1 24/1/1 23/1/1
f 31/1/1 24/1/1 30/1/1
f 32/2/1 27/2/1 26/2/1
f 32/2/1 29/2/1 28/2/1
f 32/2/1 31/2/1 30/2/1
f 32/2/1 30/2/1 29/2/1
f 32/2/1 28/2/1 27/2/1
f 33/2/1 31/2/1 32/2/1
f 37/4/1 35/4/1 34/4/1
f 37/4/1 36/4/1 35/4/1
f 38/4/1 36/4/1 37/4/1
f 41/3/1 40/3/1 39/3/1
f 42/3/1 40/3/1 41/3/1
f 47/1/1 44/1/1 43/1/1
f 48/1/1 44/1/1 47/1/1
f 49/1/1 46/1/1 45/1/1
f 50/1/1 46/1/1 49/1/1
f 51/2/2 52/2/2 55/2/2
f 53/2/2 54/2/2 60/2/2
f 51/2/2 55/2/2 61/2/2
f 55/2/2 56/2/2 61/2/2
f 61/2/2 56/2/2 62/2/2
f 62/2/2 56/2/2 63/2/2
f 63/2/2 56/2/2 64/2/2
f 56/1/2 57/1/2 65/1/2
f 64/2/2 56/2/2 65/2/2
f 58/2/2 59/2/2 66/2/2
f 65/1/2 57/1/2 66/1/2
f 59/2/2 60/2/2 66/2/2
f 57/2/2 58/2/2 66/2/2
f 66/2/2 60/2/2 67/2/2
f 67/2/2 60/2/2 68/2/2
f 60/2/2 54/2/2 69/2/2
f 68/2/2 60/2/2 69/2/2
f 69/2/2 54/2/2 70/2/2
f 62/1/2 63/1/2 71/1/2
f 71/1/2 63/1/2 72/1/2
f 64/1/2 65/1/2 73/1/2
f 66/1/2 67/1/2 73/1/2
f 65/1/2 66/1/2 73/1/2
f 73/1/2 67/1/2 74/1/2
f 68/1/2 69/1/2 75/1/2
f 75/1/2 69/1/2 76/1/2
f 71/2/2 72/2/2 77/2/2
f 73/2/2 74/2/2 77/2/2
f 75/2/2 76/2/2 77/2/2
f 74/2/2 75/2/2 77/2/2
f 72/2/2 73/2/2 77/2/2
f 77/2/2 76/2/2 78/2/2
f 79/1/2 80/1/2 83/1/2
f 83/1/2 80/1/2 84/1/2
f 81/1/2 82/1/2 85/1/2
f 85/1/2 82/1/2 86/1/2
f 87/3/2 88/3/2 89/3/2
f 89/3/2 88/3/2 90/3/2
f 91/3/2 92/3/2 95/3/2
f 92/3/2 93/3/2 95/3/2
f 93/4/2 94/4/2 96/4/2
f 95/3/2 93/3/2 96/3/2
f 96/4/2 94/4/2 97/4/2
f 98/2/2 99/2/2 102/2/2
f 100/2/2 101/2/2 103/2/2
f 98/2/2 102/2/2 104/2/2
f 104/2/2 102/2/2 105/2/2
f 103/2/2 101/2/2 110/2/2
f 110/2/2 101/2/2 111/2/2
f 105/4/2 106/4/2 112/4/2
f 106/6/2 107/6/2 113/6/2
f 112/4/2 106/4/2 113/4/2
f 107/4/2 108/4/2 114/4/2
f 113/6/2 107/6/2 114/6/2
f 108/5/2 109/5/2 115/5/2
f 114/4/2 108/4/2 115/4/2
f 109/4/2 110/4/2 116/4/2
f 115/5/2 109/5/2 116/5/2
f 116/4/2 110/4/2 117/4/2
f 118/4/2 119/4/2 122/4/2
f 119/5/2 120/5/2 123/5/2
f 122/4/2 119/4/2 123/4/2
f 120/4/2 121/4/2 124/4/2
f 123/5/2 120/5/2 124/5/2
f 124/4/2 121/4/2 125/4/2
f 122/3/2 123/3/2 126/3/2
f 123/5/2 124/5/2 127/5/2
f 126/3/2 123/3/2 127/3/2
f 124/3/2 125/3/2 128/3/2
f 127/5/2 124/5/2 128/5/2
f 128/3/2 125/3/2 129/3/2
f 134/1/3 132/1/3 131/1/3
f 134/2/3 133/2/3 132/2/3
f 135/2/3 133/2/3 134/2/3
f 136/2/3 131/2/3 130/2/3
f 136/1/3 134/1/3 131/1/3
f 137/1/3 134/1/3 136/1/3
f 138/2/3 136/2/3 130/2/3
f 140/2/3 138/2/3 130/2/3
f 140/1/3 139/1/3 138/1/3
f 141/1/3 139/1/3 140/1/3
f 142/2/3 140/2/3 130/2/3
f 142/2/3 141/2/3 140/2/3
f 143/2/3 141/2/3 142/2/3
f 149/1/3 145/1/3 144/1/3
f 150/2/3 146/2/3 145/2/3
f 150/1/3 145/1/3 149/1/3
f 151/2/3 146/2/3 150/2/3
f 153/4/3 148/4/3 147/4/3
f 154/4/3 148/4/3 153/4/3
f 154/1/3 153/1/3 152/1/3
f 155/4/3 148/4/3 154/4/3
f 156/1/3 154/1/3 152/1/3
f 156/6/3 155/6/3 154/6/3
f 157/6/3 155/6/3 156/6/3
f 158/1/3 156/1/3 152/1/3
f 158/5/3 157/5/3 156/5/3
f 159/5/3 157/5/3 158/5/3
f 160/1/3 158/1/3 152/1/3
f 160/4/3 159/4/3 158/4/3
f 161/4/3 159/4/3 160/4/3
f 162/1/3 160/1/3 152/1/3
f 162/3/3 161/3/3 160/3/3
f 163/3/3 161/3/3 162/3/3
f 164/1/3 162/1/3 152/1/3
f 164/4/3 163/4/3 162/4/3
f 165/4/3 163/4/3 164/4/3
f 166/1/3 164/1/3 152/1/3
f 166/3/3 165/3/3 164/3/3
f 167/3/3 165/3/3 166/3/3
f 168/1/3 166/1/3 152/1/3
f 169/4/3 167/4/3 166/4/3
f 169/1/3 166/1/3 168/1/3
f 170/4/3 167/4/3 169/4/3
f 171/3/3 170/3/3 169/3/3
f 172/3/3 170/3/3 171/3/3
f 175/4/3 172/4/3 171/4/3
f 176/4/3 172/4/3 175/4/3
f 177/4/3 174/4/3 173/4/3
f 178/3/3 175/3/3 174/3/3
f 178/4/3 174/4/3 177/4/3
f 179/3/3 175/3/3 178/3/3
f 182/4/3 181/4/3 180/4/3
f 183/4/3 181/4/3 182/4/3
f 184/3/3 183/3/3 182/3/3
f 185/3/3 183/3/3 184/3/3
f 188/3/3 187/3/3 186/3/3
f 189/3/3 187/3/3 188/3/3
f 192/1/3 191/1/3 190/1/3
f 193/1/3 191/1/3 192/1/3
f 196/1/3 195/1/3 194/1/3
f 197/1/3 195/1/3 196/1/3
f 198/1/4 199/1/4 200/1/4
f 200/1/4 199/1/4 201/1/4
f 202/1/4 203/1/4 204/1/4
f 204/1/4 203/1/4 205/1/4
f 206/3/4 207/3/4 208/3/4
f 208/3/4 207/3/4 209/3/4
f 210/4/4 211/4/4 212/4/4
f 212/4/4 211/4/4 213/4/4
f 214/1/4 215/1/4 219/1/4
f 215/2/4 216/2/4 220/2/4
f 219/1/4 215/1/4 220/1/4
f 220/2/4 216/2/4 221/2/4
f 217/4/4 218/4/4 223/4/4
f 223/4/4 218/4/4 224/4/4
f 222/1/4 223/1/4 224/1/4
f 224/4/4 218/4/4 225/4/4
f 222/1/4 224/1/4 226/1/4
f 224/5/4 225/5/4 226/5/4
f 226/5/4 225/5/4 227/5/4
f 222/1/4 226/1/4 228/1/4
f 226/4/4 227/4/4 228/4/4
f 228/4/4 227/4/4 229/4/4
f 222/1/4 228/1/4 230/1/4
f 228/3/4 229/3/4 230/3/4
f 230/3/4 229/3/4 231/3/4
f 222/1/4 230/1/4 232/1/4
f 230/4/4 231/4/4 232/4/4
f 232/4/4 231/4/4 233/4/4
f 222/1/4 232/1/4 234/1/4
f 232/3/4 233/3/4 234/3/4
f 234/3/4 233/3/4 235/3/4
f 222/1/4 234/1/4 236/1/4
f 234/4/4 235/4/4 236/4/4
f 236/4/4 235/4/4 237/4/4
f 222/1/4 236/1/4 238/1/4
f 236/3/4 237/3/4 238/3/4
f 238/3/4 237/3/4 239/3/4
f 222/1/4 238/1/4 240/1/4
f 238/4/4 239/4/4 241/4/4
f 240/1/4 238/1/4 241/1/4
f 241/4/4 239/4/4 242/4/4
f 242/4/4 239/4/4 245/4/4
f 245/4/4 239/4/4 246/4/4
f 243/4/4 244/4/4 247/4/4
f 244/3/4 245/3/4 248/3/4
f 247/4/4 244/4/4 248/4/4
f 248/3/4 245/3/4 249/3/4
f 250/2/4 251/2/4 252/2/4
f 252/2/4 251/2/4 253/2/4
f 253/2/4 251/2/4 254/2/4
f 250/2/4 252/2/4 255/2/4
f 252/1/4 253/1/4 255/1/4
f 255/1/4 253/1/4 256/1/4
f 250/2/4 255/2/4 257/2/4
f 250/2/4 257/2/4 259/2/4
f 257/1/4 258/1/4 259/1/4
f 259/1/4 258/1/4 260/1/4
f 250/2/4 259/2/4 261/2/4
f 259/2/4 260/2/4 261/2/4
f 261/2/4 260/2/4 262/2/4
f 265/2/5 264/2/5 263/2/5
f 267/2/5 265/2/5 263/2/5
f 267/4/5 266/4/5 265/4/5
f 268/4/5 266/4/5 267/4/5
f 269/2/5 267/2/5 263/2/5
f 269/5/5 268/5/5 267/5/5
f 270/5/5 268/5/5 269/5/5
f 271/2/5 269/2/5 263/2/5
f 271/4/5 270/4/5 269/4/5
f 272/4/5 270/4/5 271/4/5
f 273/2/5 271/2/5 263/2/5
f 274/2/5 271/2/5 273/2/5
f 277/2/5 276/2/5 275/2/5
f 278/2/5 276/2/5 277/2/5
f 281/2/5 280/2/5 279/2/5
f 282/2/5 280/2/5 281/2/5
f 283/2/6 284/2/6 285/2/6
f 285/2/6 284/2/6 286/2/6
f 287/2/6 288/2/6 289/2/6
f 289/2/6 288/2/6 290/2/6
f 291/1/6 292/1/6 296/1/6
f 296/1/6 292/1/6 297/1/6
f 293/1/6 294/1/6 298/1/6
f 294/2/6 295/2/6 299/2/6
f 298/1/6 294/1/6 299/1/6
f 299/2/6 295/2/6 300/2/6
f 300/3/6 301/3/6 302/3/6
f 302/3/6 301/3/6 303/3/6
f 303/3/6 301/3/6 304/3/6
f 304/3/6 301/3/6 305/3/6
f 304/5/6 305/5/6 306/5/6
f 306/5/6 305/5/6 307/5/6
f 306/3/6 307/3/6 312/3/6
f 312/3/6 307/3/6 313/3/6
f 308/1/6 309/1/6 314/1/6
f 314/1/6 309/1/6 315/1/6
f 310/1/6 311/1/6 316/1/6
f 311/2/6 312/2/6 317/2/6
f 316/1/6 311/1/6 317/1/6
f 317/2/6 312/2/6 318/2/6
f 319/4/6 320/4/6 330/4/6
f 330/4/6 320/4/6 331/4/6
f 320/6/6 321/6/6 332/6/6
f 331/4/6 320/4/6 332/4/6
f 321/5/6 322/5/6 333/5/6
f 322/4/6 323/4/6 333/4/6
f 333/4/6 323/4/6 334/4/6
f 334/4/6 323/4/6 335/4/6
f 323/3/6 324/3/6 336/3/6
f 335/4/6 323/4/6 336/4/6
f 324/4/6 325/4/6 337/4/6
f 337/4/6 325/4/6 338/4/6
f 326/4/6 327/4/6 339/4/6
f 339/4/6 327/4/6 340/4/6
f 325/3/6 326/3/6 341/3/6
f 326/4/6 339/4/6 341/4/6
f 339/3/6 340/3/6 342/3/6
f 341/4/6 339/4/6 342/4/6
f 328/4/6 329/4/6 343/4/6
f 327/3/6 328/3/6 343/3/6
f 343/4/6 329/4/6 344/4/6
f 332/6/6 321/6/6 345/6/6
f 321/5/6 333/5/6 346/5/6
f 345/6/6 321/6/6 346/6/6
f 319/4/6 330/4/6 347/4/6
f 346/5/6 333/5/6 348/5/6
f 333/6/6 334/6/6 348/6/6
f 334/3/6 335/3/6 349/3/6
f 348/6/6 334/6/6 349/6/6
f 335/6/6 336/6/6 350/6/6
f 349/3/6 335/3/6 350/3/6
f 336/3/6 324/3/6 351/3/6
f 350/6/6 336/6/6 351/6/6
f 324/4/6 337/4/6 352/4/6
f 351/3/6 324/3/6 352/3/6
f 337/3/6 338/3/6 353/3/6
f 352/4/6 337/4/6 353/4/6
f 351/3/6 352/3/6 354/3/6
f 352/6/6 353/6/6 354/6/6
f 353/3/6 338/3/6 355/3/6
f 354/6/6 353/6/6 355/6/6
f 347/4/6 330/4/6 356/4/6
f 338/4/6 325/4/6 357/4/6
f 355/3/6 338/3/6 357/3/6
f 325/3/6 341/3/6 358/3/6
f 357/4/6 325/4/6 358/4/6
f 327/3/6 343/3/6 359/3/6
f 343/6/6 344/6/6 359/6/6
f 359/6/6 344/6/6 360/6/6
f 355/3/6 357/3/6 361/3/6
f 357/6/6 358/6/6 361/6/6
f 358/3/6 341/3/6 362/3/6
f 361/6/6 358/6/6 362/6/6
f 341/6/6 342/6/6 363/6/6
f 362/3/6 341/3/6 363/3/6
f 342/3/6 340/3/6 364/3/6
f 363/6/6 342/6/6 364/6/6
f 356/4/6 330/4/6 365/4/6
f 365/4/6 330/4/6 366/4/6
f 345/4/6 346/4/6 367/4/6
f 346/5/6 348/5/6 368/5/6
f 367/4/6 346/4/6 368/4/6
f 348/4/6 349/4/6 369/4/6
f 368/5/6 348/5/6 369/5/6
f 349/3/6 350/3/6 370/3/6
f 369/4/6 349/4/6 370/4/6
f 350/4/6 351/4/6 371/4/6
f 370/3/6 350/3/6 371/3/6
f 351/3/6 354/3/6 372/3/6
f 371/4/6 351/4/6 372/4/6
f 354/4/6 355/4/6 373/4/6
f 372/3/6 354/3/6 373/3/6
f 355/3/6 361/3/6 374/3/6
f 373/4/6 355/4/6 374/4/6
f 361/4/6 362/4/6 375/4/6
f 374/3/6 361/3/6 375/3/6
f 362/3/6 363/3/6 376/3/6
f 375/4/6 362/4/6 376/4/6
f 363/4/6 364/4/6 377/4/6
f 376/3/6 363/3/6 377/3/6
f 364/3/6 340/3/6 378/3/6
f 377/4/6 364/4/6 378/4/6
f 340/4/6 327/4/6 379/4/6
f 378/3/6 340/3/6 379/3/6
f 327/3/6 359/3/6 380/3/6
f 379/4/6 327/4/6 380/4/6
f 359/4/6 360/4/6 381/4/6
f 380/3/6 359/3/6 381/3/6
f 381/4/6 360/4/6 382/4/6
f 365/5/6 366/5/6 383/5/6
f 383/5/6 366/5/6 384/5/6
f 374/5/6 375/5/6 385/5/6
f 377/5/6 378/5/6 385/5/6
f 368/5/6 369/5/6 385/5/6
f 381/5/6 382/5/6 385/5/6
f 380/5/6 381/5/6 385/5/6
f 370/5/6 371/5/6 385/5/6
f 375/5/6 376/5/6 385/5/6
f 378/5/6 379/5/6 385/5/6
f 371/5/6 372/5/6 385/5/6
f 376/5/6 377/5/6 385/5/6
f 379/5/6 380/5/6 385/5/6
f 372/5/6 373/5/6 385/5/6
f 369/5/6 370/5/6 385/5/6
f 367/5/6 368/5/6 385/5/6
f 373/5/6 374/5/6 385/5/6
f 385/5/6 382/5/6 386/5/6
f 386/5/6 382/5/6 387/5/6
f 387/5/6 382/5/6 388/5/6
f 388/5/6 382/5/6 389/5/6
f 389/5/6 382/5/6 390/5/6
f 390/5/6 382/5/6 391/5/6
f 391/5/6 382/5/6 392/5/6
f 392/5/6 382/5/6 393/5/6
f 393/5/6 382/5/6 394/5/6
f 383/4/6 384/4/6 395/4/6
f 384/4/6 385/4/6 395/4/6
f 385/4/6 386/4/6 395/4/6
f 386/5/6 387/5/6 396/5/6
f 395/4/6 386/4/6 396/4/6
f 387/4/6 388/4/6 397/4/6
f 396/5/6 387/5/6 397/5/6
f 388/3/6 389/3/6 398/3/6
f 397/4/6 388/4/6 398/4/6
f 389/4/6 390/4/6 399/4/6
f 398/3/6 389/3/6 399/3/6
f 390/3/6 391/3/6 400/3/6
f 399/4/6 390/4/6 400/4/6
f 391/4/6 392/4/6 401/4/6
f 400/3/6 391/3/6 401/3/6
f 392/3/6 393/3/6 402/3/6
f 401/4/6 392/4/6 402/4/6
f 393/4/6 394/4/6 403/4/6
f 402/3/6 393/3/6 403/3/6
f 403/4/6 394/4/6 404/4/6
f 405/2/6 406/2/6 407/2/6
f 407/2/6 406/2/6 408/2/6
f 411/4/6 412/4/6 414/4/6
f 412/3/6 413/3/6 414/3/6
f 414/3/6 413/3/6 415/3/6
f 409/2/6 410/2/6 416/2/6
f 416/2/6 410/2/6 417/2/6
f 411/4/6 414/4/6 420/4/6
f 415/3/6 413/3/6 421/3/6
f 421/3/6 413/3/6 422/3/6
f 418/2/6 419/2/6 423/2/6
f 423/2/6 419/2/6 424/2/6
f 411/4/6 420/4/6 425/4/6
f 420/4/6 421/4/6 425/4/6
f 421/4/6 422/4/6 425/4/6
f 425/4/6 422/4/6 426/4/6
f 427/2/6 428/2/6 429/2/6
f 429/2/6 428/2/6 430/2/6
f 431/3/6 432/3/6 433/3/6
f 433/3/6 432/3/6 434/3/6
f 435/2/6 436/2/6 437/2/6
f 437/2/6 436/2/6 438/2/6
