# MagicaVoxel @ ephtracy

# material
mtllib CutScene Chair.mtl
usemtl palette

# normals
vn -1 0 0
vn 1 0 0
vn 0 0 1
vn 0 0 -1
vn 0 -1 0
vn 0 1 0

# texcoords
vt 0.361328 0.5
vt 0.365234 0.5
vt 0.369141 0.5
vt 0.373047 0.5
vt 0.958984 0.5
vt 0.962891 0.5
vt 0.966797 0.5

# verts
v -9.5 0 5.5
v -9.5 0 3.5
v -9.5 0 -5.5
v -9.5 0 -7.5
v -9.5 3 -5.5
v -9.5 3 -7.5
v -9.5 4 5.5
v -9.5 4 3.5
v -9.5 5 5.5
v -9.5 5 3.5
v -9.5 5 -5.5
v -9.5 5 -7.5
v -9.5 7 3.5
v -9.5 7 2.5
v -9.5 7 -5.5
v -9.5 7 -7.5
v -9.5 8 2.5
v -9.5 8 -7.5
v -9.5 9 5.5
v -9.5 9 -7.5
v -9.5 10 5.5
v -9.5 10 4.5
v -9.5 12 5.5
v -9.5 12 4.5
v -9.5 14 5.5
v -9.5 14 4.5
v -9.5 20 5.5
v -9.5 20 4.5
v -8.5 0 6.5
v -8.5 0 5.5
v -8.5 0 -7.5
v -8.5 0 -8.5
v -8.5 3 -7.5
v -8.5 3 -8.5
v -8.5 4 5.5
v -8.5 4 -7.5
v -8.5 4 -8.5
v -8.5 5 5.5
v -8.5 5 -7.5
v -8.5 7 -7.5
v -8.5 8 -7.5
v -8.5 9 5.5
v -8.5 9 4.5
v -8.5 9 -1.5
v -8.5 9 -3.5
v -8.5 9 -5.5
v -8.5 9 -6.5
v -8.5 9 -7.5
v -8.5 9 -8.5
v -8.5 10 5.5
v -8.5 10 4.5
v -8.5 10 3.5
v -8.5 10 -1.5
v -8.5 10 -3.5
v -8.5 10 -5.5
v -8.5 10 -6.5
v -8.5 12 6.5
v -8.5 12 5.5
v -8.5 12 4.5
v -8.5 12 3.5
v -8.5 13 6.5
v -8.5 13 5.5
v -8.5 14 6.5
v -8.5 14 5.5
v -8.5 14 4.5
v -8.5 15 6.5
v -8.5 15 5.5
v -8.5 15 4.5
v -8.5 15 3.5
v -8.5 17 4.5
v -8.5 17 3.5
v -8.5 19 4.5
v -8.5 19 3.5
v -8.5 20 6.5
v -8.5 20 5.5
v -7.5 9 -6.5
v -7.5 9 -7.5
v -7.5 10 -6.5
v -7.5 10 -7.5
v 1.5 0 5.5
v 1.5 0 3.5
v 1.5 0 -6.5
v 1.5 0 -8.5
v 1.5 2 -6.5
v 1.5 2 -8.5
v 1.5 4 -6.5
v 1.5 4 -7.5
v 1.5 4 -8.5
v 1.5 6 -7.5
v 1.5 6 -8.5
v 1.5 7 5.5
v 1.5 7 3.5
v 1.5 7 -6.5
v 1.5 7 -8.5
v 2.5 0 6.5
v 2.5 0 5.5
v 2.5 0 -5.5
v 2.5 0 -6.5
v 2.5 2 -6.5
v 2.5 4 -6.5
v 2.5 7 6.5
v 2.5 7 5.5
v 2.5 7 -5.5
v 2.5 7 -6.5
v -6.5 0 6.5
v -6.5 0 5.5
v -6.5 0 -5.5
v -6.5 0 -6.5
v -6.5 6 -5.5
v -6.5 6 -6.5
v -6.5 7 6.5
v -6.5 7 5.5
v -5.5 0 5.5
v -5.5 0 3.5
v -5.5 0 -6.5
v -5.5 0 -8.5
v -5.5 3 -7.5
v -5.5 3 -8.5
v -5.5 4 -7.5
v -5.5 4 -8.5
v -5.5 6 -5.5
v -5.5 6 -6.5
v -5.5 7 5.5
v -5.5 7 3.5
v -5.5 7 -5.5
v -5.5 7 -8.5
v 3.5 9 -6.5
v 3.5 9 -7.5
v 3.5 10 -6.5
v 3.5 10 -7.5
v 4.5 0 6.5
v 4.5 0 5.5
v 4.5 0 -7.5
v 4.5 0 -8.5
v 4.5 1 -7.5
v 4.5 2 5.5
v 4.5 2 -7.5
v 4.5 3 5.5
v 4.5 4 5.5
v 4.5 4 -7.5
v 4.5 4 -8.5
v 4.5 5 5.5
v 4.5 6 -7.5
v 4.5 6 -8.5
v 4.5 8 6.5
v 4.5 8 5.5
v 4.5 9 5.5
v 4.5 9 4.5
v 4.5 9 1.5
v 4.5 9 -0.5
v 4.5 9 -3.5
v 4.5 9 -5.5
v 4.5 9 -6.5
v 4.5 9 -7.5
v 4.5 9 -8.5
v 4.5 10 6.5
v 4.5 10 5.5
v 4.5 10 4.5
v 4.5 10 3.5
v 4.5 10 1.5
v 4.5 10 -0.5
v 4.5 10 -3.5
v 4.5 10 -5.5
v 4.5 10 -6.5
v 4.5 13 6.5
v 4.5 13 5.5
v 4.5 13 4.5
v 4.5 13 3.5
v 4.5 14 4.5
v 4.5 14 3.5
v 4.5 15 6.5
v 4.5 15 5.5
v 4.5 16 6.5
v 4.5 16 5.5
v 4.5 18 6.5
v 4.5 18 5.5
v 4.5 18 4.5
v 4.5 18 3.5
v 4.5 19 4.5
v 4.5 19 3.5
v 4.5 20 6.5
v 4.5 20 5.5
v 5.5 0 5.5
v 5.5 0 3.5
v 5.5 0 -5.5
v 5.5 0 -7.5
v 5.5 1 -5.5
v 5.5 1 -7.5
v 5.5 2 5.5
v 5.5 2 3.5
v 5.5 2 -5.5
v 5.5 2 -7.5
v 5.5 3 5.5
v 5.5 3 3.5
v 5.5 4 5.5
v 5.5 4 3.5
v 5.5 5 5.5
v 5.5 5 3.5
v 5.5 7 3.5
v 5.5 7 1.5
v 5.5 7 -5.5
v 5.5 7 -6.5
v 5.5 8 5.5
v 5.5 8 4.5
v 5.5 8 1.5
v 5.5 8 -6.5
v 5.5 9 5.5
v 5.5 9 4.5
v 5.5 9 -7.5
v 5.5 10 5.5
v 5.5 10 4.5
v 5.5 20 5.5
v 5.5 20 4.5
v -8.5 0 6.5
v -8.5 12 6.5
v -8.5 13 6.5
v -8.5 14 6.5
v -8.5 15 6.5
v -8.5 20 6.5
v -7.5 8 6.5
v -7.5 10 6.5
v -7.5 13 6.5
v -7.5 14 6.5
v -7.5 18 6.5
v -7.5 20 6.5
v -6.5 0 6.5
v -6.5 7 6.5
v -4.5 15 6.5
v -4.5 16 6.5
v -3.5 13 6.5
v -3.5 15 6.5
v -3.5 18 6.5
v -3.5 20 6.5
v -2.5 7 6.5
v -2.5 8 6.5
v -2.5 10 6.5
v -2.5 12 6.5
v -1.5 7 6.5
v -1.5 8 6.5
v -1.5 10 6.5
v -1.5 12 6.5
v -1.5 13 6.5
v -1.5 15 6.5
v -1.5 18 6.5
v -1.5 20 6.5
v 2.5 0 6.5
v 2.5 7 6.5
v 4.5 0 6.5
v 4.5 8 6.5
v 4.5 10 6.5
v 4.5 13 6.5
v 4.5 15 6.5
v 4.5 16 6.5
v 4.5 18 6.5
v 4.5 20 6.5
v -9.5 0 5.5
v -9.5 4 5.5
v -9.5 5 5.5
v -9.5 9 5.5
v -9.5 10 5.5
v -9.5 12 5.5
v -9.5 14 5.5
v -9.5 20 5.5
v -8.5 0 5.5
v -8.5 4 5.5
v -8.5 5 5.5
v -8.5 9 5.5
v -8.5 10 5.5
v -8.5 12 5.5
v -8.5 13 5.5
v -8.5 14 5.5
v -8.5 15 5.5
v -8.5 20 5.5
v -6.5 0 5.5
v -6.5 7 5.5
v -5.5 0 5.5
v -5.5 7 5.5
v 1.5 0 5.5
v 1.5 7 5.5
v 2.5 0 5.5
v 2.5 7 5.5
v 4.5 0 5.5
v 4.5 2 5.5
v 4.5 3 5.5
v 4.5 4 5.5
v 4.5 5 5.5
v 4.5 8 5.5
v 4.5 9 5.5
v 4.5 10 5.5
v 4.5 13 5.5
v 4.5 15 5.5
v 4.5 16 5.5
v 4.5 18 5.5
v 4.5 20 5.5
v 5.5 0 5.5
v 5.5 2 5.5
v 5.5 3 5.5
v 5.5 4 5.5
v 5.5 5 5.5
v 5.5 8 5.5
v 5.5 9 5.5
v 5.5 10 5.5
v 5.5 20 5.5
v -9.5 0 -5.5
v -9.5 3 -5.5
v -9.5 5 -5.5
v -9.5 7 -5.5
v -8.5 3 -5.5
v -8.5 5 -5.5
v -8.5 7 -5.5
v -6.5 0 -5.5
v -6.5 6 -5.5
v -5.5 6 -5.5
v -5.5 7 -5.5
v 2.5 0 -5.5
v 2.5 7 -5.5
v 4.5 1 -5.5
v 4.5 2 -5.5
v 4.5 7 -5.5
v 5.5 0 -5.5
v 5.5 1 -5.5
v 5.5 2 -5.5
v 5.5 7 -5.5
v -6.5 0 -6.5
v -6.5 6 -6.5
v -5.5 0 -6.5
v -5.5 6 -6.5
v 1.5 0 -6.5
v 1.5 2 -6.5
v 1.5 4 -6.5
v 1.5 7 -6.5
v 2.5 0 -6.5
v 2.5 2 -6.5
v 2.5 4 -6.5
v 2.5 7 -6.5
v -9.5 10 4.5
v -9.5 12 4.5
v -9.5 14 4.5
v -9.5 20 4.5
v -8.5 10 4.5
v -8.5 12 4.5
v -8.5 14 4.5
v -8.5 15 4.5
v -8.5 17 4.5
v -8.5 19 4.5
v -3.5 19 4.5
v 4.5 10 4.5
v 4.5 13 4.5
v 4.5 14 4.5
v 4.5 18 4.5
v 4.5 19 4.5
v 5.5 10 4.5
v 5.5 20 4.5
v -9.5 0 3.5
v -9.5 4 3.5
v -9.5 5 3.5
v -9.5 7 3.5
v -8.5 4 3.5
v -8.5 5 3.5
v -8.5 10 3.5
v -8.5 12 3.5
v -8.5 15 3.5
v -8.5 17 3.5
v -8.5 19 3.5
v -5.5 0 3.5
v -5.5 7 3.5
v -4.5 13 3.5
v -4.5 14 3.5
v -3.5 18 3.5
v -3.5 19 3.5
v -2.5 11 3.5
v -2.5 12 3.5
v 0.5 10 3.5
v 0.5 11 3.5
v 1.5 0 3.5
v 1.5 7 3.5
v 1.5 15 3.5
v 1.5 17 3.5
v 4.5 2 3.5
v 4.5 3 3.5
v 4.5 4 3.5
v 4.5 5 3.5
v 4.5 10 3.5
v 4.5 13 3.5
v 4.5 14 3.5
v 4.5 18 3.5
v 4.5 19 3.5
v 5.5 0 3.5
v 5.5 2 3.5
v 5.5 3 3.5
v 5.5 4 3.5
v 5.5 5 3.5
v 5.5 7 3.5
v -8.5 9 -6.5
v -8.5 10 -6.5
v -7.5 9 -6.5
v -7.5 10 -6.5
v 3.5 9 -6.5
v 3.5 10 -6.5
v 4.5 9 -6.5
v 4.5 10 -6.5
v -9.5 0 -7.5
v -9.5 3 -7.5
v -9.5 5 -7.5
v -9.5 7 -7.5
v -9.5 8 -7.5
v -9.5 9 -7.5
v -8.5 0 -7.5
v -8.5 3 -7.5
v -8.5 4 -7.5
v -8.5 5 -7.5
v -8.5 7 -7.5
v -8.5 8 -7.5
v -8.5 9 -7.5
v -7.5 9 -7.5
v -7.5 10 -7.5
v 0.5 9 -7.5
v 0.5 10 -7.5
v 3.5 9 -7.5
v 3.5 10 -7.5
v 4.5 0 -7.5
v 4.5 1 -7.5
v 4.5 2 -7.5
v 4.5 4 -7.5
v 4.5 6 -7.5
v 4.5 9 -7.5
v 5.5 0 -7.5
v 5.5 1 -7.5
v 5.5 2 -7.5
v 5.5 9 -7.5
v -8.5 0 -8.5
v -8.5 3 -8.5
v -8.5 4 -8.5
v -8.5 9 -8.5
v -5.5 0 -8.5
v -5.5 3 -8.5
v -5.5 4 -8.5
v -5.5 7 -8.5
v 1.5 0 -8.5
v 1.5 2 -8.5
v 1.5 4 -8.5
v 1.5 6 -8.5
v 1.5 7 -8.5
v 2.5 2 -8.5
v 2.5 4 -8.5
v 4.5 0 -8.5
v 4.5 4 -8.5
v 4.5 6 -8.5
v 4.5 9 -8.5
v -8.5 0 6.5
v -6.5 0 6.5
v 2.5 0 6.5
v 4.5 0 6.5
v -9.5 0 5.5
v -8.5 0 5.5
v -6.5 0 5.5
v -5.5 0 5.5
v 1.5 0 5.5
v 2.5 0 5.5
v 4.5 0 5.5
v 5.5 0 5.5
v -9.5 0 3.5
v -5.5 0 3.5
v 1.5 0 3.5
v 5.5 0 3.5
v -9.5 0 -5.5
v -6.5 0 -5.5
v 2.5 0 -5.5
v 5.5 0 -5.5
v -6.5 0 -6.5
v -5.5 0 -6.5
v 1.5 0 -6.5
v 2.5 0 -6.5
v -9.5 0 -7.5
v -8.5 0 -7.5
v 4.5 0 -7.5
v 5.5 0 -7.5
v -8.5 0 -8.5
v -5.5 0 -8.5
v 1.5 0 -8.5
v 4.5 0 -8.5
v -6.5 6 -5.5
v -5.5 6 -5.5
v -6.5 6 -6.5
v -5.5 6 -6.5
v -6.5 7 6.5
v -2.5 7 6.5
v -1.5 7 6.5
v 2.5 7 6.5
v -6.5 7 5.5
v -5.5 7 5.5
v -2.5 7 5.5
v -1.5 7 5.5
v 1.5 7 5.5
v 2.5 7 5.5
v -9.5 7 3.5
v -5.5 7 3.5
v 1.5 7 3.5
v 5.5 7 3.5
v -9.5 7 2.5
v -8.5 7 2.5
v 4.5 7 1.5
v 5.5 7 1.5
v -9.5 7 -5.5
v -8.5 7 -5.5
v -5.5 7 -5.5
v 2.5 7 -5.5
v 4.5 7 -5.5
v 5.5 7 -5.5
v 1.5 7 -6.5
v 2.5 7 -6.5
v -5.5 7 -8.5
v 1.5 7 -8.5
v -9.5 10 5.5
v -8.5 10 5.5
v 4.5 10 5.5
v 5.5 10 5.5
v -9.5 10 4.5
v -8.5 10 4.5
v 4.5 10 4.5
v 5.5 10 4.5
v -9.5 9 5.5
v -8.5 9 5.5
v 4.5 9 5.5
v 5.5 9 5.5
v -8.5 9 4.5
v 4.5 9 4.5
v 5.5 9 4.5
v 4.5 9 1.5
v 4.5 9 -0.5
v -8.5 9 -1.5
v -8.5 9 -3.5
v 4.5 9 -3.5
v -8.5 9 -5.5
v 4.5 9 -5.5
v -8.5 9 -6.5
v -7.5 9 -6.5
v 3.5 9 -6.5
v 4.5 9 -6.5
v -9.5 9 -7.5
v -8.5 9 -7.5
v -7.5 9 -7.5
v 0.5 9 -7.5
v 3.5 9 -7.5
v 4.5 9 -7.5
v 5.5 9 -7.5
v -8.5 9 -8.5
v 4.5 9 -8.5
v -8.5 10 3.5
v 0.5 10 3.5
v 4.5 10 3.5
v -7.5 10 1.5
v 4.5 10 1.5
v -7.5 10 0.5
v -3.5 10 0.5
v -3.5 10 -0.5
v 4.5 10 -0.5
v -8.5 10 -1.5
v 0.5 10 -1.5
v -8.5 10 -3.5
v -7.5 10 -3.5
v 0.5 10 -3.5
v 4.5 10 -3.5
v -8.5 10 -5.5
v -7.5 10 -5.5
v -0.5 10 -5.5
v 0.5 10 -5.5
v 4.5 10 -5.5
v -8.5 10 -6.5
v -7.5 10 -6.5
v -0.5 10 -6.5
v 3.5 10 -6.5
v 4.5 10 -6.5
v -7.5 10 -7.5
v 0.5 10 -7.5
v 3.5 10 -7.5
v -8.5 19 4.5
v -3.5 19 4.5
v 4.5 19 4.5
v -8.5 19 3.5
v -3.5 19 3.5
v 4.5 19 3.5
v -8.5 20 6.5
v -7.5 20 6.5
v -3.5 20 6.5
v -1.5 20 6.5
v 4.5 20 6.5
v -9.5 20 5.5
v -8.5 20 5.5
v -7.5 20 5.5
v -3.5 20 5.5
v -1.5 20 5.5
v 4.5 20 5.5
v 5.5 20 5.5
v -9.5 20 4.5
v 5.5 20 4.5

# faces
f 5/4/1 4/4/1 3/4/1
f 6/4/1 4/4/1 5/4/1
f 7/4/1 2/4/1 1/4/1
f 8/4/1 2/4/1 7/4/1
f 9/1/1 8/1/1 7/1/1
f 10/1/1 8/1/1 9/1/1
f 11/3/1 6/3/1 5/3/1
f 12/3/1 6/3/1 11/3/1
f 13/4/1 10/4/1 9/4/1
f 15/4/1 12/4/1 11/4/1
f 16/4/1 12/4/1 15/4/1
f 17/4/1 14/4/1 13/4/1
f 17/1/1 15/1/1 14/1/1
f 17/1/1 16/1/1 15/1/1
f 18/1/1 16/1/1 17/1/1
f 19/4/1 13/4/1 9/4/1
f 19/4/1 17/4/1 13/4/1
f 19/4/1 18/4/1 17/4/1
f 20/4/1 18/4/1 19/4/1
f 23/4/1 22/4/1 21/4/1
f 24/4/1 22/4/1 23/4/1
f 25/2/1 24/2/1 23/2/1
f 26/2/1 24/2/1 25/2/1
f 27/4/1 26/4/1 25/4/1
f 28/4/1 26/4/1 27/4/1
f 33/4/1 32/4/1 31/4/1
f 34/4/1 32/4/1 33/4/1
f 35/4/1 30/4/1 29/4/1
f 36/3/1 34/3/1 33/3/1
f 37/3/1 34/3/1 36/3/1
f 38/4/1 35/4/1 29/4/1
f 39/4/1 37/4/1 36/4/1
f 40/4/1 37/4/1 39/4/1
f 41/4/1 37/4/1 40/4/1
f 42/4/1 38/4/1 29/4/1
f 48/4/1 37/4/1 41/4/1
f 49/4/1 37/4/1 48/4/1
f 50/4/1 42/4/1 29/4/1
f 50/4/1 43/4/1 42/4/1
f 51/7/1 44/7/1 43/7/1
f 51/4/1 43/4/1 50/4/1
f 52/7/1 44/7/1 51/7/1
f 53/5/1 45/5/1 44/5/1
f 53/7/1 44/7/1 52/7/1
f 54/7/1 46/7/1 45/7/1
f 54/5/1 45/5/1 53/5/1
f 55/5/1 47/5/1 46/5/1
f 55/7/1 46/7/1 54/7/1
f 56/5/1 47/5/1 55/5/1
f 57/4/1 50/4/1 29/4/1
f 58/4/1 50/4/1 57/4/1
f 59/5/1 52/5/1 51/5/1
f 60/5/1 52/5/1 59/5/1
f 61/1/1 58/1/1 57/1/1
f 62/1/1 58/1/1 61/1/1
f 63/2/1 62/2/1 61/2/1
f 64/2/1 62/2/1 63/2/1
f 65/7/1 60/7/1 59/7/1
f 66/3/1 64/3/1 63/3/1
f 67/3/1 64/3/1 66/3/1
f 68/7/1 60/7/1 65/7/1
f 69/7/1 60/7/1 68/7/1
f 70/6/1 69/6/1 68/6/1
f 71/6/1 69/6/1 70/6/1
f 72/7/1 71/7/1 70/7/1
f 73/7/1 71/7/1 72/7/1
f 74/4/1 67/4/1 66/4/1
f 75/4/1 67/4/1 74/4/1
f 78/6/1 77/6/1 76/6/1
f 79/6/1 77/6/1 78/6/1
f 84/4/1 83/4/1 82/4/1
f 85/4/1 83/4/1 84/4/1
f 86/3/1 85/3/1 84/3/1
f 87/3/1 85/3/1 86/3/1
f 88/3/1 85/3/1 87/3/1
f 89/4/1 87/4/1 86/4/1
f 89/2/1 88/2/1 87/2/1
f 90/2/1 88/2/1 89/2/1
f 91/4/1 81/4/1 80/4/1
f 92/4/1 81/4/1 91/4/1
f 93/4/1 89/4/1 86/4/1
f 93/4/1 90/4/1 89/4/1
f 94/4/1 90/4/1 93/4/1
f 99/4/1 98/4/1 97/4/1
f 100/4/1 99/4/1 97/4/1
f 101/4/1 96/4/1 95/4/1
f 102/4/1 96/4/1 101/4/1
f 103/4/1 100/4/1 97/4/1
f 104/4/1 100/4/1 103/4/1
f 107/4/2 108/4/2 109/4/2
f 109/4/2 108/4/2 110/4/2
f 105/4/2 106/4/2 111/4/2
f 111/4/2 106/4/2 112/4/2
f 115/4/2 116/4/2 117/4/2
f 117/4/2 116/4/2 118/4/2
f 115/4/2 117/4/2 119/4/2
f 117/3/2 118/3/2 119/3/2
f 119/3/2 118/3/2 120/3/2
f 115/4/2 119/4/2 122/4/2
f 119/4/2 120/4/2 122/4/2
f 113/4/2 114/4/2 123/4/2
f 123/4/2 114/4/2 124/4/2
f 121/4/2 122/4/2 125/4/2
f 122/4/2 120/4/2 126/4/2
f 125/4/2 122/4/2 126/4/2
f 127/7/2 128/7/2 129/7/2
f 129/7/2 128/7/2 130/7/2
f 133/4/2 134/4/2 135/4/2
f 131/4/2 132/4/2 136/4/2
f 135/4/2 134/4/2 137/4/2
f 131/4/2 136/4/2 138/4/2
f 131/4/2 138/4/2 139/4/2
f 137/4/2 134/4/2 140/4/2
f 140/4/2 134/4/2 141/4/2
f 131/4/2 139/4/2 142/4/2
f 140/2/2 141/2/2 143/2/2
f 143/2/2 141/2/2 144/2/2
f 131/4/2 142/4/2 145/4/2
f 145/4/2 142/4/2 146/4/2
f 145/1/2 146/1/2 147/1/2
f 143/4/2 144/4/2 154/4/2
f 154/4/2 144/4/2 155/4/2
f 145/1/2 147/1/2 156/1/2
f 147/1/2 148/1/2 156/1/2
f 156/1/2 148/1/2 157/1/2
f 148/7/2 149/7/2 158/7/2
f 157/1/2 148/1/2 158/1/2
f 158/7/2 149/7/2 159/7/2
f 149/5/2 150/5/2 160/5/2
f 159/7/2 149/7/2 160/7/2
f 150/7/2 151/7/2 161/7/2
f 160/5/2 150/5/2 161/5/2
f 151/6/2 152/6/2 162/6/2
f 161/7/2 151/7/2 162/7/2
f 152/7/2 153/7/2 163/7/2
f 162/6/2 152/6/2 163/6/2
f 163/7/2 153/7/2 164/7/2
f 156/4/2 157/4/2 165/4/2
f 165/4/2 157/4/2 166/4/2
f 158/7/2 159/7/2 167/7/2
f 167/7/2 159/7/2 168/7/2
f 167/6/2 168/6/2 169/6/2
f 169/6/2 168/6/2 170/6/2
f 165/3/2 166/3/2 171/3/2
f 171/3/2 166/3/2 172/3/2
f 171/1/2 172/1/2 173/1/2
f 173/1/2 172/1/2 174/1/2
f 173/4/2 174/4/2 175/4/2
f 175/4/2 174/4/2 176/4/2
f 169/7/2 170/7/2 177/7/2
f 177/7/2 170/7/2 178/7/2
f 177/6/2 178/6/2 179/6/2
f 179/6/2 178/6/2 180/6/2
f 175/3/2 176/3/2 181/3/2
f 181/3/2 176/3/2 182/3/2
f 185/4/2 186/4/2 187/4/2
f 187/4/2 186/4/2 188/4/2
f 183/4/2 184/4/2 189/4/2
f 189/4/2 184/4/2 190/4/2
f 187/2/2 188/2/2 191/2/2
f 191/2/2 188/2/2 192/2/2
f 189/2/2 190/2/2 193/2/2
f 193/2/2 190/2/2 194/2/2
f 193/4/2 194/4/2 195/4/2
f 195/4/2 194/4/2 196/4/2
f 195/2/2 196/2/2 197/2/2
f 197/2/2 196/2/2 198/2/2
f 197/4/2 198/4/2 199/4/2
f 191/4/2 192/4/2 201/4/2
f 201/4/2 192/4/2 202/4/2
f 199/4/2 200/4/2 203/4/2
f 197/4/2 199/4/2 203/4/2
f 203/4/2 200/4/2 204/4/2
f 201/2/2 202/2/2 205/2/2
f 204/4/2 200/4/2 205/4/2
f 200/2/2 201/2/2 205/2/2
f 202/4/2 192/4/2 206/4/2
f 205/2/2 202/2/2 206/2/2
f 203/1/2 204/1/2 207/1/2
f 204/4/2 205/4/2 208/4/2
f 207/1/2 204/1/2 208/1/2
f 205/4/2 206/4/2 208/4/2
f 206/4/2 192/4/2 209/4/2
f 208/4/2 206/4/2 209/4/2
f 210/4/2 211/4/2 212/4/2
f 212/4/2 211/4/2 213/4/2
f 220/4/3 215/4/3 214/4/3
f 221/4/3 215/4/3 220/4/3
f 222/1/3 216/1/3 215/1/3
f 222/2/3 217/2/3 216/2/3
f 223/3/3 218/3/3 217/3/3
f 223/2/3 217/2/3 222/2/3
f 224/4/3 219/4/3 218/4/3
f 225/4/3 219/4/3 224/4/3
f 226/4/3 220/4/3 214/4/3
f 227/4/3 220/4/3 226/4/3
f 228/3/3 218/3/3 223/3/3
f 228/3/3 223/3/3 222/3/3
f 228/4/3 224/4/3 218/4/3
f 229/4/3 224/4/3 228/4/3
f 230/1/3 222/1/3 215/1/3
f 230/3/3 228/3/3 222/3/3
f 231/1/3 229/1/3 228/1/3
f 231/3/3 228/3/3 230/3/3
f 232/4/3 224/4/3 229/4/3
f 232/3/3 225/3/3 224/3/3
f 233/3/3 225/3/3 232/3/3
f 234/4/3 220/4/3 227/4/3
f 235/1/3 221/1/3 220/1/3
f 235/4/3 220/4/3 234/4/3
f 236/4/3 215/4/3 221/4/3
f 236/1/3 221/1/3 235/1/3
f 237/1/3 230/1/3 215/1/3
f 237/4/3 215/4/3 236/4/3
f 238/2/3 235/2/3 234/2/3
f 238/2/3 236/2/3 235/2/3
f 238/2/3 237/2/3 236/2/3
f 239/2/3 237/2/3 238/2/3
f 240/2/3 237/2/3 239/2/3
f 241/1/3 230/1/3 237/1/3
f 241/2/3 237/2/3 240/2/3
f 242/4/3 231/4/3 230/4/3
f 242/1/3 230/1/3 241/1/3
f 243/1/3 229/1/3 231/1/3
f 243/4/3 231/4/3 242/4/3
f 244/4/3 233/4/3 232/4/3
f 244/4/3 232/4/3 229/4/3
f 245/4/3 233/4/3 244/4/3
f 247/4/3 239/4/3 238/4/3
f 248/4/3 247/4/3 246/4/3
f 249/1/3 240/1/3 239/1/3
f 249/4/3 247/4/3 248/4/3
f 249/4/3 239/4/3 247/4/3
f 250/4/3 242/4/3 241/4/3
f 250/1/3 240/1/3 249/1/3
f 250/4/3 241/4/3 240/4/3
f 251/3/3 243/3/3 242/3/3
f 251/4/3 242/4/3 250/4/3
f 252/1/3 229/1/3 243/1/3
f 252/3/3 243/3/3 251/3/3
f 253/4/3 244/4/3 229/4/3
f 253/1/3 229/1/3 252/1/3
f 254/3/3 245/3/3 244/3/3
f 254/4/3 244/4/3 253/4/3
f 255/3/3 245/3/3 254/3/3
f 264/4/3 257/4/3 256/4/3
f 265/1/3 258/1/3 257/1/3
f 265/4/3 257/4/3 264/4/3
f 266/4/3 259/4/3 258/4/3
f 266/1/3 258/1/3 265/1/3
f 267/4/3 259/4/3 266/4/3
f 268/4/3 261/4/3 260/4/3
f 269/2/3 262/2/3 261/2/3
f 269/4/3 261/4/3 268/4/3
f 270/2/3 262/2/3 269/2/3
f 271/4/3 263/4/3 262/4/3
f 271/2/3 262/2/3 270/2/3
f 272/4/3 263/4/3 271/4/3
f 273/4/3 263/4/3 272/4/3
f 276/4/3 275/4/3 274/4/3
f 277/4/3 275/4/3 276/4/3
f 280/4/3 279/4/3 278/4/3
f 281/4/3 279/4/3 280/4/3
f 295/4/3 283/4/3 282/4/3
f 296/2/3 284/2/3 283/2/3
f 296/4/3 283/4/3 295/4/3
f 297/4/3 285/4/3 284/4/3
f 297/2/3 284/2/3 296/2/3
f 298/2/3 286/2/3 285/2/3
f 298/4/3 285/4/3 297/4/3
f 299/4/3 287/4/3 286/4/3
f 299/2/3 286/2/3 298/2/3
f 300/1/3 288/1/3 287/1/3
f 300/4/3 287/4/3 299/4/3
f 301/1/3 288/1/3 300/1/3
f 302/4/3 294/4/3 293/4/3
f 302/4/3 290/4/3 289/4/3
f 302/4/3 291/4/3 290/4/3
f 302/4/3 293/4/3 292/4/3
f 302/4/3 292/4/3 291/4/3
f 303/4/3 294/4/3 302/4/3
f 308/4/3 305/4/3 304/4/3
f 308/3/3 306/3/3 305/3/3
f 309/4/3 307/4/3 306/4/3
f 309/3/3 306/3/3 308/3/3
f 310/4/3 307/4/3 309/4/3
f 311/4/3 308/4/3 304/4/3
f 311/4/3 309/4/3 308/4/3
f 311/4/3 310/4/3 309/4/3
f 312/4/3 310/4/3 311/4/3
f 313/4/3 310/4/3 312/4/3
f 314/4/3 310/4/3 313/4/3
f 317/4/3 316/4/3 315/4/3
f 318/4/3 316/4/3 317/4/3
f 319/4/3 316/4/3 318/4/3
f 320/4/3 317/4/3 315/4/3
f 321/2/3 318/2/3 317/2/3
f 321/4/3 317/4/3 320/4/3
f 322/4/3 319/4/3 318/4/3
f 322/2/3 318/2/3 321/2/3
f 323/4/3 319/4/3 322/4/3
f 326/4/3 325/4/3 324/4/3
f 327/4/3 325/4/3 326/4/3
f 332/4/3 329/4/3 328/4/3
f 333/3/3 330/3/3 329/3/3
f 333/4/3 329/4/3 332/4/3
f 334/4/3 331/4/3 330/4/3
f 334/3/3 330/3/3 333/3/3
f 335/4/3 331/4/3 334/4/3
f 336/4/4 337/4/4 340/4/4
f 337/2/4 338/2/4 341/2/4
f 340/4/4 337/4/4 341/4/4
f 338/4/4 339/4/4 342/4/4
f 341/2/4 338/2/4 342/2/4
f 342/4/4 339/4/4 343/4/4
f 343/4/4 339/4/4 344/4/4
f 344/4/4 339/4/4 345/4/4
f 345/4/4 339/4/4 346/4/4
f 346/4/4 339/4/4 351/4/4
f 349/4/4 350/4/4 352/4/4
f 350/4/4 351/4/4 352/4/4
f 347/4/4 348/4/4 352/4/4
f 348/4/4 349/4/4 352/4/4
f 351/4/4 339/4/4 353/4/4
f 352/4/4 351/4/4 353/4/4
f 354/4/4 355/4/4 358/4/4
f 355/1/4 356/1/4 358/1/4
f 356/4/4 357/4/4 359/4/4
f 358/1/4 356/1/4 359/1/4
f 354/4/4 358/4/4 365/4/4
f 358/4/4 359/4/4 365/4/4
f 359/4/4 357/4/4 366/4/4
f 365/4/4 359/4/4 366/4/4
f 361/7/4 362/7/4 367/7/4
f 367/7/4 362/7/4 368/7/4
f 363/7/4 364/7/4 369/7/4
f 369/7/4 364/7/4 370/7/4
f 360/5/4 361/5/4 371/5/4
f 361/7/4 367/7/4 372/7/4
f 371/5/4 361/5/4 372/5/4
f 360/5/4 371/5/4 373/5/4
f 371/7/4 372/7/4 374/7/4
f 373/5/4 371/5/4 374/5/4
f 368/7/4 362/7/4 377/7/4
f 362/6/4 363/6/4 377/6/4
f 363/7/4 369/7/4 378/7/4
f 377/6/4 363/6/4 378/6/4
f 375/4/4 376/4/4 379/4/4
f 379/4/4 376/4/4 380/4/4
f 380/4/4 376/4/4 381/4/4
f 381/4/4 376/4/4 382/4/4
f 373/7/4 374/7/4 383/7/4
f 374/7/4 372/7/4 384/7/4
f 383/7/4 374/7/4 384/7/4
f 372/7/4 367/7/4 384/7/4
f 367/6/4 368/6/4 384/6/4
f 368/7/4 377/7/4 385/7/4
f 384/6/4 368/6/4 385/6/4
f 377/7/4 378/7/4 385/7/4
f 378/7/4 369/7/4 386/7/4
f 385/7/4 378/7/4 386/7/4
f 369/6/4 370/6/4 386/6/4
f 386/6/4 370/6/4 387/6/4
f 375/4/4 379/4/4 388/4/4
f 379/2/4 380/2/4 389/2/4
f 388/4/4 379/4/4 389/4/4
f 380/4/4 381/4/4 390/4/4
f 389/2/4 380/2/4 390/2/4
f 381/2/4 382/2/4 391/2/4
f 390/4/4 381/4/4 391/4/4
f 382/4/4 376/4/4 392/4/4
f 391/2/4 382/2/4 392/2/4
f 392/4/4 376/4/4 393/4/4
f 394/5/4 395/5/4 396/5/4
f 396/5/4 395/5/4 397/5/4
f 398/7/4 399/7/4 400/7/4
f 400/7/4 399/7/4 401/7/4
f 402/4/4 403/4/4 408/4/4
f 403/3/4 404/3/4 409/3/4
f 408/4/4 403/4/4 409/4/4
f 409/3/4 404/3/4 410/3/4
f 404/4/4 405/4/4 411/4/4
f 410/3/4 404/3/4 411/3/4
f 405/1/4 406/1/4 412/1/4
f 411/4/4 405/4/4 412/4/4
f 406/4/4 407/4/4 413/4/4
f 412/1/4 406/1/4 413/1/4
f 413/4/4 407/4/4 414/4/4
f 415/6/4 416/6/4 417/6/4
f 417/6/4 416/6/4 418/6/4
f 417/7/4 418/7/4 419/7/4
f 419/7/4 418/7/4 420/7/4
f 421/4/4 422/4/4 427/4/4
f 422/2/4 423/2/4 428/2/4
f 427/4/4 422/4/4 428/4/4
f 425/4/4 426/4/4 429/4/4
f 428/2/4 423/2/4 429/2/4
f 423/4/4 424/4/4 429/4/4
f 424/4/4 425/4/4 429/4/4
f 429/4/4 426/4/4 430/4/4
f 431/4/4 432/4/4 435/4/4
f 432/3/4 433/3/4 436/3/4
f 435/4/4 432/4/4 436/4/4
f 433/4/4 434/4/4 437/4/4
f 436/3/4 433/3/4 437/3/4
f 437/4/4 434/4/4 438/4/4
f 438/4/4 434/4/4 443/4/4
f 439/4/4 440/4/4 444/4/4
f 440/3/4 441/3/4 444/3/4
f 441/2/4 442/2/4 445/2/4
f 444/3/4 441/3/4 445/3/4
f 439/4/4 444/4/4 446/4/4
f 444/4/4 445/4/4 446/4/4
f 445/2/4 442/2/4 447/2/4
f 446/4/4 445/4/4 447/4/4
f 442/4/4 443/4/4 448/4/4
f 447/2/4 442/2/4 448/2/4
f 443/4/4 434/4/4 449/4/4
f 448/4/4 443/4/4 449/4/4
f 455/4/5 451/4/5 450/4/5
f 456/4/5 451/4/5 455/4/5
f 459/4/5 453/4/5 452/4/5
f 460/4/5 453/4/5 459/4/5
f 462/4/5 457/4/5 456/4/5
f 462/4/5 455/4/5 454/4/5
f 462/4/5 456/4/5 455/4/5
f 463/4/5 457/4/5 462/4/5
f 464/4/5 461/4/5 460/4/5
f 464/4/5 460/4/5 459/4/5
f 464/4/5 459/4/5 458/4/5
f 465/4/5 461/4/5 464/4/5
f 470/4/5 467/4/5 466/4/5
f 473/4/5 469/4/5 468/4/5
f 474/4/5 471/4/5 470/4/5
f 474/4/5 470/4/5 466/4/5
f 475/4/5 471/4/5 474/4/5
f 476/4/5 473/4/5 472/4/5
f 476/4/5 469/4/5 473/4/5
f 477/4/5 469/4/5 476/4/5
f 478/4/5 471/4/5 475/4/5
f 479/4/5 471/4/5 478/4/5
f 480/4/5 476/4/5 472/4/5
f 481/4/5 476/4/5 480/4/5
f 484/4/5 483/4/5 482/4/5
f 485/4/5 483/4/5 484/4/5
f 490/4/5 487/4/5 486/4/5
f 491/4/5 487/4/5 490/4/5
f 492/2/5 488/2/5 487/2/5
f 492/4/5 487/4/5 491/4/5
f 493/4/5 489/4/5 488/4/5
f 493/2/5 488/2/5 492/2/5
f 494/4/5 489/4/5 493/4/5
f 495/4/5 489/4/5 494/4/5
f 497/4/5 492/4/5 491/4/5
f 497/4/5 494/4/5 493/4/5
f 497/4/5 493/4/5 492/4/5
f 498/4/5 494/4/5 497/4/5
f 500/4/5 498/4/5 497/4/5
f 500/4/5 499/4/5 498/4/5
f 500/4/5 497/4/5 496/4/5
f 501/4/5 499/4/5 500/4/5
f 502/4/5 499/4/5 501/4/5
f 503/4/5 499/4/5 502/4/5
f 504/1/5 501/1/5 500/1/5
f 505/4/5 502/4/5 501/4/5
f 505/1/5 501/1/5 504/1/5
f 506/4/5 502/4/5 505/4/5
f 507/4/5 502/4/5 506/4/5
f 508/2/5 503/2/5 502/2/5
f 508/4/5 502/4/5 507/4/5
f 509/2/5 503/2/5 508/2/5
f 510/4/5 507/4/5 506/4/5
f 511/4/5 507/4/5 510/4/5
f 512/4/5 510/4/5 506/4/5
f 513/4/5 510/4/5 512/4/5
f 518/4/5 515/4/5 514/4/5
f 519/4/5 515/4/5 518/4/5
f 520/4/5 517/4/5 516/4/5
f 521/4/5 517/4/5 520/4/5
f 522/4/6 523/4/6 526/4/6
f 524/1/6 525/1/6 527/1/6
f 527/1/6 525/1/6 528/1/6
f 527/4/6 528/4/6 529/4/6
f 529/4/6 528/4/6 530/4/6
f 522/4/6 526/4/6 531/4/6
f 522/4/6 531/4/6 532/4/6
f 530/4/6 528/4/6 533/4/6
f 522/4/6 532/4/6 534/4/6
f 533/4/6 528/4/6 535/4/6
f 522/4/6 534/4/6 536/4/6
f 535/4/6 528/4/6 539/4/6
f 536/4/6 537/4/6 540/4/6
f 522/4/6 536/4/6 540/4/6
f 540/4/6 537/4/6 541/4/6
f 541/4/6 537/4/6 542/4/6
f 538/4/6 539/4/6 544/4/6
f 539/4/6 528/4/6 545/4/6
f 544/4/6 539/4/6 545/4/6
f 545/4/6 528/4/6 546/4/6
f 542/4/6 543/4/6 547/4/6
f 543/4/6 544/4/6 547/4/6
f 544/4/6 545/4/6 547/4/6
f 541/4/6 542/4/6 547/4/6
f 547/4/6 545/4/6 548/4/6
f 549/7/6 550/7/6 552/7/6
f 550/7/6 551/7/6 552/7/6
f 552/7/6 551/7/6 553/7/6
f 549/7/6 552/7/6 554/7/6
f 552/5/6 553/5/6 554/5/6
f 554/5/6 553/5/6 555/5/6
f 554/7/6 555/7/6 556/7/6
f 555/5/6 553/5/6 556/5/6
f 556/5/6 553/5/6 557/5/6
f 549/7/6 554/7/6 558/7/6
f 554/7/6 556/7/6 558/7/6
f 556/7/6 557/7/6 558/7/6
f 558/7/6 557/7/6 559/7/6
f 558/5/6 559/5/6 560/5/6
f 560/5/6 559/5/6 561/5/6
f 559/7/6 557/7/6 562/7/6
f 561/5/6 559/5/6 562/5/6
f 562/7/6 557/7/6 563/7/6
f 560/7/6 561/7/6 564/7/6
f 561/6/6 562/6/6 565/6/6
f 564/7/6 561/7/6 565/7/6
f 562/6/6 563/6/6 565/6/6
f 565/6/6 563/6/6 566/6/6
f 566/6/6 563/6/6 567/6/6
f 567/6/6 563/6/6 568/6/6
f 564/5/6 565/5/6 569/5/6
f 565/5/6 566/5/6 569/5/6
f 569/5/6 566/5/6 570/5/6
f 566/6/6 567/6/6 571/6/6
f 570/5/6 566/5/6 571/5/6
f 567/7/6 568/7/6 572/7/6
f 572/7/6 568/7/6 573/7/6
f 570/6/6 571/6/6 574/6/6
f 571/6/6 567/6/6 575/6/6
f 574/6/6 571/6/6 575/6/6
f 567/7/6 572/7/6 575/7/6
f 575/7/6 572/7/6 576/7/6
f 577/7/6 578/7/6 580/7/6
f 578/6/6 579/6/6 581/6/6
f 580/7/6 578/7/6 581/7/6
f 581/6/6 579/6/6 582/6/6
f 583/4/6 584/4/6 589/4/6
f 584/3/6 585/3/6 590/3/6
f 589/4/6 584/4/6 590/4/6
f 585/4/6 586/4/6 591/4/6
f 590/3/6 585/3/6 591/3/6
f 586/3/6 587/3/6 592/3/6
f 591/4/6 586/4/6 592/4/6
f 592/3/6 587/3/6 593/3/6
f 590/4/6 591/4/6 595/4/6
f 593/4/6 594/4/6 595/4/6
f 592/4/6 593/4/6 595/4/6
f 591/4/6 592/4/6 595/4/6
f 588/4/6 589/4/6 595/4/6
f 589/4/6 590/4/6 595/4/6
f 595/4/6 594/4/6 596/4/6
